{
.appVersion = "1342";
copyright = "Copyright 2012 Google Inc. All Rights Reserved.";
customParameters = (
{
name = vendorID;
value = MONO;
},
{
name = panose;
value = (
2,
2,
6,
0,
6,
5,
0,
2,
2,
0
);
},
{
name = unicodeRanges;
value = (
0,
1,
2,
3,
4,
5,
6,
7,
9,
29,
30,
31,
32,
33,
34,
35,
36,
37,
38,
39,
43,
44,
45,
46,
60,
62,
64,
67,
69
);
},
{
name = glyphOrder;
value = (
.notdef,
CR,
space,
uni0000,
exclam,
quotedbl,
numbersign,
dollar,
percent,
ampersand,
quotesingle,
parenleft,
parenright,
asterisk,
plus,
comma,
hyphen,
period,
slash,
zero,
one,
two,
three,
four,
five,
six,
seven,
eight,
nine,
colon,
semicolon,
less,
equal,
greater,
question,
at,
A,
B,
C,
D,
E,
F,
G,
H,
I,
J,
K,
L,
M,
N,
O,
P,
Q,
R,
S,
T,
U,
V,
W,
X,
Y,
Z,
bracketleft,
backslash,
bracketright,
asciicircum,
underscore,
grave,
a,
b,
c,
d,
e,
f,
g,
h,
i,
j,
k,
l,
m,
n,
o,
p,
q,
r,
s,
t,
u,
v,
w,
x,
y,
z,
braceleft,
bar,
braceright,
asciitilde,
guillemotleft,
guillemotright,
uni1780,
uni1781,
uni1782,
uni1783,
uni1784,
uni1785,
uni1786,
uni1787,
uni1788,
uni1789,
uni178A,
uni178B,
uni178C,
uni178D,
uni178E,
uni178F,
uni1790,
uni1791,
uni1792,
uni1793,
uni1794,
uni1795,
uni1796,
uni1797,
uni1798,
uni1799,
uni179A,
uni179B,
uni179C,
uni179D,
uni179E,
uni179F,
uni17A0,
uni17A1,
uni17A2,
uni17A3,
uni17A4,
uni17A5,
uni17A6,
uni17A7,
uni17A8,
uni17A9,
uni17AA,
uni17AB,
uni17AC,
uni17AD,
uni17AE,
uni17AF,
uni17B0,
uni17B1,
uni17B2,
uni17B3,
uni17B4,
uni17B5,
uni17B6,
uni17B7,
uni17B8,
uni17B9,
uni17BA,
uni17BB,
uni17BC,
uni17BD,
uni17BE,
uni17BF,
uni17C0,
uni17C1,
uni17C2,
uni17C3,
uni17C4,
uni17C5,
uni17C6,
uni17C7,
uni17C8,
uni17C9,
uni17CA,
uni17CB,
uni17CC,
uni17CD,
uni17CE,
uni17CF,
uni17D0,
uni17D1,
uni17D2,
uni17D3,
uni17D4,
uni17D5,
uni17D6,
uni17D7,
uni17D8,
uni17D9,
uni17DA,
uni17DB,
uni17DC,
uni17DD,
uni17E0,
uni17E1,
uni17E2,
uni17E3,
uni17E4,
uni17E5,
uni17E6,
uni17E7,
uni17E8,
uni17E9,
ta.half,
cho.half,
ru.half,
ruu.half,
uni17D2_1780,
uni17D2_1781,
uni17D2_1782,
uni17D21783,

glyphs = (
{
glyphname = .notdef;
layers = (
{
layerId = "982A60EF-513A-498E-AE80-A9982858EA0F";
paths = (
{
closed = 1;
nodes = (
"922 1462 LINE",
"102 1462 LINE",
"102 0 LINE",
"922 0 LINE"
);
},
{
closed = 1;
nodes = (
"823 1364 LINE",
"823 98 LINE",
"201 98 LINE",
"201 1364 LINE"
);
}
);
userData = {
assembly = "NPUSHB[ ]	/* 39 values pushed */\0120 0 0 3 2 0 3 103 0 2 1 1 2 87 0 2 2 1 95 4 1 1 2 1 79 0 0 7 6 5 4 0 3 0 3 17 5 6 23 \012CALL[ ]	/* CallFunction */";
};
width = 1024;
}
);
note = .notdef;
},
{
glyphname = exclam;
layers = (
{
layerId = "982A60EF-513A-498E-AE80-A9982858EA0F";
paths = (
{
closed = 1;
nodes = (
"190 -28 OFFCURVE",
"228 -28 QCURVE SMOOTH",
"284 -28 OFFCURVE",
"358 54 OFFCURVE",
"358 112 QCURVE SMOOTH",
"358 148 OFFCURVE",
"308 204 OFFCURVE",
"272 204 QCURVE SMOOTH",
"216 204 OFFCURVE",
"140 128 OFFCURVE",
"140 72 QCURVE SMOOTH",
"140 32 OFFCURVE"
);
},
{
closed = 1;
nodes = (
"372 1188 OFFCURVE",
"366 1154 QCURVE SMOOTH",
"346 1020 OFFCURVE",
"294 616 OFFCURVE",
"260 336 OFFCURVE",
"260 332 QCURVE SMOOTH",
"260 296 OFFCURVE",
"272 296 QCURVE SMOOTH",
"282 296 OFFCURVE",
"324 322 OFFCURVE",
"328 340 QCURVE SMOOTH",
"364 482 OFFCURVE",
"480 906 OFFCURVE",
"546 1152 OFFCURVE",
"546 1176 QCURVE SMOOTH",
"546 1210 OFFCURVE",
"514 1262 OFFCURVE",
"484 1262 QCURVE SMOOTH",
"440 1262 OFFCURVE"
);
}
);
width = 374;
}
);
note = exclam;
unicode = 0021;
},
{
glyphname = quotedbl;
layers = (
{
layerId = "982A60EF-513A-498E-AE80-A9982858EA0F";
paths = (
{
closed = 1;
nodes = (
"98 1306 OFFCURVE",
"92 1272 QCURVE",
"92 1246 OFFCURVE",
"100 1116 OFFCURVE",
"100 974 OFFCURVE",
"92 894 QCURVE SMOOTH",
"90 882 OFFCURVE",
"110 868 OFFCURVE",
"134 868 OFFCURVE",
"160 884 OFFCURVE",
"164 898 QCURVE SMOOTH",
"180 952 OFFCURVE",
"270 1204 OFFCURVE",
"282 1266 QCURVE",
"294 1354 OFFCURVE",
"272 1396 OFFCURVE",
"226 1396 QCURVE SMOOTH",
"178 1396 OFFCURVE"
);
},
{
closed = 1;
nodes = (
"398 1306 OFFCURVE",
"392 1272 QCURVE",
"392 1246 OFFCURVE",
"400 1116 OFFCURVE",
"400 974 OFFCURVE",
"392 894 QCURVE SMOOTH",
"390 882 OFFCURVE",
"410 868 OFFCURVE",
"434 868 OFFCURVE",
"460 884 OFFCURVE",
"464 898 QCURVE SMOOTH",
"480 952 OFFCURVE",
"570 1204 OFFCURVE",
"582 1266 QCURVE",
"594 1354 OFFCURVE",
"572 1396 OFFCURVE",
"526 1396 QCURVE SMOOTH",
"478 1396 OFFCURVE"
);
}
);
width = 594;
}
);
note = quotedbl;
unicode = 0022;
},
{
glyphname = numbersign;
layers = (
{
layerId = "982A60EF-513A-498E-AE80-A9982858EA0F";
paths = (
{
closed = 1;
nodes = (
"786 1050 OFFCURVE",
"788 1052 QCURVE",
"788 1064 OFFCURVE",
"744 1064 QCURVE SMOOTH",
"684 1064 OFFCURVE",
"678 1048 QCURVE SMOOTH",
"576 746 LINE",
"402 746 LINE",
"506 1048 LINE",
"506 1050 OFFCURVE",
"508 1052 QCURVE",
"508 1064 OFFCURVE",
"464 1064 QCURVE SMOOTH",
"404 1064 OFFCURVE",
"398 1048 QCURVE SMOOTH",
"296 746 LINE",
"142 746 LINE SMOOTH",
"126 746 OFFCURVE",
"92 672 OFFCURVE",
"92 646 QCURVE SMOOTH",
"92 634 OFFCURVE",
"106 634 QCURVE SMOOTH",
"258 634 LINE",
"200 462 LINE",
"46 462 LINE SMOOTH",
"30 462 OFFCURVE",
"-4 388 OFFCURVE",
"-4 362 QCURVE SMOOTH",
"-4 350 OFFCURVE",
"10 350 QCURVE SMOOTH",
"162 350 LINE",
"58 48 LINE",
"58 46 OFFCURVE",
"56 42 QCURVE",
"56 32 OFFCURVE",
"100 32 QCURVE SMOOTH",
"160 32 OFFCURVE",
"166 48 QCURVE SMOOTH",
"268 350 LINE",
"442 350 LINE",
"338 48 LINE",
"338 46 OFFCURVE",
"336 42 QCURVE",
"336 32 OFFCURVE",
"380 32 QCURVE SMOOTH",
"440 32 OFFCURVE",
"446 48 QCURVE SMOOTH",
"548 350 LINE",
"702 350 LINE SMOOTH",
"718 350 OFFCURVE",
"752 424 OFFCURVE",
"752 450 QCURVE SMOOTH",
"752 462 OFFCURVE",
"738 462 QCURVE SMOOTH",
"586 462 LINE",
"644 634 LINE",
"798 634 LINE SMOOTH",
"814 634 OFFCURVE",
"848 710 OFFCURVE",
"848 736 QCURVE SMOOTH",
"848 746 OFFCURVE",
"834 746 QCURVE SMOOTH",
"682 746 LINE",
"786 1048 LINE"
);
},
{
closed = 1;
nodes = (
"306 462 LINE",
"364 634 LINE",
"538 634 LINE",
"480 462 LINE"
);
}
);
width = 838;
}
);
note = numbersign;
unicode = 0023;
},
{
glyphname = dollar;
layers = (
{
layerId = "982A60EF-513A-498E-AE80-A9982858EA0F";
paths = (
{
closed = 1;
nodes = (
"838 1366 OFFCURVE",
"774 1366 QCURVE",
"268 -86 LINE",
"266 -104 OFFCURVE",
"330 -104 QCURVE",
"836 1352 LINE"
);
},
{
closed = 1;
nodes = (
"844 186 OFFCURVE",
"874 340 QCURVE SMOOTH",
"902 480 OFFCURVE",
"772 598 QCURVE SMOOTH",
"740 626 OFFCURVE",
"590 732 QCURVE SMOOTH",
"488 802 OFFCURVE",
"402 918 OFFCURVE",
"420 1010 QCURVE SMOOTH",
"458 1204 OFFCURVE",
"660 1204 QCURVE SMOOTH",
"760 1204 OFFCURVE",
"858 1044 OFFCURVE",
"854 974 QCURVE SMOOTH",
"854 956 OFFCURVE",
"898 952 QCURVE SMOOTH",
"910 952 OFFCURVE",
"914 968 QCURVE SMOOTH",
"934 1070 OFFCURVE",
"946 1242 QCURVE",
"936 1244 OFFCURVE",
"834 1270 OFFCURVE",
"728 1288 OFFCURVE",
"686 1288 QCURVE SMOOTH",
"544 1288 OFFCURVE",
"294 1092 OFFCURVE",
"266 946 QCURVE SMOOTH",
"252 876 OFFCURVE",
"280 762 OFFCURVE",
"376 662 OFFCURVE",
"470 590 OFFCURVE",
"554 538 QCURVE",
"556 536 OFFCURVE",
"598 510 OFFCURVE",
"606 504 OFFCURVE",
"644 478 OFFCURVE",
"656 464 OFFCURVE",
"684 436 OFFCURVE",
"694 414 OFFCURVE",
"710 380 OFFCURVE",
"712 346 OFFCURVE",
"712 304 OFFCURVE",
"708 282 QCURVE SMOOTH",
"688 178 OFFCURVE",
"536 62 OFFCURVE",
"444 62 QCURVE SMOOTH",
"216 62 OFFCURVE",
"202 332 QCURVE",
"192 348 OFFCURVE",
"164 348 QCURVE SMOOTH",
"132 348 OFFCURVE",
"128 332 QCURVE",
"104 160 OFFCURVE",
"122 30 QCURVE",
"352 -16 OFFCURVE",
"424 -16 QCURVE SMOOTH",
"578 -16 OFFCURVE"
);
}
);
width = 860;
}
);
note = dollar;
unicode = 0024;
},
{
glyphname = percent;
layers = (
{
layerId = "982A60EF-513A-498E-AE80-A9982858EA0F";
paths = (
{
closed = 1;
nodes = (
"576 1166 OFFCURVE",
"576 1082 QCURVE SMOOTH",
"576 952 OFFCURVE",
"462 732 OFFCURVE",
"372 732 QCURVE SMOOTH",
"306 732 OFFCURVE",
"242 866 OFFCURVE",
"242 956 QCURVE SMOOTH",
"242 1080 OFFCURVE",
"370 1292 OFFCURVE",
"460 1292 QCURVE SMOOTH",
"522 1292 OFFCURVE"
);
},
{
closed = 1;
nodes = (
"116 1090 OFFCURVE",
"116 938 QCURVE SMOOTH",
"116 830 OFFCURVE",
"240 676 OFFCURVE",
"348 676 QCURVE SMOOTH",
"490 676 OFFCURVE",
"706 932 OFFCURVE",
"706 1082 QCURVE SMOOTH",
"706 1192 OFFCURVE",
"590 1346 OFFCURVE",
"480 1346 QCURVE SMOOTH",
"332 1346 OFFCURVE"
);
},
{
closed = 1;
nodes = (
"1208 1326 QCURVE SMOOTH",
"1186 1326 OFFCURVE",
"1164 1304 QCURVE SMOOTH",
"-28 -2 LINE",
"-22 -24 OFFCURVE",
"2 -24 QCURVE SMOOTH",
"46 -24 OFFCURVE",
"70 0 QCURVE SMOOTH",
"1262 1300 LINE",
"1252 1326 OFFCURVE"
);
},
{
closed = 1;
nodes = (
"1000 474 OFFCURVE",
"1000 390 QCURVE SMOOTH",
"1000 260 OFFCURVE",
"886 40 OFFCURVE",
"796 40 QCURVE SMOOTH",
"730 40 OFFCURVE",
"666 174 OFFCURVE",
"666 264 QCURVE SMOOTH",
"666 388 OFFCURVE",
"794 600 OFFCURVE",
"884 600 QCURVE SMOOTH",
"946 600 OFFCURVE"
);
},
{
closed = 1;
nodes = (
"540 398 OFFCURVE",
"540 246 QCURVE SMOOTH",
"540 138 OFFCURVE",
"664 -16 OFFCURVE",
"772 -16 QCURVE SMOOTH",
"914 -16 OFFCURVE",
"1130 240 OFFCURVE",
"1130 390 QCURVE SMOOTH",
"1130 500 OFFCURVE",
"1014 654 OFFCURVE",
"904 654 QCURVE SMOOTH",
"756 654 OFFCURVE"
);
}
);
width = 1236;
}
);
note = percent;
unicode = 0025;
},
{
glyphname = ampersand;
layers = (
{
layerId = "982A60EF-513A-498E-AE80-A9982858EA0F";
paths = (
{
closed = 1;
nodes = (
"876 670 OFFCURVE",
"932 670 QCURVE SMOOTH",
"1004 670 OFFCURVE",
"1098 552 OFFCURVE",
"1098 474 QCURVE SMOOTH",
"1098 304 OFFCURVE",
"840 58 OFFCURVE",
"676 58 QCURVE SMOOTH",
"528 58 OFFCURVE",
"328 262 OFFCURVE",
"328 408 QCURVE SMOOTH",
"328 560 OFFCURVE",
"472 682 QCURVE",
"520 640 OFFCURVE",
"596 640 QCURVE SMOOTH",
"646 640 OFFCURVE",
"726 682 OFFCURVE",
"726 720 QCURVE SMOOTH",
"726 760 OFFCURVE",
"632 804 OFFCURVE",
"576 804 QCURVE SMOOTH",
"548 804 OFFCURVE",
"498 790 QCURVE",
"432 848 OFFCURVE",
"432 948 QCURVE SMOOTH",
"432 1042 OFFCURVE",
"560 1180 OFFCURVE",
"652 1180 QCURVE SMOOTH",
"716 1180 OFFCURVE",
"808 1092 OFFCURVE",
"808 1028 QCURVE SMOOTH",
"808 994 OFFCURVE",
"788 940 OFFCURVE",
"788 938 QCURVE SMOOTH",
"788 924 OFFCURVE",
"806 924 QCURVE SMOOTH",
"840 924 OFFCURVE",
"926 1028 OFFCURVE",
"926 1086 QCURVE SMOOTH",
"926 1170 OFFCURVE",
"788 1270 OFFCURVE",
"696 1270 QCURVE SMOOTH",
"564 1270 OFFCURVE",
"332 1090 OFFCURVE",
"332 958 QCURVE SMOOTH",
"332 848 OFFCURVE",
"408 762 QCURVE",
"314 726 OFFCURVE",
"156 514 OFFCURVE",
"156 392 QCURVE SMOOTH",
"156 208 OFFCURVE",
"454 -28 OFFCURVE",
"652 -28 QCURVE SMOOTH",
"880 -28 OFFCURVE",
"1234 250 OFFCURVE",
"1234 448 QCURVE SMOOTH",
"1234 598 OFFCURVE",
"1124 696 QCURVE",
"1164 692 OFFCURVE",
"1176 692 QCURVE SMOOTH",
"1278 692 OFFCURVE",
"1400 800 OFFCURVE",
"1400 976 OFFCURVE",
"1262 1076 OFFCURVE",
"1150 1076 QCURVE",
"1098 1036 OFFCURVE",
"1098 990 QCURVE SMOOTH",
"1098 964 OFFCURVE",
"1132 924 OFFCURVE",
"1156 924 QCURVE SMOOTH",
"1178 924 OFFCURVE",
"1240 960 OFFCURVE",
"1262 960 QCURVE SMOOTH",
"1290 960 OFFCURVE",
"1326 918 OFFCURVE",
"1326 888 QCURVE SMOOTH",
"1326 830 OFFCURVE",
"1220 768 OFFCURVE",
"1150 768 QCURVE SMOOTH",
"1120 768 OFFCURVE",
"1028 772 OFFCURVE",
"998 772 QCURVE SMOOTH",
"882 772 OFFCURVE",
"710 626 OFFCURVE",
"710 516 QCURVE SMOOTH",
"710 440 OFFCURVE",
"816 340 OFFCURVE",
"864 340 QCURVE",
"892 348 OFFCURVE",
"930 400 OFFCURVE",
"930 434 QCURVE SMOOTH",
"930 462 OFFCURVE",
"886 494 OFFCURVE",
"836 502 OFFCURVE",
"792 532 OFFCURVE",
"792 560 QCURVE SMOOTH",
"792 610 OFFCURVE"
);
}
);
width = 1288;
}
);
note = ampersand;
unicode = 0026;
},
{
glyphname = quotesingle;
layers = (
{
layerId = "982A60EF-513A-498E-AE80-A9982858EA0F";
paths = (
{
closed = 1;
nodes = (
"98 1306 OFFCURVE",
"92 1272 QCURVE",
"92 1246 OFFCURVE",
"100 1116 OFFCURVE",
"100 974 OFFCURVE",
"92 894 QCURVE SMOOTH",
"90 882 OFFCURVE",
"110 868 OFFCURVE",
"134 868 OFFCURVE",
"160 884 OFFCURVE",
"164 898 QCURVE SMOOTH",
"180 952 OFFCURVE",
"270 1204 OFFCURVE",
"282 1266 QCURVE",
"294 1354 OFFCURVE",
"272 1396 OFFCURVE",
"226 1396 QCURVE SMOOTH",
"178 1396 OFFCURVE"
);
}
);
width = 294;
}
);
note = quotesingle;
unicode = 0027;
},
{
glyphname = parenleft;
layers = (
{
layerId = "982A60EF-513A-498E-AE80-A9982858EA0F";
paths = (
{
closed = 1;
nodes = (
"190 -242 OFFCURVE",
"260 -242 QCURVE SMOOTH",
"270 -242 OFFCURVE",
"296 -208 OFFCURVE",
"296 -196 QCURVE SMOOTH",
"296 -190 OFFCURVE",
"294 -190 QCURVE",
"250 -164 OFFCURVE",
"160 134 OFFCURVE",
"160 328 QCURVE SMOOTH",
"160 566 OFFCURVE",
"324 1076 OFFCURVE",
"530 1404 OFFCURVE",
"610 1442 QCURVE",
"614 1446 OFFCURVE",
"614 1456 QCURVE SMOOTH",
"614 1496 OFFCURVE",
"596 1496 QCURVE SMOOTH",
"540 1496 OFFCURVE",
"354 1300 OFFCURVE",
"174 994 OFFCURVE",
"42 558 OFFCURVE",
"42 348 QCURVE SMOOTH",
"42 108 OFFCURVE"
);
}
);
width = 584;
}
);
note = parenleft;
unicode = 0028;
},
{
glyphname = parenright;
layers = (
{
layerId = "982A60EF-513A-498E-AE80-A9982858EA0F";
paths = (
{
closed = 1;
nodes = (
"400 1496 OFFCURVE",
"322 1496 QCURVE SMOOTH",
"312 1496 OFFCURVE",
"288 1456 OFFCURVE",
"288 1446 QCURVE SMOOTH",
"288 1444 OFFCURVE",
"290 1442 QCURVE",
"346 1410 OFFCURVE",
"420 1140 OFFCURVE",
"420 954 QCURVE SMOOTH",
"420 772 OFFCURVE",
"344 414 OFFCURVE",
"230 152 OFFCURVE",
"102 -60 OFFCURVE",
"0 -176 OFFCURVE",
"-28 -190 QCURVE",
"-34 -192 OFFCURVE",
"-34 -206 QCURVE SMOOTH",
"-34 -242 OFFCURVE",
"-16 -242 QCURVE SMOOTH",
"18 -242 OFFCURVE",
"148 -134 OFFCURVE",
"304 80 OFFCURVE",
"444 350 OFFCURVE",
"538 724 OFFCURVE",
"538 914 QCURVE SMOOTH",
"538 1160 OFFCURVE"
);
}
);
width = 552;
}
);
note = parenright;
unicode = 0029;
},
{
glyphname = asterisk;
layers = (
{
layerId = "982A60EF-513A-498E-AE80-A9982858EA0F";
paths = (
{
closed = 1;
nodes = (
"378 1160 QCURVE SMOOTH",
"378 1196 OFFCURVE",
"374 1246 OFFCURVE",
"362 1300 OFFCURVE",
"334 1328 OFFCURVE",
"312 1328 QCURVE SMOOTH",
"286 1328 OFFCURVE",
"244 1282 OFFCURVE",
"244 1246 QCURVE SMOOTH",
"244 1198 OFFCURVE",
"346 1040 OFFCURVE",
"346 1020 QCURVE SMOOTH",
"346 986 OFFCURVE",
"296 986 QCURVE SMOOTH",
"278 986 OFFCURVE",
"172 1000 OFFCURVE",
"140 1000 QCURVE SMOOTH",
"90 1000 OFFCURVE",
"32 964 OFFCURVE",
"18 930 OFFCURVE",
"18 912 QCURVE SMOOTH",
"18 864 OFFCURVE",
"78 864 QCURVE SMOOTH",
"120 864 OFFCURVE",
"308 946 OFFCURVE",
"324 946 QCURVE SMOOTH",
"342 946 OFFCURVE",
"342 928 QCURVE SMOOTH",
"342 906 OFFCURVE",
"212 696 OFFCURVE",
"212 652 QCURVE SMOOTH",
"212 626 OFFCURVE",
"238 596 OFFCURVE",
"258 596 QCURVE SMOOTH",
"282 596 OFFCURVE",
"328 640 OFFCURVE",
"340 682 QCURVE SMOOTH",
"354 726 OFFCURVE",
"366 860 OFFCURVE",
"380 932 OFFCURVE",
"420 932 OFFCURVE",
"486 848 OFFCURVE",
"566 766 OFFCURVE",
"602 766 QCURVE SMOOTH",
"632 766 OFFCURVE",
"676 810 OFFCURVE",
"676 838 QCURVE SMOOTH",
"676 874 OFFCURVE",
"598 922 OFFCURVE",
"506 938 OFFCURVE",
"428 964 OFFCURVE",
"428 982 QCURVE SMOOTH",
"428 1002 OFFCURVE",
"512 1058 OFFCURVE",
"610 1104 OFFCURVE",
"694 1180 OFFCURVE",
"694 1218 QCURVE SMOOTH",
"694 1266 OFFCURVE",
"648 1266 QCURVE SMOOTH",
"614 1266 OFFCURVE",
"534 1192 OFFCURVE",
"476 1102 OFFCURVE",
"418 1028 OFFCURVE",
"402 1028 QCURVE SMOOTH",
"378 1028 OFFCURVE"
);
}
);
width = 686;
}
);
note = asterisk;
unicode = 002A;
},
{
glyphname = plus;
layers = (
{
layerId = "982A60EF-513A-498E-AE80-A9982858EA0F";
paths = (
{
closed = 1;
nodes = (
"414 622 OFFCURVE",
"402 564 QCURVE",
"402 556 OFFCURVE",
"394 556 QCURVE SMOOTH",
"38 556 LINE",
"-6 500 OFFCURVE",
"-6 462 QCURVE SMOOTH",
"-6 444 OFFCURVE",
"4 444 QCURVE SMOOTH",
"362 444 LINE SMOOTH",
"370 444 OFFCURVE",
"370 434 QCURVE",
"348 322 OFFCURVE",
"298 42 QCURVE",
"296 36 OFFCURVE",
"312 24 OFFCURVE",
"328 24 QCURVE SMOOTH",
"358 24 OFFCURVE",
"426 44 OFFCURVE",
"428 60 QCURVE SMOOTH",
"498 436 LINE",
"498 444 OFFCURVE",
"506 444 QCURVE SMOOTH",
"864 444 LINE",
"906 490 OFFCURVE",
"906 538 QCURVE SMOOTH",
"906 556 OFFCURVE",
"898 556 QCURVE SMOOTH",
"536 556 LINE SMOOTH",
"526 556 OFFCURVE",
"530 566 QCURVE",
"554 690 OFFCURVE",
"600 958 QCURVE SMOOTH",
"602 966 OFFCURVE",
"592 976 OFFCURVE",
"580 976 QCURVE SMOOTH",
"560 976 OFFCURVE",
"472 958 OFFCURVE",
"468 940 QCURVE SMOOTH",
"454 868 OFFCURVE"
);
}
);
width = 914;
}
);
note = plus;
unicode = 002B;
},
{
glyphname = comma;
layers = (
{
layerId = "982A60EF-513A-498E-AE80-A9982858EA0F";
paths = (
{
closed = 1;
nodes = (
"18 -326 OFFCURVE",
"26 -326 QCURVE",
"52 -308 LINE SMOOTH",
"80 -290 OFFCURVE",
"162 -218 OFFCURVE",
"250 -126 OFFCURVE",
"324 4 OFFCURVE",
"340 70 QCURVE SMOOTH",
"362 164 OFFCURVE",
"362 204 QCURVE SMOOTH",
"362 236 OFFCURVE",
"356 250 QCURVE",
"328 258 OFFCURVE",
"312 258 QCURVE SMOOTH",
"254 258 OFFCURVE",
"154 182 OFFCURVE",
"154 132 QCURVE SMOOTH",
"154 122 OFFCURVE",
"180 22 OFFCURVE",
"180 -10 QCURVE SMOOTH",
"180 -70 OFFCURVE",
"84 -198 OFFCURVE",
"-10 -280 OFFCURVE",
"-10 -286 QCURVE SMOOTH",
"-10 -300 OFFCURVE"
);
}
);
width = 418;
}
);
note = comma;
unicode = 002C;
},
{
glyphname = hyphen;
layers = (
{
layerId = "982A60EF-513A-498E-AE80-A9982858EA0F";
paths = (
{
closed = 1;
nodes = (
"38 448 OFFCURVE",
"38 428 QCURVE SMOOTH",
"38 398 OFFCURVE",
"48 398 QCURVE SMOOTH",
"500 420 LINE",
"514 422 OFFCURVE",
"546 500 OFFCURVE",
"546 522 QCURVE SMOOTH",
"546 546 OFFCURVE",
"534 546 QCURVE SMOOTH",
"80 522 LINE",
"66 520 OFFCURVE"
);
}
);
width = 590;
}
);
note = hyphen;
unicode = 002D;
},
{
glyphname = period;
layers = (
{
layerId = "982A60EF-513A-498E-AE80-A9982858EA0F";
paths = (
{
closed = 1;
nodes = (
"292 204 OFFCURVE",
"254 204 QCURVE SMOOTH",
"204 204 OFFCURVE",
"120 120 OFFCURVE",
"120 66 QCURVE SMOOTH",
"120 26 OFFCURVE",
"170 -28 OFFCURVE",
"208 -28 QCURVE SMOOTH",
"258 -28 OFFCURVE",
"340 60 OFFCURVE",
"340 114 QCURVE SMOOTH",
"340 154 OFFCURVE"
);
}
);
width = 338;
}
);
note = period;
unicode = 002E;
},
{
glyphname = slash;
layers = (
{
layerId = "982A60EF-513A-498E-AE80-A9982858EA0F";
paths = (
{
closed = 1;
nodes = (
"908 1522 QCURVE SMOOTH",
"846 1522 OFFCURVE",
"820 1478 QCURVE SMOOTH",
"-30 -56 LINE",
"-20 -66 OFFCURVE",
"6 -66 QCURVE SMOOTH",
"82 -66 OFFCURVE",
"108 -24 QCURVE",
"956 1510 LINE",
"932 1522 OFFCURVE"
);
}
);
width = 926;
}
);
note = slash;
unicode = 002F;
},
{
glyphname = zero;
layers = (
{
layerId = "982A60EF-513A-498E-AE80-A9982858EA0F";
paths = (
{
closed = 1;
nodes = (
"556 1206 OFFCURVE",
"672 1206 QCURVE SMOOTH",
"774 1206 OFFCURVE",
"842 886 OFFCURVE",
"796 650 QCURVE SMOOTH",
"746 402 OFFCURVE",
"550 70 OFFCURVE",
"432 70 QCURVE SMOOTH",
"330 70 OFFCURVE",
"260 404 OFFCURVE",
"310 640 QCURVE SMOOTH",
"356 882 OFFCURVE"
);
},
{
closed = 1;
nodes = (
"148 174 OFFCURVE",
"302 -6 OFFCURVE",
"426 -6 QCURVE SMOOTH",
"548 -6 OFFCURVE",
"770 172 OFFCURVE",
"920 462 OFFCURVE",
"956 638 QCURVE SMOOTH",
"984 768 OFFCURVE",
"970 1002 OFFCURVE",
"906 1178 OFFCURVE",
"770 1282 OFFCURVE",
"676 1282 QCURVE SMOOTH",
"552 1282 OFFCURVE",
"330 1104 OFFCURVE",
"180 814 OFFCURVE",
"146 638 QCURVE SMOOTH",
"114 460 OFFCURVE"
);
}
);
width = 820;
}
);
note = zero;
unicode = 0030;
},
{
glyphname = one;
layers = (
{
layerId = "982A60EF-513A-498E-AE80-A9982858EA0F";
paths = (
{
closed = 1;
nodes = (
"476 1034 OFFCURVE",
"524 1058 OFFCURVE",
"534 1058 QCURVE SMOOTH",
"544 1058 OFFCURVE",
"552 1044 OFFCURVE",
"546 984 OFFCURVE",
"534 926 QCURVE SMOOTH",
"394 206 LINE SMOOTH",
"378 126 OFFCURVE",
"362 92 QCURVE SMOOTH",
"356 78 OFFCURVE",
"250 52 OFFCURVE",
"224 52 QCURVE SMOOTH",
"218 52 OFFCURVE",
"206 2 OFFCURVE",
"212 -6 QCURVE",
"402 4 OFFCURVE",
"430 4 QCURVE SMOOTH",
"468 4 OFFCURVE",
"652 -6 QCURVE",
"656 0 OFFCURVE",
"658 16 QCURVE SMOOTH",
"664 52 OFFCURVE",
"658 52 QCURVE SMOOTH",
"640 52 OFFCURVE",
"544 78 OFFCURVE",
"542 92 QCURVE",
"540 148 OFFCURVE",
"562 270 QCURVE SMOOTH",
"714 1058 LINE SMOOTH",
"738 1180 OFFCURVE",
"770 1246 QCURVE",
"770 1284 OFFCURVE",
"754 1284 QCURVE SMOOTH",
"750 1284 LINE SMOOTH",
"744 1284 OFFCURVE",
"384 1054 QCURVE",
"378 1048 OFFCURVE",
"378 1042 QCURVE SMOOTH",
"378 1032 OFFCURVE",
"392 998 OFFCURVE",
"402 992 QCURVE",
"414 998 OFFCURVE"
);
}
);
width = 820;
}
);
note = one;
unicode = 0031;
},
{
glyphname = two;
layers = (
{
layerId = "982A60EF-513A-498E-AE80-A9982858EA0F";
paths = (
{
closed = 1;
nodes = (
"802 320 QCURVE SMOOTH",
"784 320 OFFCURVE",
"772 300 QCURVE SMOOTH",
"768 294 OFFCURVE",
"740 236 OFFCURVE",
"734 224 OFFCURVE",
"708 182 OFFCURVE",
"690 172 OFFCURVE",
"658 150 OFFCURVE",
"622 144 OFFCURVE",
"600 144 QCURVE SMOOTH",
"258 144 LINE SMOOTH",
"244 144 OFFCURVE",
"258 158 QCURVE",
"318 210 OFFCURVE",
"372 258 OFFCURVE",
"518 394 OFFCURVE",
"604 486 OFFCURVE",
"732 634 OFFCURVE",
"810 752 OFFCURVE",
"880 894 OFFCURVE",
"892 958 QCURVE SMOOTH",
"908 1038 OFFCURVE",
"878 1182 OFFCURVE",
"772 1284 OFFCURVE",
"688 1284 QCURVE SMOOTH",
"610 1284 OFFCURVE",
"456 1214 OFFCURVE",
"354 1116 OFFCURVE",
"288 1034 OFFCURVE",
"278 1010 QCURVE SMOOTH",
"276 1004 OFFCURVE",
"296 978 OFFCURVE",
"306 978 QCURVE",
"430 1144 OFFCURVE",
"586 1144 QCURVE SMOOTH",
"668 1144 OFFCURVE",
"744 1026 OFFCURVE",
"724 918 QCURVE SMOOTH",
"692 754 OFFCURVE",
"314 288 OFFCURVE",
"68 66 QCURVE",
"62 30 OFFCURVE",
"74 0 QCURVE",
"684 0 LINE SMOOTH",
"716 0 OFFCURVE",
"728 32 QCURVE SMOOTH",
"748 92 OFFCURVE",
"822 282 OFFCURVE",
"834 312 QCURVE",
"830 320 OFFCURVE"
);
}
);
width = 820;
}
);
note = two;
unicode = 0032;
},
{
glyphname = three;
layers = (
{
layerId = "982A60EF-513A-498E-AE80-A9982858EA0F";
paths = (
{
closed = 1;
nodes = (
"430 1196 OFFCURVE",
"364 1116 QCURVE",
"362 1102 OFFCURVE",
"368 1064 OFFCURVE",
"376 1064 QCURVE",
"380 1066 OFFCURVE",
"420 1104 OFFCURVE",
"460 1136 OFFCURVE",
"536 1166 OFFCURVE",
"576 1166 QCURVE SMOOTH",
"640 1166 OFFCURVE",
"718 1060 OFFCURVE",
"704 992 QCURVE SMOOTH",
"680 868 OFFCURVE",
"500 724 OFFCURVE",
"366 700 QCURVE",
"362 692 OFFCURVE",
"358 680 QCURVE SMOOTH",
"350 648 OFFCURVE",
"362 628 QCURVE",
"418 642 OFFCURVE",
"486 642 QCURVE SMOOTH",
"580 642 OFFCURVE",
"690 478 OFFCURVE",
"666 360 QCURVE SMOOTH",
"650 280 OFFCURVE",
"586 162 OFFCURVE",
"508 100 OFFCURVE",
"432 70 OFFCURVE",
"396 70 QCURVE SMOOTH",
"310 70 OFFCURVE",
"264 112 QCURVE SMOOTH",
"252 124 OFFCURVE",
"218 172 OFFCURVE",
"190 202 OFFCURVE",
"172 202 QCURVE SMOOTH",
"140 202 OFFCURVE",
"94 152 OFFCURVE",
"84 108 QCURVE SMOOTH",
"82 96 OFFCURVE",
"86 56 OFFCURVE",
"92 50 QCURVE SMOOTH",
"164 -10 OFFCURVE",
"322 -10 QCURVE SMOOTH",
"508 -10 OFFCURVE",
"800 222 OFFCURVE",
"836 412 QCURVE SMOOTH",
"850 482 OFFCURVE",
"822 604 OFFCURVE",
"756 688 OFFCURVE",
"684 742 OFFCURVE",
"644 758 QCURVE",
"730 818 OFFCURVE",
"832 940 OFFCURVE",
"850 1028 QCURVE SMOOTH",
"872 1142 OFFCURVE",
"754 1284 OFFCURVE",
"674 1284 QCURVE SMOOTH",
"574 1284 OFFCURVE"
);
}
);
width = 820;
}
);
note = three;
unicode = 0033;
},
{
glyphname = four;
layers = (
{
layerId = "982A60EF-513A-498E-AE80-A9982858EA0F";
paths = (
{
closed = 1;
nodes = (
"512 4 LINE",
"512 -6 OFFCURVE",
"542 -12 OFFCURVE",
"578 -12 QCURVE SMOOTH",
"650 -12 OFFCURVE",
"658 -2 QCURVE",
"726 348 LINE",
"862 348 OFFCURVE",
"862 348 QCURVE",
"882 384 OFFCURVE",
"894 450 QCURVE",
"900 464 OFFCURVE",
"882 464 QCURVE SMOOTH",
"748 464 LINE",
"906 1270 LINE",
"912 1290 OFFCURVE",
"886 1290 QCURVE SMOOTH",
"860 1290 OFFCURVE",
"838 1266 QCURVE SMOOTH",
"108 410 LINE",
"100 364 OFFCURVE",
"108 348 QCURVE",
"580 348 LINE"
);
},
{
closed = 1;
nodes = (
"264 464 LINE SMOOTH",
"250 464 OFFCURVE",
"254 482 QCURVE",
"254 486 OFFCURVE",
"256 488 QCURVE SMOOTH",
"696 1010 LINE",
"700 1014 LINE",
"704 1014 OFFCURVE",
"708 1000 OFFCURVE",
"706 996 QCURVE",
"602 464 LINE"
);
}
);
width = 820;
}
);
note = four;
unicode = 0034;
},
{
glyphname = five;
layers = (
{
layerId = "982A60EF-513A-498E-AE80-A9982858EA0F";
paths = (
{
closed = 1;
nodes = (
"268 112 QCURVE SMOOTH",
"256 124 OFFCURVE",
"222 172 OFFCURVE",
"192 202 OFFCURVE",
"176 202 QCURVE SMOOTH",
"142 202 OFFCURVE",
"96 152 OFFCURVE",
"88 108 QCURVE",
"84 96 OFFCURVE",
"88 56 OFFCURVE",
"96 50 QCURVE SMOOTH",
"168 -10 OFFCURVE",
"334 -10 QCURVE SMOOTH",
"516 -10 OFFCURVE",
"802 228 OFFCURVE",
"838 412 QCURVE SMOOTH",
"866 562 OFFCURVE",
"694 782 OFFCURVE",
"544 782 QCURVE SMOOTH",
"428 782 OFFCURVE",
"364 756 QCURVE",
"464 1036 OFFCURVE",
"480 1076 QCURVE SMOOTH",
"486 1090 OFFCURVE",
"496 1092 QCURVE",
"496 1092 OFFCURVE",
"822 1106 OFFCURVE",
"874 1122 QCURVE",
"896 1178 OFFCURVE",
"906 1232 QCURVE SMOOTH",
"910 1260 OFFCURVE",
"904 1274 QCURVE",
"830 1258 OFFCURVE",
"462 1246 QCURVE",
"258 652 LINE",
"274 632 OFFCURVE",
"286 624 QCURVE",
"356 646 OFFCURVE",
"452 646 QCURVE SMOOTH",
"528 646 OFFCURVE",
"632 592 OFFCURVE",
"668 508 OFFCURVE",
"680 406 OFFCURVE",
"668 360 QCURVE",
"638 212 OFFCURVE",
"486 70 OFFCURVE",
"408 70 QCURVE SMOOTH",
"314 70 OFFCURVE"
);
}
);
width = 820;
}
);
note = five;
unicode = 0035;
},
{
glyphname = six;
layers = (
{
layerId = "982A60EF-513A-498E-AE80-A9982858EA0F";
paths = (
{
closed = 1;
nodes = (
"388 690 OFFCURVE",
"388 656 QCURVE SMOOTH",
"388 636 OFFCURVE",
"400 628 QCURVE",
"402 628 OFFCURVE",
"434 642 OFFCURVE",
"454 650 OFFCURVE",
"490 658 OFFCURVE",
"506 658 QCURVE SMOOTH",
"604 658 OFFCURVE",
"698 534 OFFCURVE",
"698 434 QCURVE SMOOTH",
"698 278 OFFCURVE",
"526 66 OFFCURVE",
"436 66 QCURVE SMOOTH",
"354 66 OFFCURVE",
"274 204 OFFCURVE",
"274 304 QCURVE SMOOTH",
"274 492 OFFCURVE",
"362 700 QCURVE SMOOTH",
"446 896 OFFCURVE",
"726 1142 OFFCURVE",
"920 1224 QCURVE",
"920 1274 OFFCURVE",
"904 1274 QCURVE",
"728 1196 OFFCURVE",
"448 1000 OFFCURVE",
"274 804 OFFCURVE",
"160 592 OFFCURVE",
"114 410 OFFCURVE",
"114 324 QCURVE SMOOTH",
"114 160 OFFCURVE",
"272 -12 OFFCURVE",
"408 -12 QCURVE SMOOTH",
"514 -12 OFFCURVE",
"726 122 OFFCURVE",
"858 340 OFFCURVE",
"858 452 QCURVE SMOOTH",
"858 576 OFFCURVE",
"694 744 OFFCURVE",
"566 744 QCURVE SMOOTH",
"524 744 OFFCURVE"
);
}
);
width = 820;
}
);
note = six;
unicode = 0036;
},
{
glyphname = seven;
layers = (
{
layerId = "982A60EF-513A-498E-AE80-A9982858EA0F";
paths = (
{
closed = 1;
nodes = (
"248 -6 QCURVE",
"956 1120 LINE SMOOTH",
"966 1134 OFFCURVE",
"1000 1186 OFFCURVE",
"1018 1212 OFFCURVE",
"1034 1244 OFFCURVE",
"1036 1254 QCURVE SMOOTH",
"1040 1272 OFFCURVE",
"1028 1272 QCURVE SMOOTH",
"1026 1272 OFFCURVE",
"930 1266 OFFCURVE",
"902 1266 QCURVE SMOOTH",
"364 1266 LINE SMOOTH",
"340 1266 OFFCURVE",
"330 1242 QCURVE SMOOTH",
"312 1190 OFFCURVE",
"222 964 OFFCURVE",
"214 942 QCURVE",
"226 936 OFFCURVE",
"274 940 OFFCURVE",
"278 948 QCURVE SMOOTH",
"300 994 OFFCURVE",
"336 1050 OFFCURVE",
"396 1106 OFFCURVE",
"426 1106 QCURVE SMOOTH",
"874 1106 LINE",
"174 44 LINE",
"172 30 OFFCURVE",
"208 -12 OFFCURVE",
"228 -12 QCURVE SMOOTH",
"242 -12 OFFCURVE"
);
}
);
width = 820;
}
);
note = seven;
unicode = 0037;
},
{
glyphname = eight;
layers = (
{
layerId = "982A60EF-513A-498E-AE80-A9982858EA0F";
paths = (
{
closed = 1;
nodes = (
"352 1088 OFFCURVE",
"326 960 QCURVE SMOOTH",
"306 860 OFFCURVE",
"392 694 OFFCURVE",
"456 648 QCURVE",
"464 644 OFFCURVE",
"452 636 QCURVE SMOOTH",
"446 632 OFFCURVE",
"434 626 QCURVE SMOOTH",
"384 596 OFFCURVE",
"322 552 OFFCURVE",
"222 468 OFFCURVE",
"158 366 OFFCURVE",
"148 308 QCURVE SMOOTH",
"118 162 OFFCURVE",
"276 -18 OFFCURVE",
"430 -18 QCURVE SMOOTH",
"572 -18 OFFCURVE",
"826 186 OFFCURVE",
"854 334 QCURVE SMOOTH",
"872 432 OFFCURVE",
"762 616 OFFCURVE",
"676 676 QCURVE",
"666 686 OFFCURVE",
"678 688 QCURVE",
"914 832 OFFCURVE",
"944 982 QCURVE SMOOTH",
"970 1120 OFFCURVE",
"826 1286 OFFCURVE",
"698 1286 QCURVE SMOOTH",
"576 1286 OFFCURVE"
);
},
{
closed = 1;
nodes = (
"826 1066 OFFCURVE",
"808 972 QCURVE SMOOTH",
"776 818 OFFCURVE",
"634 728 QCURVE SMOOTH",
"628 724 OFFCURVE",
"622 724 QCURVE SMOOTH",
"620 724 OFFCURVE",
"612 728 QCURVE",
"442 848 OFFCURVE",
"468 984 QCURVE SMOOTH",
"488 1088 OFFCURVE",
"604 1216 OFFCURVE",
"674 1216 QCURVE SMOOTH",
"754 1216 OFFCURVE"
);
},
{
closed = 1;
nodes = (
"272 198 OFFCURVE",
"296 314 QCURVE SMOOTH",
"314 410 OFFCURVE",
"408 538 OFFCURVE",
"496 592 QCURVE",
"498 594 OFFCURVE",
"504 594 QCURVE SMOOTH",
"506 594 OFFCURVE",
"514 590 QCURVE",
"532 578 OFFCURVE",
"558 556 OFFCURVE",
"628 486 OFFCURVE",
"672 420 OFFCURVE",
"700 322 OFFCURVE",
"692 276 QCURVE SMOOTH",
"672 174 OFFCURVE",
"540 54 OFFCURVE",
"448 54 QCURVE SMOOTH",
"368 54 OFFCURVE"
);
}
);
width = 820;
}
);
note = eight;
unicode = 0038;
},
{
glyphname = nine;
layers = (
{
layerId = "982A60EF-513A-498E-AE80-A9982858EA0F";
paths = (
{
closed = 1;
nodes = (
"666 564 OFFCURVE",
"666 598 QCURVE SMOOTH",
"666 616 OFFCURVE",
"654 626 QCURVE",
"652 624 OFFCURVE",
"636 618 OFFCURVE",
"628 616 OFFCURVE",
"610 612 OFFCURVE",
"580 610 OFFCURVE",
"560 610 QCURVE SMOOTH",
"370 610 OFFCURVE",
"370 822 QCURVE SMOOTH",
"370 978 OFFCURVE",
"530 1188 OFFCURVE",
"618 1188 QCURVE SMOOTH",
"700 1188 OFFCURVE",
"776 1052 OFFCURVE",
"776 950 QCURVE SMOOTH",
"776 742 OFFCURVE",
"696 554 QCURVE SMOOTH",
"614 358 OFFCURVE",
"330 112 OFFCURVE",
"134 30 QCURVE",
"138 -4 OFFCURVE",
"168 -12 QCURVE",
"348 60 OFFCURVE",
"628 254 OFFCURVE",
"794 446 OFFCURVE",
"902 662 OFFCURVE",
"940 842 OFFCURVE",
"940 930 QCURVE SMOOTH",
"940 1094 OFFCURVE",
"782 1266 OFFCURVE",
"646 1266 QCURVE SMOOTH",
"482 1266 OFFCURVE",
"208 978 OFFCURVE",
"208 804 QCURVE SMOOTH",
"208 680 OFFCURVE",
"364 520 OFFCURVE",
"490 520 QCURVE SMOOTH",
"536 520 OFFCURVE"
);
}
);
width = 820;
}
);
note = nine;
unicode = 0039;
},
{
glyphname = colon;
layers = (
{
layerId = "982A60EF-513A-498E-AE80-A9982858EA0F";
paths = (
{
closed = 1;
nodes = (
"300 636 OFFCURVE",
"340 636 QCURVE SMOOTH",
"392 636 OFFCURVE",
"476 726 OFFCURVE",
"476 782 QCURVE SMOOTH",
"476 822 OFFCURVE",
"426 876 OFFCURVE",
"386 876 QCURVE SMOOTH",
"334 876 OFFCURVE",
"248 790 OFFCURVE",
"248 734 QCURVE SMOOTH",
"248 692 OFFCURVE"
);
},
{
closed = 1;
nodes = (
"170 -28 OFFCURVE",
"210 -28 QCURVE SMOOTH",
"262 -28 OFFCURVE",
"346 60 OFFCURVE",
"346 116 QCURVE SMOOTH",
"346 158 OFFCURVE",
"296 212 OFFCURVE",
"256 212 QCURVE SMOOTH",
"204 212 OFFCURVE",
"120 124 OFFCURVE",
"120 68 QCURVE SMOOTH",
"120 26 OFFCURVE"
);
}
);
width = 360;
}
);
note = colon;
unicode = 003A;
},
{
glyphname = semicolon;
layers = (
{
layerId = "982A60EF-513A-498E-AE80-A9982858EA0F";
paths = (
{
closed = 1;
nodes = (
"302 636 OFFCURVE",
"342 636 QCURVE SMOOTH",
"394 636 OFFCURVE",
"478 726 OFFCURVE",
"478 782 QCURVE SMOOTH",
"478 822 OFFCURVE",
"428 876 OFFCURVE",
"388 876 QCURVE SMOOTH",
"336 876 OFFCURVE",
"250 790 OFFCURVE",
"250 734 QCURVE SMOOTH",
"250 692 OFFCURVE"
);
},
{
closed = 1;
nodes = (
"154 -28 QCURVE SMOOTH",
"140 -96 OFFCURVE",
"76 -196 OFFCURVE",
"16 -238 OFFCURVE",
"-30 -274 OFFCURVE",
"-30 -286 QCURVE SMOOTH",
"-30 -334 OFFCURVE",
"-2 -334 QCURVE SMOOTH",
"4 -334 OFFCURVE",
"12 -330 QCURVE",
"164 -216 OFFCURVE",
"294 -56 OFFCURVE",
"318 68 QCURVE SMOOTH",
"334 154 OFFCURVE",
"334 180 QCURVE SMOOTH",
"334 248 OFFCURVE",
"288 248 QCURVE SMOOTH",
"234 248 OFFCURVE",
"136 164 OFFCURVE",
"136 124 QCURVE SMOOTH",
"136 118 OFFCURVE",
"158 62 OFFCURVE",
"158 22 QCURVE SMOOTH",
"158 -4 OFFCURVE"
);
}
);
width = 478;
}
);
note = semicolon;
unicode = 003B;
},
{
glyphname = less;
layers = (
{
layerId = "982A60EF-513A-498E-AE80-A9982858EA0F";
paths = (
{
closed = 1;
nodes = (
"828 752 OFFCURVE",
"828 788 QCURVE SMOOTH",
"828 858 OFFCURVE",
"814 858 QCURVE SMOOTH",
"810 858 OFFCURVE",
"806 856 QCURVE SMOOTH",
"44 482 LINE SMOOTH",
"-2 458 OFFCURVE",
"-2 406 QCURVE SMOOTH",
"-2 368 OFFCURVE",
"18 354 QCURVE",
"642 -26 LINE SMOOTH",
"646 -28 OFFCURVE",
"650 -28 QCURVE SMOOTH",
"658 -28 OFFCURVE",
"700 54 OFFCURVE",
"700 72 QCURVE SMOOTH",
"700 80 OFFCURVE",
"696 82 QCURVE SMOOTH",
"148 418 LINE",
"818 748 LINE SMOOTH"
);
}
);
width = 812;
}
);
note = less;
unicode = 003C;
},
{
glyphname = equal;
layers = (
{
layerId = "982A60EF-513A-498E-AE80-A9982858EA0F";
paths = (
{
closed = 1;
nodes = (
"884 246 LINE",
"920 332 OFFCURVE",
"920 336 QCURVE SMOOTH",
"920 346 OFFCURVE",
"908 346 QCURVE SMOOTH",
"76 346 LINE SMOOTH",
"64 346 OFFCURVE",
"30 256 OFFCURVE",
"30 246 QCURVE SMOOTH",
"30 234 OFFCURVE",
"40 234 QCURVE SMOOTH",
"870 234 LINE"
);
},
{
closed = 1;
nodes = (
"928 518 LINE SMOOTH",
"930 518 OFFCURVE",
"938 524 OFFCURVE",
"940 530 QCURVE SMOOTH",
"974 610 OFFCURVE",
"974 630 OFFCURVE",
"962 630 QCURVE SMOOTH",
"132 630 LINE SMOOTH",
"120 630 OFFCURVE",
"88 538 OFFCURVE",
"88 530 QCURVE SMOOTH",
"88 518 OFFCURVE",
"96 518 QCURVE SMOOTH",
"924 518 LINE"
);
}
);
width = 1006;
}
);
note = equal;
unicode = 003D;
},
{
glyphname = greater;
layers = (
{
layerId = "982A60EF-513A-498E-AE80-A9982858EA0F";
paths = (
{
closed = 1;
nodes = (
"-18 66 OFFCURVE",
"-18 66 QCURVE",
"-18 -30 OFFCURVE",
"-6 -30 QCURVE SMOOTH",
"-2 -30 OFFCURVE",
"6 -26 QCURVE SMOOTH",
"776 354 LINE SMOOTH",
"824 378 OFFCURVE",
"824 442 QCURVE SMOOTH",
"824 468 OFFCURVE",
"800 482 QCURVE SMOOTH",
"186 856 LINE",
"178 860 LINE",
"170 860 OFFCURVE",
"126 768 OFFCURVE",
"126 756 QCURVE SMOOTH",
"126 750 OFFCURVE",
"130 748 QCURVE SMOOTH",
"674 418 LINE",
"-8 82 LINE"
);
}
);
width = 838;
}
);
note = greater;
unicode = 003E;
},
{
glyphname = question;
layers = (
{
layerId = "982A60EF-513A-498E-AE80-A9982858EA0F";
paths = (
{
closed = 1;
nodes = (
"174 -28 OFFCURVE",
"212 -28 QCURVE SMOOTH",
"262 -28 OFFCURVE",
"348 58 OFFCURVE",
"348 112 QCURVE SMOOTH",
"348 152 OFFCURVE",
"296 204 OFFCURVE",
"258 204 QCURVE SMOOTH",
"208 204 OFFCURVE",
"128 120 OFFCURVE",
"128 64 QCURVE SMOOTH",
"128 24 OFFCURVE"
);
},
{
closed = 1;
nodes = (
"320 484 OFFCURVE",
"320 522 QCURVE SMOOTH",
"320 598 OFFCURVE",
"386 642 QCURVE SMOOTH",
"430 672 OFFCURVE",
"550 750 OFFCURVE",
"600 782 OFFCURVE",
"664 838 OFFCURVE",
"686 886 OFFCURVE",
"704 956 OFFCURVE",
"704 1004 QCURVE SMOOTH",
"704 1102 OFFCURVE",
"534 1262 OFFCURVE",
"414 1262 QCURVE SMOOTH",
"364 1262 OFFCURVE",
"276 1192 OFFCURVE",
"266 1164 QCURVE",
"266 1060 OFFCURVE",
"334 1060 QCURVE SMOOTH",
"370 1060 OFFCURVE",
"444 1154 OFFCURVE",
"490 1154 QCURVE SMOOTH",
"540 1154 OFFCURVE",
"598 1092 OFFCURVE",
"598 1034 QCURVE SMOOTH",
"598 958 OFFCURVE",
"504 892 QCURVE SMOOTH",
"266 724 LINE SMOOTH",
"182 666 OFFCURVE",
"182 558 QCURVE SMOOTH",
"182 484 OFFCURVE",
"330 362 OFFCURVE",
"378 362 QCURVE",
"398 374 OFFCURVE",
"398 394 QCURVE",
"372 412 OFFCURVE"
);
}
);
width = 588;
}
);
note = question;
unicode = 003F;
},
{
glyphname = at;
layers = (
{
layerId = "982A60EF-513A-498E-AE80-A9982858EA0F";
paths = (
{
closed = 1;
nodes = (
"822 -272 OFFCURVE",
"826 -244 QCURVE",
"826 -226 LINE",
"756 -252 OFFCURVE",
"692 -252 QCURVE SMOOTH",
"556 -252 OFFCURVE",
"346 -182 OFFCURVE",
"218 -58 OFFCURVE",
"144 118 OFFCURVE",
"140 326 OFFCURVE",
"160 446 QCURVE SMOOTH",
"194 618 OFFCURVE",
"420 900 OFFCURVE",
"736 1056 OFFCURVE",
"904 1056 QCURVE SMOOTH",
"1058 1056 OFFCURVE",
"1270 880 OFFCURVE",
"1344 596 OFFCURVE",
"1310 428 QCURVE SMOOTH",
"1302 380 OFFCURVE",
"1258 266 OFFCURVE",
"1186 138 OFFCURVE",
"1072 54 OFFCURVE",
"1006 54 QCURVE SMOOTH",
"896 54 OFFCURVE",
"956 250 QCURVE SMOOTH",
"1086 696 LINE SMOOTH",
"1090 708 OFFCURVE",
"1122 802 QCURVE",
"960 820 LINE",
"840 820 OFFCURVE",
"624 728 OFFCURVE",
"468 574 OFFCURVE",
"364 384 OFFCURVE",
"344 282 QCURVE",
"334 210 OFFCURVE",
"344 80 OFFCURVE",
"422 -14 OFFCURVE",
"488 -14 QCURVE SMOOTH",
"552 -14 OFFCURVE",
"756 126 OFFCURVE",
"796 180 QCURVE SMOOTH",
"798 182 OFFCURVE",
"806 186 OFFCURVE",
"806 184 QCURVE",
"792 114 OFFCURVE",
"884 -26 OFFCURVE",
"974 -26 QCURVE SMOOTH",
"1034 -26 OFFCURVE",
"1154 22 OFFCURVE",
"1278 126 OFFCURVE",
"1382 328 OFFCURVE",
"1408 466 QCURVE SMOOTH",
"1424 562 OFFCURVE",
"1414 756 OFFCURVE",
"1340 934 OFFCURVE",
"1228 1072 OFFCURVE",
"1050 1154 OFFCURVE",
"942 1154 QCURVE SMOOTH",
"732 1154 OFFCURVE",
"358 972 OFFCURVE",
"84 610 OFFCURVE",
"38 370 QCURVE",
"18 284 OFFCURVE",
"38 110 OFFCURVE",
"92 -50 OFFCURVE",
"202 -188 OFFCURVE",
"344 -288 OFFCURVE",
"542 -340 OFFCURVE",
"656 -336 QCURVE",
"730 -326 OFFCURVE"
);
},
{
closed = 1;
nodes = (
"636 106 OFFCURVE",
"564 106 QCURVE SMOOTH",
"522 106 OFFCURVE",
"470 192 OFFCURVE",
"488 286 QCURVE SMOOTH",
"534 526 OFFCURVE",
"796 752 OFFCURVE",
"930 704 QCURVE SMOOTH",
"936 702 OFFCURVE",
"942 694 OFFCURVE",
"942 678 OFFCURVE",
"940 668 OFFCURVE",
"932 646 OFFCURVE",
"932 644 QCURVE",
"846 340 LINE SMOOTH",
"832 292 OFFCURVE"
);
}
);
width = 1446;
}
);
note = at;
unicode = 0040;
},
{
glyphname = A;
layers = (
{
layerId = "982A60EF-513A-498E-AE80-A9982858EA0F";
paths = (
{
closed = 1;
nodes = (
"908 182 QCURVE SMOOTH",
"908 118 OFFCURVE",
"894 88 QCURVE",
"884 72 OFFCURVE",
"812 48 OFFCURVE",
"792 48 QCURVE SMOOTH",
"778 48 OFFCURVE",
"778 6 QCURVE SMOOTH",
"778 -4 OFFCURVE",
"780 -6 QCURVE",
"810 -4 OFFCURVE",
"890 0 OFFCURVE",
"956 4 OFFCURVE",
"994 4 QCURVE SMOOTH",
"1016 4 OFFCURVE",
"1202 -6 QCURVE",
"1212 14 OFFCURVE",
"1212 38 QCURVE SMOOTH",
"1212 48 OFFCURVE",
"1208 48 QCURVE SMOOTH",
"1188 48 OFFCURVE",
"1098 90 OFFCURVE",
"1092 120 QCURVE SMOOTH",
"1088 138 OFFCURVE",
"1068 264 QCURVE SMOOTH",
"902 1320 LINE",
"894 1324 OFFCURVE",
"886 1324 QCURVE SMOOTH",
"838 1324 OFFCURVE",
"808 1270 QCURVE SMOOTH",
"256 278 LINE SMOOTH",
"178 138 OFFCURVE",
"134 90 QCURVE SMOOTH",
"118 72 OFFCURVE",
"40 48 OFFCURVE",
"18 48 QCURVE SMOOTH",
"4 48 OFFCURVE",
"4 10 QCURVE SMOOTH",
"4 -2 OFFCURVE",
"8 -6 QCURVE",
"40 -4 OFFCURVE",
"108 0 OFFCURVE",
"166 4 OFFCURVE",
"204 4 QCURVE SMOOTH",
"208 4 OFFCURVE",
"394 -6 QCURVE",
"404 14 OFFCURVE",
"404 36 QCURVE SMOOTH",
"404 48 OFFCURVE",
"400 48 QCURVE SMOOTH",
"392 48 OFFCURVE",
"346 56 OFFCURVE",
"290 88 OFFCURVE",
"290 110 QCURVE SMOOTH",
"290 140 OFFCURVE",
"382 328 OFFCURVE",
"478 488 OFFCURVE",
"484 488 QCURVE SMOOTH",
"628 498 OFFCURVE",
"670 498 QCURVE SMOOTH",
"708 498 OFFCURVE",
"766 498 OFFCURVE",
"808 496 OFFCURVE",
"838 494 OFFCURVE",
"856 492 OFFCURVE",
"866 490 OFFCURVE",
"872 484 OFFCURVE",
"872 482 OFFCURVE",
"872 478 QCURVE",
"908 216 OFFCURVE"
);
},
{
closed = 1;
nodes = (
"544 598 QCURVE SMOOTH",
"542 598 OFFCURVE",
"542 606 OFFCURVE",
"788 1052 QCURVE",
"794 1010 OFFCURVE",
"828 786 OFFCURVE",
"854 618 OFFCURVE",
"854 608 QCURVE SMOOTH",
"854 600 OFFCURVE",
"846 600 QCURVE SMOOTH",
"788 596 OFFCURVE",
"696 596 QCURVE SMOOTH",
"590 596 OFFCURVE"
);
}
);
width = 1212;
}
);
note = A;
unicode = 0041;
},
{
glyphname = B;
layers = (
{
layerId = "982A60EF-513A-498E-AE80-A9982858EA0F";
paths = (
{
closed = 1;
nodes = (
"780 146 OFFCURVE",
"698 108 QCURVE SMOOTH",
"644 82 OFFCURVE",
"504 82 QCURVE SMOOTH",
"440 82 OFFCURVE",
"384 100 OFFCURVE",
"384 172 OFFCURVE",
"394 232 QCURVE SMOOTH",
"470 632 LINE SMOOTH",
"476 662 OFFCURVE",
"618 662 QCURVE SMOOTH",
"764 662 OFFCURVE",
"896 528 OFFCURVE",
"896 422 QCURVE SMOOTH",
"896 314 OFFCURVE"
);
},
{
closed = 1;
nodes = (
"924 712 OFFCURVE",
"864 722 QCURVE",
"876 728 LINE SMOOTH",
"890 734 OFFCURVE",
"936 760 OFFCURVE",
"988 798 OFFCURVE",
"1044 854 OFFCURVE",
"1088 918 OFFCURVE",
"1116 1008 OFFCURVE",
"1116 1056 QCURVE SMOOTH",
"1116 1126 OFFCURVE",
"1052 1232 OFFCURVE",
"950 1288 OFFCURVE",
"840 1314 OFFCURVE",
"784 1314 QCURVE SMOOTH",
"736 1314 OFFCURVE",
"616 1312 OFFCURVE",
"522 1312 QCURVE SMOOTH",
"400 1312 OFFCURVE",
"308 1316 QCURVE",
"294 1302 OFFCURVE",
"294 1270 QCURVE SMOOTH",
"294 1262 OFFCURVE",
"298 1262 QCURVE SMOOTH",
"320 1262 OFFCURVE",
"410 1228 OFFCURVE",
"410 1214 QCURVE SMOOTH",
"410 1142 OFFCURVE",
"388 1028 QCURVE SMOOTH",
"244 284 LINE SMOOTH",
"220 156 OFFCURVE",
"192 98 QCURVE SMOOTH",
"184 80 OFFCURVE",
"86 52 OFFCURVE",
"62 52 QCURVE SMOOTH",
"48 52 OFFCURVE",
"48 12 QCURVE SMOOTH",
"48 -4 OFFCURVE",
"50 -6 QCURVE",
"270 0 LINE",
"524 0 LINE SMOOTH",
"778 0 OFFCURVE",
"1076 266 OFFCURVE",
"1076 430 QCURVE SMOOTH",
"1076 544 OFFCURVE"
);
},
{
closed = 1;
nodes = (
"886 814 OFFCURVE",
"774 762 OFFCURVE",
"682 746 OFFCURVE",
"618 746 QCURVE SMOOTH",
"592 746 OFFCURVE",
"552 748 OFFCURVE",
"516 754 OFFCURVE",
"498 764 OFFCURVE",
"500 772 QCURVE SMOOTH",
"590 1206 LINE",
"594 1232 OFFCURVE",
"740 1232 QCURVE SMOOTH",
"946 1232 OFFCURVE",
"946 1032 QCURVE SMOOTH",
"946 938 OFFCURVE"
);
}
);
width = 1056;
}
);
note = B;
unicode = 0042;
},
{
glyphname = C;
layers = (
{
layerId = "982A60EF-513A-498E-AE80-A9982858EA0F";
paths = (
{
closed = 1;
nodes = (
"434 1184 OFFCURVE",
"238 950 OFFCURVE",
"120 666 OFFCURVE",
"120 534 QCURVE SMOOTH",
"120 314 OFFCURVE",
"404 -12 OFFCURVE",
"642 -12 QCURVE SMOOTH",
"770 -12 OFFCURVE",
"1022 40 OFFCURVE",
"1052 74 QCURVE SMOOTH",
"1062 84 OFFCURVE",
"1152 256 QCURVE",
"1154 264 OFFCURVE",
"1118 306 OFFCURVE",
"1112 306 QCURVE SMOOTH",
"1110 306 OFFCURVE",
"1076 254 OFFCURVE",
"1002 170 OFFCURVE",
"952 140 QCURVE SMOOTH",
"848 74 OFFCURVE",
"700 74 QCURVE SMOOTH",
"510 74 OFFCURVE",
"302 326 OFFCURVE",
"302 518 QCURVE SMOOTH",
"302 810 OFFCURVE",
"658 1250 OFFCURVE",
"864 1250 QCURVE SMOOTH",
"956 1250 OFFCURVE",
"1088 1202 OFFCURVE",
"1150 1142 OFFCURVE",
"1186 1050 OFFCURVE",
"1190 1002 OFFCURVE",
"1190 972 QCURVE",
"1196 966 OFFCURVE",
"1212 966 QCURVE SMOOTH",
"1254 966 OFFCURVE",
"1260 996 QCURVE SMOOTH",
"1264 1016 OFFCURVE",
"1300 1244 QCURVE",
"1010 1334 OFFCURVE",
"874 1334 QCURVE SMOOTH",
"720 1334 OFFCURVE"
);
}
);
width = 1160;
}
);
note = C;
unicode = 0043;
},
{
glyphname = D;
layers = (
{
layerId = "982A60EF-513A-498E-AE80-A9982858EA0F";
paths = (
{
closed = 1;
nodes = (
"592 1312 OFFCURVE",
"522 1312 QCURVE SMOOTH",
"400 1312 OFFCURVE",
"308 1316 QCURVE",
"294 1302 OFFCURVE",
"294 1270 QCURVE SMOOTH",
"294 1262 OFFCURVE",
"298 1262 QCURVE SMOOTH",
"320 1262 OFFCURVE",
"408 1230 OFFCURVE",
"410 1214 QCURVE SMOOTH",
"414 1170 OFFCURVE",
"388 1028 QCURVE SMOOTH",
"244 284 LINE SMOOTH",
"220 156 OFFCURVE",
"192 98 QCURVE SMOOTH",
"184 80 OFFCURVE",
"80 48 OFFCURVE",
"58 48 QCURVE SMOOTH",
"48 48 OFFCURVE",
"48 10 QCURVE SMOOTH",
"48 -4 OFFCURVE",
"50 -6 QCURVE",
"272 4 LINE",
"340 4 OFFCURVE",
"552 -6 OFFCURVE",
"588 -6 QCURVE SMOOTH",
"742 -6 OFFCURVE",
"1006 100 OFFCURVE",
"1186 272 OFFCURVE",
"1316 488 OFFCURVE",
"1376 708 OFFCURVE",
"1376 810 QCURVE SMOOTH",
"1376 1028 OFFCURVE",
"1108 1316 OFFCURVE",
"848 1316 QCURVE SMOOTH",
"812 1316 OFFCURVE"
);
},
{
closed = 1;
nodes = (
"1200 1004 OFFCURVE",
"1200 828 QCURVE SMOOTH",
"1200 640 OFFCURVE",
"1066 304 OFFCURVE",
"802 86 OFFCURVE",
"634 86 QCURVE SMOOTH",
"420 86 OFFCURVE",
"402 126 QCURVE SMOOTH",
"398 136 OFFCURVE",
"398 250 OFFCURVE",
"404 278 QCURVE SMOOTH",
"550 1038 LINE SMOOTH",
"572 1156 OFFCURVE",
"604 1196 QCURVE SMOOTH",
"630 1228 OFFCURVE",
"844 1228 QCURVE SMOOTH",
"1024 1228 OFFCURVE"
);
}
);
width = 1336;
}
);
note = D;
unicode = 0044;
},
{
glyphname = E;
layers = (
{
layerId = "982A60EF-513A-498E-AE80-A9982858EA0F";
paths = (
{
closed = 1;
nodes = (
"308 1316 QCURVE",
"294 1302 OFFCURVE",
"294 1270 QCURVE SMOOTH",
"294 1262 OFFCURVE",
"298 1262 QCURVE SMOOTH",
"320 1262 OFFCURVE",
"408 1230 OFFCURVE",
"410 1214 QCURVE SMOOTH",
"414 1170 OFFCURVE",
"388 1028 QCURVE SMOOTH",
"244 284 LINE SMOOTH",
"220 156 OFFCURVE",
"192 98 QCURVE SMOOTH",
"184 80 OFFCURVE",
"80 48 OFFCURVE",
"58 48 QCURVE SMOOTH",
"48 48 OFFCURVE",
"48 10 QCURVE SMOOTH",
"48 -4 OFFCURVE",
"50 -6 QCURVE",
"272 4 LINE",
"352 4 OFFCURVE",
"798 -8 OFFCURVE",
"904 -8 QCURVE",
"928 64 OFFCURVE",
"1068 324 QCURVE",
"1060 336 OFFCURVE",
"1026 336 QCURVE SMOOTH",
"1002 336 OFFCURVE",
"996 324 QCURVE SMOOTH",
"958 248 OFFCURVE",
"872 138 OFFCURVE",
"840 122 QCURVE SMOOTH",
"772 88 OFFCURVE",
"598 88 QCURVE SMOOTH",
"508 88 LINE SMOOTH",
"418 88 OFFCURVE",
"386 100 OFFCURVE",
"386 130 QCURVE SMOOTH",
"386 198 OFFCURVE",
"408 304 QCURVE SMOOTH",
"466 600 LINE SMOOTH",
"470 618 OFFCURVE",
"602 618 QCURVE SMOOTH",
"776 618 OFFCURVE",
"796 602 QCURVE SMOOTH",
"806 594 OFFCURVE",
"812 584 OFFCURVE",
"824 530 OFFCURVE",
"826 476 QCURVE",
"828 460 OFFCURVE",
"854 460 QCURVE SMOOTH",
"870 460 OFFCURVE",
"882 468 QCURVE",
"956 852 LINE",
"950 862 OFFCURVE",
"926 862 QCURVE SMOOTH",
"904 862 OFFCURVE",
"898 848 QCURVE SMOOTH",
"852 744 OFFCURVE",
"788 706 OFFCURVE",
"656 706 QCURVE SMOOTH",
"566 706 LINE SMOOTH",
"550 706 OFFCURVE",
"526 708 OFFCURVE",
"502 710 OFFCURVE",
"492 716 OFFCURVE",
"492 722 QCURVE",
"556 1072 LINE SMOOTH",
"570 1146 OFFCURVE",
"592 1206 QCURVE SMOOTH",
"602 1232 OFFCURVE",
"744 1232 QCURVE SMOOTH",
"852 1232 LINE SMOOTH",
"952 1232 OFFCURVE",
"1044 1172 OFFCURVE",
"1050 1060 QCURVE SMOOTH",
"1050 1046 OFFCURVE",
"1074 1046 QCURVE SMOOTH",
"1100 1046 OFFCURVE",
"1110 1056 QCURVE",
"1110 1088 OFFCURVE",
"1106 1216 OFFCURVE",
"1106 1250 QCURVE SMOOTH",
"1106 1300 OFFCURVE",
"1108 1328 QCURVE",
"1004 1328 OFFCURVE",
"604 1312 OFFCURVE",
"522 1312 QCURVE SMOOTH",
"400 1312 OFFCURVE"
);
}
);
width = 1038;
}
);
note = E;
unicode = 0045;
},
{
glyphname = F;
layers = (
{
layerId = "982A60EF-513A-498E-AE80-A9982858EA0F";
paths = (
{
closed = 1;
nodes = (
"506 -6 QCURVE",
"518 6 OFFCURVE",
"518 32 QCURVE SMOOTH",
"518 48 OFFCURVE",
"514 48 QCURVE SMOOTH",
"480 52 LINE SMOOTH",
"446 56 OFFCURVE",
"378 82 OFFCURVE",
"378 98 QCURVE SMOOTH",
"378 176 OFFCURVE",
"394 256 QCURVE SMOOTH",
"462 600 LINE SMOOTH",
"466 618 OFFCURVE",
"598 618 QCURVE SMOOTH",
"772 618 OFFCURVE",
"792 602 QCURVE SMOOTH",
"802 594 OFFCURVE",
"808 584 OFFCURVE",
"820 530 OFFCURVE",
"822 476 QCURVE",
"824 460 OFFCURVE",
"850 460 QCURVE SMOOTH",
"866 460 OFFCURVE",
"878 468 QCURVE",
"952 852 LINE",
"946 862 OFFCURVE",
"922 862 QCURVE SMOOTH",
"900 862 OFFCURVE",
"894 848 QCURVE SMOOTH",
"848 744 OFFCURVE",
"784 706 OFFCURVE",
"652 706 QCURVE SMOOTH",
"562 706 LINE SMOOTH",
"546 706 OFFCURVE",
"522 708 OFFCURVE",
"498 710 OFFCURVE",
"488 716 OFFCURVE",
"488 722 QCURVE",
"552 1072 LINE SMOOTH",
"566 1146 OFFCURVE",
"588 1206 QCURVE SMOOTH",
"598 1232 OFFCURVE",
"740 1232 QCURVE SMOOTH",
"848 1232 LINE SMOOTH",
"948 1232 OFFCURVE",
"1040 1172 OFFCURVE",
"1046 1060 QCURVE SMOOTH",
"1046 1046 OFFCURVE",
"1070 1046 QCURVE SMOOTH",
"1096 1046 OFFCURVE",
"1106 1056 QCURVE",
"1106 1088 OFFCURVE",
"1102 1216 OFFCURVE",
"1102 1250 QCURVE SMOOTH",
"1102 1300 OFFCURVE",
"1104 1328 QCURVE",
"998 1328 OFFCURVE",
"602 1312 OFFCURVE",
"522 1312 QCURVE SMOOTH",
"400 1312 OFFCURVE",
"308 1316 QCURVE",
"294 1302 OFFCURVE",
"294 1270 QCURVE SMOOTH",
"294 1262 OFFCURVE",
"298 1262 QCURVE SMOOTH",
"320 1262 OFFCURVE",
"408 1230 OFFCURVE",
"410 1214 QCURVE SMOOTH",
"414 1170 OFFCURVE",
"388 1028 QCURVE SMOOTH",
"244 284 LINE SMOOTH",
"220 156 OFFCURVE",
"192 98 QCURVE SMOOTH",
"184 80 OFFCURVE",
"80 48 OFFCURVE",
"58 48 QCURVE SMOOTH",
"48 48 OFFCURVE",
"48 10 QCURVE SMOOTH",
"48 -4 OFFCURVE",
"50 -6 QCURVE",
"272 4 OFFCURVE",
"272 4 QCURVE",
"320 4 OFFCURVE"
);
}
);
width = 1006;
}
);
note = F;
unicode = 0046;
},
{
glyphname = G;
layers = (
{
layerId = "982A60EF-513A-498E-AE80-A9982858EA0F";
paths = (
{
closed = 1;
nodes = (
"324 1084 OFFCURVE",
"120 702 OFFCURVE",
"120 508 QCURVE SMOOTH",
"120 286 OFFCURVE",
"386 -12 OFFCURVE",
"598 -12 QCURVE SMOOTH",
"646 -12 OFFCURVE",
"736 -6 OFFCURVE",
"800 0 OFFCURVE",
"876 16 OFFCURVE",
"916 24 OFFCURVE",
"986 46 OFFCURVE",
"1006 54 OFFCURVE",
"1076 80 OFFCURVE",
"1080 82 QCURVE SMOOTH",
"1100 90 OFFCURVE",
"1122 106 OFFCURVE",
"1126 116 OFFCURVE",
"1126 126 QCURVE SMOOTH",
"1126 132 OFFCURVE",
"1122 166 OFFCURVE",
"1122 180 QCURVE SMOOTH",
"1122 182 OFFCURVE",
"1124 192 OFFCURVE",
"1124 194 QCURVE SMOOTH",
"1172 472 LINE SMOOTH",
"1178 510 OFFCURVE",
"1286 548 OFFCURVE",
"1320 548 QCURVE SMOOTH",
"1332 548 OFFCURVE",
"1332 602 QCURVE",
"1142 592 OFFCURVE",
"1114 592 QCURVE SMOOTH",
"1112 592 OFFCURVE",
"896 602 QCURVE",
"880 586 OFFCURVE",
"880 558 QCURVE SMOOTH",
"880 548 OFFCURVE",
"884 548 QCURVE SMOOTH",
"910 548 OFFCURVE",
"1022 514 OFFCURVE",
"1022 496 QCURVE SMOOTH",
"1022 484 OFFCURVE",
"1018 454 OFFCURVE",
"1016 444 QCURVE SMOOTH",
"1014 436 LINE",
"958 152 LINE SMOOTH",
"952 126 OFFCURVE",
"936 118 QCURVE SMOOTH",
"850 74 OFFCURVE",
"686 74 QCURVE SMOOTH",
"510 74 OFFCURVE",
"310 354 OFFCURVE",
"310 546 QCURVE SMOOTH",
"310 706 OFFCURVE",
"460 1032 OFFCURVE",
"722 1250 OFFCURVE",
"868 1250 QCURVE SMOOTH",
"960 1250 OFFCURVE",
"1092 1202 OFFCURVE",
"1154 1142 OFFCURVE",
"1190 1052 OFFCURVE",
"1194 1006 OFFCURVE",
"1194 976 QCURVE",
"1198 966 OFFCURVE",
"1216 966 QCURVE SMOOTH",
"1260 966 OFFCURVE",
"1262 984 QCURVE",
"1274 1046 OFFCURVE",
"1304 1244 QCURVE",
"1014 1334 OFFCURVE",
"878 1334 QCURVE SMOOTH",
"680 1334 OFFCURVE"
);
}
);
width = 1232;
}
);
note = G;
unicode = 0047;
},
{
glyphname = H;
layers = (
{
layerId = "982A60EF-513A-498E-AE80-A9982858EA0F";
paths = (
{
closed = 1;
nodes = (
"494 736 OFFCURVE",
"494 746 QCURVE SMOOTH",
"494 748 LINE",
"544 1030 LINE SMOOTH",
"564 1142 OFFCURVE",
"596 1216 QCURVE SMOOTH",
"602 1230 OFFCURVE",
"704 1262 OFFCURVE",
"720 1262 QCURVE SMOOTH",
"734 1262 OFFCURVE",
"734 1310 QCURVE SMOOTH",
"734 1316 LINE",
"720 1316 OFFCURVE",
"570 1304 OFFCURVE",
"522 1304 QCURVE SMOOTH",
"472 1304 OFFCURVE",
"330 1314 OFFCURVE",
"306 1316 QCURVE",
"290 1300 OFFCURVE",
"290 1272 QCURVE SMOOTH",
"290 1262 OFFCURVE",
"294 1262 QCURVE SMOOTH",
"320 1262 OFFCURVE",
"406 1230 OFFCURVE",
"406 1208 QCURVE SMOOTH",
"406 1134 OFFCURVE",
"384 1024 QCURVE SMOOTH",
"242 284 LINE SMOOTH",
"220 160 OFFCURVE",
"190 92 QCURVE SMOOTH",
"182 74 OFFCURVE",
"86 48 OFFCURVE",
"62 48 QCURVE SMOOTH",
"48 48 OFFCURVE",
"48 10 QCURVE SMOOTH",
"48 -2 OFFCURVE",
"52 -6 QCURVE",
"268 4 OFFCURVE",
"272 4 QCURVE SMOOTH",
"296 4 OFFCURVE",
"480 -6 QCURVE",
"492 18 OFFCURVE",
"492 40 QCURVE SMOOTH",
"492 48 OFFCURVE",
"488 48 QCURVE SMOOTH",
"460 52 LINE SMOOTH",
"434 56 OFFCURVE",
"380 82 OFFCURVE",
"380 98 QCURVE SMOOTH",
"380 168 OFFCURVE",
"402 278 QCURVE SMOOTH",
"466 608 LINE SMOOTH",
"470 632 OFFCURVE",
"758 632 QCURVE SMOOTH",
"938 632 OFFCURVE",
"1032 626 OFFCURVE",
"1032 616 QCURVE SMOOTH",
"1032 614 LINE",
"968 284 LINE SMOOTH",
"946 160 OFFCURVE",
"916 92 QCURVE SMOOTH",
"908 74 OFFCURVE",
"812 48 OFFCURVE",
"788 48 QCURVE SMOOTH",
"774 48 OFFCURVE",
"774 10 QCURVE SMOOTH",
"774 -2 OFFCURVE",
"778 -6 QCURVE",
"992 4 OFFCURVE",
"998 4 QCURVE SMOOTH",
"1020 4 OFFCURVE",
"1206 -6 QCURVE",
"1218 18 OFFCURVE",
"1218 40 QCURVE SMOOTH",
"1218 48 OFFCURVE",
"1214 48 QCURVE",
"1188 52 LINE SMOOTH",
"1160 56 OFFCURVE",
"1106 82 OFFCURVE",
"1106 98 QCURVE SMOOTH",
"1106 168 OFFCURVE",
"1128 278 QCURVE SMOOTH",
"1274 1030 LINE SMOOTH",
"1296 1150 OFFCURVE",
"1326 1216 QCURVE SMOOTH",
"1332 1230 OFFCURVE",
"1432 1262 OFFCURVE",
"1448 1262 QCURVE SMOOTH",
"1462 1262 OFFCURVE",
"1462 1310 QCURVE SMOOTH",
"1462 1316 LINE",
"1450 1316 OFFCURVE",
"1296 1304 OFFCURVE",
"1248 1304 QCURVE SMOOTH",
"1198 1304 OFFCURVE",
"1056 1314 OFFCURVE",
"1032 1316 QCURVE",
"1016 1300 OFFCURVE",
"1016 1272 QCURVE SMOOTH",
"1016 1262 OFFCURVE",
"1020 1262 QCURVE SMOOTH",
"1046 1262 OFFCURVE",
"1132 1230 OFFCURVE",
"1132 1208 QCURVE SMOOTH",
"1132 1134 OFFCURVE",
"1110 1024 QCURVE SMOOTH",
"1056 746 LINE",
"1054 730 OFFCURVE",
"794 730 QCURVE SMOOTH",
"600 730 OFFCURVE"
);
}
);
width = 1254;
}
);
note = H;
unicode = 0048;
},
{
glyphname = I;
layers = (
{
layerId = "982A60EF-513A-498E-AE80-A9982858EA0F";
paths = (
{
closed = 1;
nodes = (
"596 1216 QCURVE SMOOTH",
"602 1230 OFFCURVE",
"704 1262 OFFCURVE",
"720 1262 QCURVE SMOOTH",
"734 1262 OFFCURVE",
"734 1310 QCURVE SMOOTH",
"734 1316 LINE",
"720 1316 OFFCURVE",
"570 1304 OFFCURVE",
"522 1304 QCURVE SMOOTH",
"472 1304 OFFCURVE",
"330 1314 OFFCURVE",
"306 1316 QCURVE",
"290 1300 OFFCURVE",
"290 1272 QCURVE SMOOTH",
"290 1262 OFFCURVE",
"294 1262 QCURVE SMOOTH",
"320 1262 OFFCURVE",
"406 1230 OFFCURVE",
"406 1208 QCURVE SMOOTH",
"406 1134 OFFCURVE",
"384 1024 QCURVE SMOOTH",
"242 284 LINE SMOOTH",
"220 160 OFFCURVE",
"190 92 QCURVE SMOOTH",
"182 74 OFFCURVE",
"86 48 OFFCURVE",
"62 48 QCURVE SMOOTH",
"48 48 OFFCURVE",
"48 10 QCURVE SMOOTH",
"48 -2 OFFCURVE",
"52 -6 QCURVE",
"268 4 OFFCURVE",
"272 4 QCURVE SMOOTH",
"296 4 OFFCURVE",
"480 -6 QCURVE",
"492 18 OFFCURVE",
"492 40 QCURVE SMOOTH",
"492 48 OFFCURVE",
"488 48 QCURVE SMOOTH",
"460 52 LINE SMOOTH",
"434 56 OFFCURVE",
"380 82 OFFCURVE",
"380 98 QCURVE SMOOTH",
"380 168 OFFCURVE",
"402 278 QCURVE SMOOTH",
"544 1030 LINE SMOOTH",
"570 1160 OFFCURVE"
);
}
);
width = 526;
}
);
note = I;
unicode = 0049;
},
{
glyphname = J;
layers = (
{
layerId = "982A60EF-513A-498E-AE80-A9982858EA0F";
paths = (
{
closed = 1;
nodes = (
"6 -366 OFFCURVE",
"-158 -418 QCURVE",
"-160 -430 LINE",
"-160 -452 OFFCURVE",
"-148 -466 QCURVE",
"-96 -466 OFFCURVE",
"16 -424 OFFCURVE",
"146 -320 OFFCURVE",
"260 -166 OFFCURVE",
"362 80 OFFCURVE",
"390 232 QCURVE SMOOTH",
"540 1030 LINE SMOOTH",
"560 1142 OFFCURVE",
"592 1216 QCURVE SMOOTH",
"598 1230 OFFCURVE",
"686 1262 OFFCURVE",
"702 1262 QCURVE SMOOTH",
"716 1262 OFFCURVE",
"716 1310 QCURVE SMOOTH",
"716 1316 LINE",
"702 1316 OFFCURVE",
"552 1304 OFFCURVE",
"504 1304 QCURVE SMOOTH",
"454 1304 OFFCURVE",
"312 1314 OFFCURVE",
"288 1316 QCURVE",
"272 1300 OFFCURVE",
"272 1272 QCURVE SMOOTH",
"272 1262 OFFCURVE",
"276 1262 QCURVE SMOOTH",
"302 1262 OFFCURVE",
"402 1230 OFFCURVE",
"402 1208 QCURVE SMOOTH",
"402 1152 OFFCURVE",
"380 1024 QCURVE SMOOTH",
"230 218 LINE SMOOTH",
"174 -78 OFFCURVE"
);
}
);
width = 508;
}
);
note = J;
unicode = 004A;
},
{
glyphname = K;
layers = (
{
layerId = "982A60EF-513A-498E-AE80-A9982858EA0F";
paths = (
{
closed = 1;
nodes = (
"596 1216 QCURVE SMOOTH",
"602 1230 OFFCURVE",
"704 1262 OFFCURVE",
"720 1262 QCURVE SMOOTH",
"734 1262 OFFCURVE",
"734 1310 QCURVE SMOOTH",
"734 1316 LINE",
"720 1316 OFFCURVE",
"570 1304 OFFCURVE",
"522 1304 QCURVE SMOOTH",
"472 1304 OFFCURVE",
"330 1314 OFFCURVE",
"306 1316 QCURVE",
"290 1300 OFFCURVE",
"290 1272 QCURVE SMOOTH",
"290 1262 OFFCURVE",
"294 1262 QCURVE SMOOTH",
"320 1262 OFFCURVE",
"406 1230 OFFCURVE",
"406 1208 QCURVE SMOOTH",
"406 1134 OFFCURVE",
"384 1024 QCURVE SMOOTH",
"242 284 LINE SMOOTH",
"220 160 OFFCURVE",
"190 92 QCURVE SMOOTH",
"182 74 OFFCURVE",
"86 48 OFFCURVE",
"62 48 QCURVE SMOOTH",
"48 48 OFFCURVE",
"48 10 QCURVE SMOOTH",
"48 -2 OFFCURVE",
"52 -6 QCURVE",
"268 4 OFFCURVE",
"272 4 QCURVE SMOOTH",
"296 4 OFFCURVE",
"480 -6 QCURVE",
"492 18 OFFCURVE",
"492 40 QCURVE SMOOTH",
"492 48 OFFCURVE",
"488 48 QCURVE SMOOTH",
"460 52 LINE SMOOTH",
"434 56 OFFCURVE",
"380 82 OFFCURVE",
"380 98 QCURVE SMOOTH",
"380 168 OFFCURVE",
"402 278 QCURVE SMOOTH",
"544 1030 LINE SMOOTH",
"570 1160 OFFCURVE"
);
},
{
closed = 1;
nodes = (
"914 88 QCURVE SMOOTH",
"926 72 OFFCURVE",
"972 36 OFFCURVE",
"1082 -4 OFFCURVE",
"1146 -4 QCURVE SMOOTH",
"1194 -4 OFFCURVE",
"1296 2 QCURVE",
"1306 22 OFFCURVE",
"1306 44 QCURVE SMOOTH",
"1306 56 OFFCURVE",
"1302 56 QCURVE SMOOTH",
"1274 56 OFFCURVE",
"1126 102 OFFCURVE",
"1092 144 QCURVE SMOOTH",
"684 638 LINE SMOOTH",
"672 654 OFFCURVE",
"672 670 QCURVE SMOOTH",
"672 684 OFFCURVE",
"682 694 QCURVE SMOOTH",
"1170 1182 LINE SMOOTH",
"1242 1254 OFFCURVE",
"1382 1270 QCURVE",
"1394 1270 OFFCURVE",
"1394 1316 QCURVE",
"1382 1316 OFFCURVE",
"1228 1304 OFFCURVE",
"1180 1304 QCURVE SMOOTH",
"1150 1304 OFFCURVE",
"1086 1308 OFFCURVE",
"1008 1314 OFFCURVE",
"984 1316 QCURVE",
"974 1300 OFFCURVE",
"974 1282 QCURVE SMOOTH",
"974 1270 OFFCURVE",
"980 1270 QCURVE SMOOTH",
"1006 1270 OFFCURVE",
"1076 1254 OFFCURVE",
"1076 1236 QCURVE SMOOTH",
"1076 1230 OFFCURVE",
"1060 1204 OFFCURVE",
"1042 1184 OFFCURVE",
"1018 1158 OFFCURVE",
"1016 1156 QCURVE SMOOTH",
"876 1002 OFFCURVE",
"566 708 OFFCURVE",
"474 652 QCURVE",
"516 594 OFFCURVE"
);
}
);
width = 1284;
}
);
note = K;
unicode = 004B;
},
{
glyphname = L;
layers = (
{
layerId = "982A60EF-513A-498E-AE80-A9982858EA0F";
paths = (
{
closed = 1;
nodes = (
"572 1160 OFFCURVE",
"598 1216 QCURVE SMOOTH",
"604 1230 OFFCURVE",
"706 1262 OFFCURVE",
"722 1262 QCURVE SMOOTH",
"736 1262 OFFCURVE",
"736 1310 QCURVE SMOOTH",
"736 1316 LINE",
"722 1316 OFFCURVE",
"572 1304 OFFCURVE",
"524 1304 QCURVE SMOOTH",
"474 1304 OFFCURVE",
"332 1314 OFFCURVE",
"308 1316 QCURVE",
"292 1300 OFFCURVE",
"292 1272 QCURVE SMOOTH",
"292 1262 OFFCURVE",
"296 1262 QCURVE SMOOTH",
"322 1262 OFFCURVE",
"408 1230 OFFCURVE",
"408 1208 QCURVE SMOOTH",
"408 1134 OFFCURVE",
"386 1024 QCURVE SMOOTH",
"244 284 LINE SMOOTH",
"220 156 OFFCURVE",
"192 98 QCURVE SMOOTH",
"184 82 OFFCURVE",
"88 58 OFFCURVE",
"62 58 QCURVE SMOOTH",
"48 58 OFFCURVE",
"48 10 QCURVE SMOOTH",
"48 -4 OFFCURVE",
"50 -6 QCURVE",
"272 4 LINE",
"352 4 OFFCURVE",
"800 -8 OFFCURVE",
"904 -8 QCURVE",
"928 64 OFFCURVE",
"1068 324 QCURVE",
"1060 336 OFFCURVE",
"1026 336 QCURVE SMOOTH",
"1002 336 OFFCURVE",
"996 324 QCURVE SMOOTH",
"958 248 OFFCURVE",
"872 138 OFFCURVE",
"840 122 QCURVE SMOOTH",
"772 88 OFFCURVE",
"598 88 QCURVE SMOOTH",
"508 88 LINE SMOOTH",
"418 88 OFFCURVE",
"384 100 OFFCURVE",
"384 130 QCURVE SMOOTH",
"384 162 OFFCURVE",
"404 278 QCURVE SMOOTH",
"546 1030 LINE SMOOTH"
);
}
);
width = 996;
}
);
note = L;
unicode = 004C;
},
{
glyphname = M;
layers = (
{
layerId = "982A60EF-513A-498E-AE80-A9982858EA0F";
paths = (
{
closed = 1;
nodes = (
"910 324 OFFCURVE",
"904 324 QCURVE SMOOTH",
"902 324 OFFCURVE",
"902 326 QCURVE SMOOTH",
"768 1152 OFFCURVE",
"750 1316 QCURVE",
"674 1312 OFFCURVE",
"560 1312 QCURVE SMOOTH",
"520 1312 OFFCURVE",
"372 1316 QCURVE",
"360 1308 OFFCURVE",
"360 1276 QCURVE SMOOTH",
"360 1262 OFFCURVE",
"364 1262 QCURVE SMOOTH",
"386 1262 OFFCURVE",
"500 1230 OFFCURVE",
"500 1208 QCURVE SMOOTH",
"500 1182 OFFCURVE",
"492 1136 OFFCURVE",
"478 1078 OFFCURVE",
"474 1056 QCURVE",
"256 274 LINE SMOOTH",
"226 164 OFFCURVE",
"190 96 QCURVE SMOOTH",
"182 80 OFFCURVE",
"60 48 OFFCURVE",
"36 48 QCURVE SMOOTH",
"22 48 OFFCURVE",
"22 14 QCURVE SMOOTH",
"22 -2 OFFCURVE",
"26 -6 QCURVE",
"240 4 OFFCURVE",
"246 4 QCURVE SMOOTH",
"268 4 OFFCURVE",
"454 -6 QCURVE",
"464 14 OFFCURVE",
"464 36 QCURVE SMOOTH",
"464 48 OFFCURVE",
"460 48 QCURVE SMOOTH",
"456 48 OFFCURVE",
"392 62 OFFCURVE",
"324 92 OFFCURVE",
"324 106 QCURVE SMOOTH",
"324 136 OFFCURVE",
"362 272 QCURVE SMOOTH",
"596 1134 LINE",
"596 1138 OFFCURVE",
"602 1138 QCURVE SMOOTH",
"604 1138 OFFCURVE",
"606 1134 QCURVE",
"776 0 LINE",
"784 -4 OFFCURVE",
"792 -4 QCURVE SMOOTH",
"816 -4 OFFCURVE",
"872 44 OFFCURVE",
"882 62 QCURVE SMOOTH",
"1404 1126 LINE SMOOTH",
"1408 1134 OFFCURVE",
"1410 1134 QCURVE SMOOTH",
"1422 1134 OFFCURVE",
"1422 1122 QCURVE SMOOTH",
"1422 1104 OFFCURVE",
"1416 1044 QCURVE SMOOTH",
"1336 264 LINE",
"1334 256 OFFCURVE",
"1330 206 OFFCURVE",
"1328 188 OFFCURVE",
"1320 150 OFFCURVE",
"1314 128 OFFCURVE",
"1302 98 OFFCURVE",
"1296 84 QCURVE SMOOTH",
"1288 68 OFFCURVE",
"1196 48 OFFCURVE",
"1170 48 QCURVE SMOOTH",
"1166 48 OFFCURVE",
"1156 16 OFFCURVE",
"1156 4 QCURVE SMOOTH",
"1156 2 OFFCURVE",
"1160 -6 QCURVE",
"1364 4 OFFCURVE",
"1370 4 QCURVE SMOOTH",
"1402 4 OFFCURVE",
"1588 -6 QCURVE",
"1600 6 OFFCURVE",
"1600 30 QCURVE SMOOTH",
"1600 48 OFFCURVE",
"1596 48 QCURVE SMOOTH",
"1590 48 OFFCURVE",
"1552 50 OFFCURVE",
"1526 54 OFFCURVE",
"1496 64 OFFCURVE",
"1480 92 OFFCURVE",
"1480 112 QCURVE SMOOTH",
"1480 166 OFFCURVE",
"1492 270 QCURVE SMOOTH",
"1570 1034 LINE SMOOTH",
"1580 1120 OFFCURVE",
"1598 1188 OFFCURVE",
"1616 1212 QCURVE SMOOTH",
"1630 1232 OFFCURVE",
"1688 1260 OFFCURVE",
"1714 1260 QCURVE SMOOTH",
"1720 1260 OFFCURVE",
"1728 1308 OFFCURVE",
"1724 1318 QCURVE",
"1620 1310 OFFCURVE",
"1550 1310 QCURVE SMOOTH",
"1446 1310 OFFCURVE",
"1392 1316 QCURVE",
"1266 1046 LINE",
"910 328 LINE"
);
}
);
width = 1628;
}
);
note = M;
unicode = 004D;
},
{
glyphname = N;
layers = (
{
layerId = "982A60EF-513A-498E-AE80-A9982858EA0F";
paths = (
{
closed = 1;
nodes = (
"316 1316 QCURVE",
"302 1306 OFFCURVE",
"302 1276 QCURVE SMOOTH",
"302 1262 OFFCURVE",
"306 1262 QCURVE SMOOTH",
"338 1262 OFFCURVE",
"442 1236 OFFCURVE",
"442 1212 QCURVE SMOOTH",
"442 1120 OFFCURVE",
"424 1032 QCURVE SMOOTH",
"270 288 LINE SMOOTH",
"238 140 OFFCURVE",
"216 96 QCURVE SMOOTH",
"208 80 OFFCURVE",
"86 48 OFFCURVE",
"62 48 QCURVE SMOOTH",
"48 48 OFFCURVE",
"48 10 QCURVE SMOOTH",
"48 -2 OFFCURVE",
"52 -6 QCURVE",
"268 4 OFFCURVE",
"272 4 QCURVE SMOOTH",
"296 4 OFFCURVE",
"480 -6 QCURVE",
"490 14 OFFCURVE",
"490 38 QCURVE SMOOTH",
"490 48 OFFCURVE",
"486 48 QCURVE",
"452 54 LINE SMOOTH",
"420 60 OFFCURVE",
"356 88 OFFCURVE",
"356 104 QCURVE SMOOTH",
"356 184 OFFCURVE",
"376 282 QCURVE SMOOTH",
"554 1162 LINE",
"1044 34 OFFCURVE",
"1046 30 QCURVE SMOOTH",
"1070 -16 OFFCURVE",
"1098 -16 QCURVE SMOOTH",
"1110 -16 OFFCURVE",
"1118 -8 QCURVE",
"1122 14 OFFCURVE",
"1154 210 OFFCURVE",
"1166 272 QCURVE SMOOTH",
"1316 1032 LINE SMOOTH",
"1340 1154 OFFCURVE",
"1366 1218 QCURVE SMOOTH",
"1372 1232 OFFCURVE",
"1502 1262 OFFCURVE",
"1522 1262 QCURVE SMOOTH",
"1534 1262 OFFCURVE",
"1534 1316 QCURVE",
"1344 1306 OFFCURVE",
"1316 1306 QCURVE SMOOTH",
"1312 1306 OFFCURVE",
"1106 1316 QCURVE",
"1092 1306 OFFCURVE",
"1092 1276 QCURVE SMOOTH",
"1092 1262 OFFCURVE",
"1096 1262 QCURVE SMOOTH",
"1126 1262 OFFCURVE",
"1236 1234 OFFCURVE",
"1236 1210 QCURVE SMOOTH",
"1236 1156 OFFCURVE",
"1210 1026 QCURVE SMOOTH",
"1108 488 LINE SMOOTH",
"1100 446 OFFCURVE",
"1086 406 QCURVE",
"964 648 OFFCURVE",
"732 1198 OFFCURVE",
"702 1316 QCURVE",
"550 1308 OFFCURVE",
"514 1308 QCURVE SMOOTH",
"472 1308 OFFCURVE"
);
}
);
width = 1326;
}
);
note = N;
unicode = 004E;
},
{
glyphname = O;
layers = (
{
layerId = "982A60EF-513A-498E-AE80-A9982858EA0F";
paths = (
{
closed = 1;
nodes = (
"1156 990 OFFCURVE",
"1156 790 QCURVE SMOOTH",
"1156 520 OFFCURVE",
"852 66 OFFCURVE",
"644 66 QCURVE SMOOTH",
"480 66 OFFCURVE",
"302 330 OFFCURVE",
"302 534 QCURVE SMOOTH",
"302 804 OFFCURVE",
"602 1250 OFFCURVE",
"818 1250 QCURVE SMOOTH",
"980 1250 OFFCURVE"
);
},
{
closed = 1;
nodes = (
"340 1108 OFFCURVE",
"120 726 OFFCURVE",
"120 518 QCURVE SMOOTH",
"120 286 OFFCURVE",
"378 -20 OFFCURVE",
"592 -20 QCURVE SMOOTH",
"786 -20 OFFCURVE",
"1134 214 OFFCURVE",
"1340 602 OFFCURVE",
"1340 818 QCURVE SMOOTH",
"1340 1032 OFFCURVE",
"1066 1334 OFFCURVE",
"864 1334 QCURVE SMOOTH",
"684 1334 OFFCURVE"
);
}
);
width = 1248;
}
);
note = O;
unicode = 004F;
},
{
glyphname = P;
layers = (
{
layerId = "982A60EF-513A-498E-AE80-A9982858EA0F";
paths = (
{
closed = 1;
nodes = (
"584 1310 OFFCURVE",
"528 1310 QCURVE SMOOTH",
"406 1310 OFFCURVE",
"320 1316 QCURVE",
"306 1306 OFFCURVE",
"306 1276 QCURVE SMOOTH",
"306 1262 OFFCURVE",
"310 1262 QCURVE SMOOTH",
"338 1262 OFFCURVE",
"416 1236 OFFCURVE",
"416 1212 QCURVE SMOOTH",
"416 1158 OFFCURVE",
"406 1108 QCURVE SMOOTH",
"242 284 LINE SMOOTH",
"210 132 OFFCURVE",
"190 92 QCURVE SMOOTH",
"182 76 OFFCURVE",
"84 48 OFFCURVE",
"62 48 QCURVE SMOOTH",
"48 48 OFFCURVE",
"48 10 QCURVE SMOOTH",
"48 -2 OFFCURVE",
"52 -6 QCURVE",
"292 4 OFFCURVE",
"298 4 QCURVE SMOOTH",
"316 4 OFFCURVE",
"502 -6 QCURVE",
"514 6 OFFCURVE",
"514 32 QCURVE SMOOTH",
"514 48 OFFCURVE",
"510 48 QCURVE SMOOTH",
"476 52 LINE SMOOTH",
"444 56 OFFCURVE",
"380 82 OFFCURVE",
"380 98 QCURVE SMOOTH",
"380 166 OFFCURVE",
"398 256 QCURVE SMOOTH",
"584 1202 LINE SMOOTH",
"588 1224 OFFCURVE",
"650 1242 OFFCURVE",
"744 1242 QCURVE SMOOTH",
"960 1242 OFFCURVE",
"960 1032 QCURVE SMOOTH",
"960 856 OFFCURVE",
"730 656 OFFCURVE",
"594 656 QCURVE SMOOTH",
"574 656 OFFCURVE",
"546 660 QCURVE",
"534 648 OFFCURVE",
"534 628 QCURVE SMOOTH",
"534 622 OFFCURVE",
"538 608 QCURVE",
"586 590 OFFCURVE",
"678 590 QCURVE SMOOTH",
"848 590 OFFCURVE",
"1130 836 OFFCURVE",
"1130 1008 QCURVE SMOOTH",
"1130 1142 OFFCURVE",
"906 1316 OFFCURVE",
"790 1316 QCURVE SMOOTH",
"736 1316 OFFCURVE"
);
}
);
width = 1010;
}
);
note = P;
unicode = 0050;
},
{
glyphname = Q;
layers = (
{
layerId = "982A60EF-513A-498E-AE80-A9982858EA0F";
paths = (
{
closed = 1;
nodes = (
"1156 990 OFFCURVE",
"1156 790 QCURVE SMOOTH",
"1156 520 OFFCURVE",
"852 66 OFFCURVE",
"644 66 QCURVE SMOOTH",
"480 66 OFFCURVE",
"302 330 OFFCURVE",
"302 534 QCURVE SMOOTH",
"302 804 OFFCURVE",
"602 1250 OFFCURVE",
"818 1250 QCURVE SMOOTH",
"980 1250 OFFCURVE"
);
},
{
closed = 1;
nodes = (
"340 1108 OFFCURVE",
"120 726 OFFCURVE",
"120 518 QCURVE SMOOTH",
"120 316 OFFCURVE",
"322 24 OFFCURVE",
"494 -10 QCURVE",
"312 -52 OFFCURVE",
"282 -54 QCURVE",
"272 -58 OFFCURVE",
"246 -96 OFFCURVE",
"246 -104 QCURVE",
"408 -146 OFFCURVE",
"740 -290 OFFCURVE",
"982 -372 OFFCURVE",
"1242 -372 OFFCURVE",
"1488 -238 OFFCURVE",
"1524 -190 QCURVE",
"1524 -164 OFFCURVE",
"1478 -142 QCURVE",
"1434 -180 OFFCURVE",
"1260 -266 OFFCURVE",
"1186 -266 QCURVE SMOOTH",
"1052 -266 OFFCURVE",
"612 -78 OFFCURVE",
"552 -70 QCURVE",
"794 -24 OFFCURVE",
"980 112 QCURVE SMOOTH",
"1142 230 OFFCURVE",
"1340 610 OFFCURVE",
"1340 818 QCURVE SMOOTH",
"1340 1032 OFFCURVE",
"1066 1334 OFFCURVE",
"864 1334 QCURVE SMOOTH",
"684 1334 OFFCURVE"
);
}
);
width = 1248;
}
);
note = Q;
unicode = 0051;
},
{
glyphname = R;
layers = (
{
layerId = "982A60EF-513A-498E-AE80-A9982858EA0F";
paths = (
{
closed = 1;
nodes = (
"582 1310 OFFCURVE",
"526 1310 QCURVE SMOOTH",
"404 1310 OFFCURVE",
"318 1316 QCURVE",
"304 1306 OFFCURVE",
"304 1276 QCURVE SMOOTH",
"304 1262 OFFCURVE",
"308 1262 QCURVE SMOOTH",
"334 1262 OFFCURVE",
"414 1236 OFFCURVE",
"414 1212 QCURVE SMOOTH",
"414 1164 OFFCURVE",
"404 1112 QCURVE SMOOTH",
"240 284 LINE SMOOTH",
"210 146 OFFCURVE",
"188 92 QCURVE SMOOTH",
"180 74 OFFCURVE",
"84 48 OFFCURVE",
"60 48 QCURVE SMOOTH",
"46 48 OFFCURVE",
"46 10 QCURVE SMOOTH",
"46 -2 OFFCURVE",
"50 -6 QCURVE",
"264 4 OFFCURVE",
"270 4 QCURVE SMOOTH",
"292 4 OFFCURVE",
"478 -6 QCURVE",
"490 18 OFFCURVE",
"490 40 QCURVE SMOOTH",
"490 48 OFFCURVE",
"486 48 QCURVE SMOOTH",
"458 52 LINE SMOOTH",
"432 56 OFFCURVE",
"378 82 OFFCURVE",
"378 98 QCURVE SMOOTH",
"378 168 OFFCURVE",
"400 278 QCURVE SMOOTH",
"458 588 LINE SMOOTH",
"462 612 OFFCURVE",
"498 622 OFFCURVE",
"562 622 QCURVE SMOOTH",
"640 622 OFFCURVE",
"650 594 QCURVE SMOOTH",
"760 252 OFFCURVE",
"932 -8 OFFCURVE",
"1064 -8 QCURVE SMOOTH",
"1130 -8 OFFCURVE",
"1180 2 QCURVE",
"1192 20 OFFCURVE",
"1178 58 QCURVE",
"1174 58 OFFCURVE",
"1146 58 OFFCURVE",
"1138 58 OFFCURVE",
"1112 60 OFFCURVE",
"1100 66 OFFCURVE",
"1076 74 OFFCURVE",
"1058 88 OFFCURVE",
"1036 106 OFFCURVE",
"1016 132 OFFCURVE",
"1006 148 QCURVE SMOOTH",
"960 218 OFFCURVE",
"840 498 OFFCURVE",
"802 630 QCURVE",
"794 648 OFFCURVE",
"812 654 QCURVE",
"840 668 OFFCURVE",
"908 706 OFFCURVE",
"1006 780 OFFCURVE",
"1080 862 OFFCURVE",
"1134 982 OFFCURVE",
"1134 1044 QCURVE SMOOTH",
"1134 1120 OFFCURVE",
"1062 1232 OFFCURVE",
"948 1290 OFFCURVE",
"832 1316 OFFCURVE",
"776 1316 QCURVE SMOOTH",
"720 1316 OFFCURVE"
);
},
{
closed = 1;
nodes = (
"964 1054 QCURVE SMOOTH",
"964 940 OFFCURVE",
"842 774 OFFCURVE",
"674 704 OFFCURVE",
"582 704 QCURVE SMOOTH",
"488 704 OFFCURVE",
"488 734 QCURVE SMOOTH",
"488 738 LINE",
"584 1204 LINE SMOOTH",
"588 1230 OFFCURVE",
"642 1242 OFFCURVE",
"744 1242 QCURVE SMOOTH",
"964 1242 OFFCURVE"
);
}
);
width = 1186;
}
);
note = R;
unicode = 0052;
},
{
glyphname = S;
layers = (
{
layerId = "982A60EF-513A-498E-AE80-A9982858EA0F";
paths = (
{
closed = 1;
nodes = (
"540 70 OFFCURVE",
"434 70 QCURVE SMOOTH",
"356 70 OFFCURVE",
"246 128 OFFCURVE",
"196 224 OFFCURVE",
"178 308 OFFCURVE",
"178 350 QCURVE",
"158 366 OFFCURVE",
"140 366 QCURVE SMOOTH",
"102 366 OFFCURVE",
"102 352 QCURVE SMOOTH",
"102 348 OFFCURVE",
"106 232 OFFCURVE",
"106 164 OFFCURVE",
"98 36 QCURVE",
"308 -12 OFFCURVE",
"416 -12 QCURVE SMOOTH",
"526 -12 OFFCURVE",
"710 70 OFFCURVE",
"822 196 OFFCURVE",
"882 336 OFFCURVE",
"882 398 QCURVE SMOOTH",
"882 468 OFFCURVE",
"802 594 OFFCURVE",
"720 662 OFFCURVE",
"536 790 OFFCURVE",
"498 820 QCURVE SMOOTH",
"400 898 OFFCURVE",
"400 1004 QCURVE SMOOTH",
"400 1108 OFFCURVE",
"540 1246 OFFCURVE",
"654 1246 QCURVE SMOOTH",
"734 1246 OFFCURVE",
"856 1114 OFFCURVE",
"856 1020 QCURVE SMOOTH",
"856 998 OFFCURVE",
"860 996 QCURVE",
"876 984 OFFCURVE",
"906 984 QCURVE SMOOTH",
"912 984 OFFCURVE",
"918 1004 OFFCURVE",
"924 1062 QCURVE SMOOTH",
"936 1174 OFFCURVE",
"950 1284 QCURVE",
"908 1288 OFFCURVE",
"744 1332 OFFCURVE",
"692 1332 QCURVE SMOOTH",
"506 1332 OFFCURVE",
"244 1096 OFFCURVE",
"244 916 QCURVE SMOOTH",
"244 842 OFFCURVE",
"340 710 OFFCURVE",
"478 612 OFFCURVE",
"614 518 OFFCURVE",
"710 404 OFFCURVE",
"710 344 QCURVE SMOOTH",
"710 216 OFFCURVE"
);
}
);
width = 870;
}
);
note = S;
unicode = 0053;
},
{
glyphname = T;
layers = (
{
layerId = "982A60EF-513A-498E-AE80-A9982858EA0F";
paths = (
{
closed = 1;
nodes = (
"518 92 QCURVE SMOOTH",
"510 74 OFFCURVE",
"414 48 OFFCURVE",
"390 48 QCURVE SMOOTH",
"376 48 OFFCURVE",
"376 10 QCURVE SMOOTH",
"376 -2 OFFCURVE",
"380 -6 QCURVE",
"596 4 OFFCURVE",
"600 4 QCURVE SMOOTH",
"624 4 OFFCURVE",
"808 -6 QCURVE",
"820 18 OFFCURVE",
"820 40 QCURVE SMOOTH",
"820 48 OFFCURVE",
"816 48 QCURVE SMOOTH",
"788 52 LINE SMOOTH",
"762 56 OFFCURVE",
"708 82 OFFCURVE",
"708 98 QCURVE SMOOTH",
"708 168 OFFCURVE",
"730 278 QCURVE SMOOTH",
"870 1000 LINE SMOOTH",
"898 1140 OFFCURVE",
"926 1200 QCURVE SMOOTH",
"940 1230 OFFCURVE",
"1138 1230 QCURVE SMOOTH",
"1232 1230 OFFCURVE",
"1310 1160 OFFCURVE",
"1310 1052 QCURVE SMOOTH",
"1310 1042 OFFCURVE",
"1328 1042 QCURVE SMOOTH",
"1356 1042 OFFCURVE",
"1374 1056 QCURVE",
"1394 1342 LINE",
"1306 1320 OFFCURVE",
"1262 1320 QCURVE SMOOTH",
"1184 1320 OFFCURVE",
"928 1308 OFFCURVE",
"772 1308 OFFCURVE",
"524 1320 OFFCURVE",
"446 1320 QCURVE SMOOTH",
"396 1320 OFFCURVE",
"320 1342 QCURVE",
"232 1056 LINE",
"246 1042 OFFCURVE",
"272 1042 QCURVE SMOOTH",
"288 1042 OFFCURVE",
"292 1052 QCURVE SMOOTH",
"342 1164 OFFCURVE",
"430 1230 OFFCURVE",
"536 1230 QCURVE SMOOTH",
"632 1230 OFFCURVE",
"724 1216 OFFCURVE",
"734 1202 OFFCURVE",
"734 1188 QCURVE SMOOTH",
"734 1132 OFFCURVE",
"708 994 QCURVE SMOOTH",
"570 284 LINE SMOOTH",
"548 160 OFFCURVE"
);
}
);
width = 1202;
}
);
note = T;
unicode = 0054;
},
{
glyphname = U;
layers = (
{
layerId = "982A60EF-513A-498E-AE80-A9982858EA0F";
paths = (
{
closed = 1;
nodes = (
"240 486 OFFCURVE",
"240 412 QCURVE SMOOTH",
"240 212 OFFCURVE",
"434 0 OFFCURVE",
"608 0 QCURVE SMOOTH",
"852 0 OFFCURVE",
"1112 234 OFFCURVE",
"1174 552 QCURVE SMOOTH",
"1264 1020 LINE SMOOTH",
"1302 1196 OFFCURVE",
"1318 1216 QCURVE SMOOTH",
"1328 1230 OFFCURVE",
"1452 1262 OFFCURVE",
"1468 1262 QCURVE SMOOTH",
"1482 1262 OFFCURVE",
"1482 1316 QCURVE",
"1456 1314 OFFCURVE",
"1376 1308 OFFCURVE",
"1306 1304 OFFCURVE",
"1268 1304 QCURVE SMOOTH",
"1220 1304 OFFCURVE",
"1076 1314 OFFCURVE",
"1052 1316 QCURVE",
"1038 1306 OFFCURVE",
"1038 1274 QCURVE SMOOTH",
"1038 1262 OFFCURVE",
"1042 1262 QCURVE SMOOTH",
"1076 1262 OFFCURVE",
"1192 1228 OFFCURVE",
"1192 1204 QCURVE SMOOTH",
"1192 1164 OFFCURVE",
"1168 1024 QCURVE SMOOTH",
"1080 548 LINE SMOOTH",
"996 98 OFFCURVE",
"670 98 QCURVE SMOOTH",
"540 98 OFFCURVE",
"408 272 OFFCURVE",
"408 426 QCURVE SMOOTH",
"408 508 OFFCURVE",
"424 596 QCURVE SMOOTH",
"506 1030 LINE SMOOTH",
"532 1160 OFFCURVE",
"558 1216 QCURVE SMOOTH",
"564 1230 OFFCURVE",
"666 1262 OFFCURVE",
"682 1262 QCURVE SMOOTH",
"696 1262 OFFCURVE",
"696 1310 QCURVE SMOOTH",
"696 1316 LINE",
"682 1316 OFFCURVE",
"532 1304 OFFCURVE",
"484 1304 QCURVE SMOOTH",
"434 1304 OFFCURVE",
"292 1314 OFFCURVE",
"268 1316 QCURVE",
"252 1300 OFFCURVE",
"252 1272 QCURVE SMOOTH",
"252 1262 OFFCURVE",
"256 1262 QCURVE SMOOTH",
"282 1262 OFFCURVE",
"368 1230 OFFCURVE",
"368 1208 QCURVE SMOOTH",
"368 1138 OFFCURVE",
"346 1024 QCURVE SMOOTH",
"268 624 LINE SMOOTH"
);
}
);
width = 1262;
}
);
note = U;
unicode = 0055;
},
{
glyphname = V;
layers = (
{
layerId = "982A60EF-513A-498E-AE80-A9982858EA0F";
paths = (
{
closed = 1;
nodes = (
"254 1316 QCURVE",
"240 1306 OFFCURVE",
"240 1272 QCURVE SMOOTH",
"240 1262 OFFCURVE",
"244 1262 QCURVE SMOOTH",
"266 1262 OFFCURVE",
"336 1234 OFFCURVE",
"346 1212 QCURVE SMOOTH",
"364 1170 OFFCURVE",
"376 1102 QCURVE SMOOTH",
"574 -16 LINE",
"582 -28 OFFCURVE",
"592 -28 QCURVE SMOOTH",
"630 -28 OFFCURVE",
"668 38 QCURVE SMOOTH",
"1320 1158 LINE SMOOTH",
"1350 1210 OFFCURVE",
"1446 1262 OFFCURVE",
"1484 1262 QCURVE SMOOTH",
"1496 1262 OFFCURVE",
"1500 1304 QCURVE",
"1500 1316 LINE",
"1348 1308 OFFCURVE",
"1302 1308 QCURVE SMOOTH",
"1260 1308 OFFCURVE",
"1116 1316 QCURVE",
"1102 1306 OFFCURVE",
"1102 1272 QCURVE SMOOTH",
"1102 1262 OFFCURVE",
"1106 1262 QCURVE SMOOTH",
"1146 1262 OFFCURVE",
"1214 1230 OFFCURVE",
"1214 1204 QCURVE SMOOTH",
"1214 1150 OFFCURVE",
"1190 1108 QCURVE SMOOTH",
"710 286 LINE",
"556 1124 LINE SMOOTH",
"548 1162 OFFCURVE",
"548 1188 QCURVE SMOOTH",
"548 1228 OFFCURVE",
"598 1262 OFFCURVE",
"668 1262 QCURVE SMOOTH",
"682 1262 OFFCURVE",
"682 1310 QCURVE SMOOTH",
"682 1316 OFFCURVE",
"682 1316 QCURVE",
"530 1308 OFFCURVE",
"464 1308 QCURVE SMOOTH",
"418 1308 OFFCURVE"
);
}
);
width = 1280;
}
);
note = V;
unicode = 0056;
},
{
glyphname = W;
layers = (
{
layerId = "982A60EF-513A-498E-AE80-A9982858EA0F";
paths = (
{
closed = 1;
nodes = (
"270 1314 OFFCURVE",
"240 1316 QCURVE",
"226 1306 OFFCURVE",
"226 1272 QCURVE SMOOTH",
"226 1262 OFFCURVE",
"230 1262 QCURVE SMOOTH",
"250 1262 OFFCURVE",
"316 1232 OFFCURVE",
"326 1212 QCURVE SMOOTH",
"362 1140 OFFCURVE",
"396 1020 QCURVE SMOOTH",
"680 -16 LINE",
"686 -26 OFFCURVE",
"696 -26 QCURVE SMOOTH",
"738 -26 OFFCURVE",
"780 38 QCURVE SMOOTH",
"1072 490 LINE",
"1212 -16 LINE",
"1216 -26 OFFCURVE",
"1228 -26 QCURVE SMOOTH",
"1276 -26 OFFCURVE",
"1314 38 QCURVE SMOOTH",
"1876 996 LINE SMOOTH",
"1950 1120 OFFCURVE",
"2016 1196 QCURVE SMOOTH",
"2032 1214 OFFCURVE",
"2130 1262 OFFCURVE",
"2162 1262 QCURVE SMOOTH",
"2176 1262 OFFCURVE",
"2176 1316 QCURVE",
"2158 1316 OFFCURVE",
"2032 1304 OFFCURVE",
"1976 1304 QCURVE SMOOTH",
"1960 1304 OFFCURVE",
"1786 1316 QCURVE",
"1772 1306 OFFCURVE",
"1772 1272 QCURVE SMOOTH",
"1772 1262 OFFCURVE",
"1776 1262 QCURVE SMOOTH",
"1798 1262 OFFCURVE",
"1868 1224 OFFCURVE",
"1868 1186 QCURVE SMOOTH",
"1868 1156 OFFCURVE",
"1818 1068 QCURVE SMOOTH",
"1332 212 LINE",
"1196 688 LINE",
"1396 996 LINE SMOOTH",
"1498 1154 OFFCURVE",
"1536 1196 QCURVE SMOOTH",
"1552 1214 OFFCURVE",
"1650 1262 OFFCURVE",
"1682 1262 QCURVE SMOOTH",
"1696 1262 OFFCURVE",
"1696 1316 QCURVE",
"1678 1316 OFFCURVE",
"1552 1304 OFFCURVE",
"1496 1304 QCURVE SMOOTH",
"1480 1304 OFFCURVE",
"1306 1316 QCURVE",
"1292 1306 OFFCURVE",
"1292 1272 QCURVE SMOOTH",
"1292 1262 OFFCURVE",
"1296 1262 QCURVE SMOOTH",
"1318 1262 OFFCURVE",
"1388 1224 OFFCURVE",
"1388 1186 QCURVE SMOOTH",
"1388 1150 OFFCURVE",
"1338 1068 QCURVE SMOOTH",
"1168 792 LINE",
"1078 1114 LINE SMOOTH",
"1066 1162 OFFCURVE",
"1066 1188 QCURVE SMOOTH",
"1066 1218 OFFCURVE",
"1120 1262 OFFCURVE",
"1168 1262 QCURVE SMOOTH",
"1174 1262 OFFCURVE",
"1184 1296 OFFCURVE",
"1184 1310 QCURVE SMOOTH",
"1184 1316 LINE",
"1164 1314 OFFCURVE",
"1032 1304 OFFCURVE",
"984 1304 QCURVE SMOOTH",
"934 1304 OFFCURVE",
"798 1314 OFFCURVE",
"772 1316 QCURVE",
"756 1304 OFFCURVE",
"756 1272 QCURVE SMOOTH",
"756 1262 OFFCURVE",
"760 1262 QCURVE SMOOTH",
"780 1262 OFFCURVE",
"846 1232 OFFCURVE",
"858 1212 QCURVE SMOOTH",
"880 1176 OFFCURVE",
"896 1120 QCURVE SMOOTH",
"1044 590 LINE",
"802 224 LINE",
"548 1114 LINE SMOOTH",
"534 1170 OFFCURVE",
"534 1188 QCURVE SMOOTH",
"534 1218 OFFCURVE",
"590 1262 OFFCURVE",
"638 1262 QCURVE SMOOTH",
"652 1262 OFFCURVE",
"652 1310 QCURVE SMOOTH",
"652 1316 LINE",
"626 1314 OFFCURVE",
"544 1308 OFFCURVE",
"472 1304 OFFCURVE",
"436 1304 QCURVE SMOOTH",
"388 1304 OFFCURVE"
);
}
);
width = 1946;
}
);
note = W;
unicode = 0057;
},
{
glyphname = X;
layers = (
{
layerId = "982A60EF-513A-498E-AE80-A9982858EA0F";
paths = (
{
closed = 1;
nodes = (
"368 1314 OFFCURVE",
"344 1316 QCURVE",
"330 1306 OFFCURVE",
"330 1272 QCURVE SMOOTH",
"330 1262 OFFCURVE",
"334 1262 QCURVE SMOOTH",
"352 1262 OFFCURVE",
"428 1234 OFFCURVE",
"446 1218 QCURVE SMOOTH",
"484 1186 OFFCURVE",
"520 1126 OFFCURVE",
"556 1040 QCURVE SMOOTH",
"712 672 LINE",
"712 666 OFFCURVE",
"210 108 QCURVE SMOOTH",
"188 84 OFFCURVE",
"100 54 OFFCURVE",
"46 48 OFFCURVE",
"30 48 QCURVE SMOOTH",
"20 48 OFFCURVE",
"20 2 QCURVE SMOOTH",
"20 -4 OFFCURVE",
"22 -6 QCURVE",
"60 -4 OFFCURVE",
"254 -4 QCURVE SMOOTH",
"426 -4 OFFCURVE",
"460 -6 QCURVE",
"470 4 OFFCURVE",
"470 30 QCURVE SMOOTH",
"470 48 OFFCURVE",
"462 48 QCURVE SMOOTH",
"352 48 OFFCURVE",
"352 108 QCURVE SMOOTH",
"352 124 OFFCURVE",
"550 360 OFFCURVE",
"746 582 OFFCURVE",
"750 582 OFFCURVE",
"932 148 QCURVE SMOOTH",
"936 138 OFFCURVE",
"936 112 QCURVE SMOOTH",
"936 84 OFFCURVE",
"850 48 OFFCURVE",
"826 48 QCURVE SMOOTH",
"812 48 OFFCURVE",
"812 10 QCURVE SMOOTH",
"812 -2 OFFCURVE",
"816 -6 QCURVE",
"1080 4 OFFCURVE",
"1084 4 QCURVE SMOOTH",
"1120 4 OFFCURVE",
"1306 -6 QCURVE",
"1312 6 OFFCURVE",
"1312 38 QCURVE SMOOTH",
"1312 48 OFFCURVE",
"1308 48 QCURVE SMOOTH",
"1278 48 OFFCURVE",
"1156 90 OFFCURVE",
"1128 138 QCURVE SMOOTH",
"1112 166 OFFCURVE",
"988 452 OFFCURVE",
"880 708 OFFCURVE",
"880 710 QCURVE SMOOTH",
"880 714 OFFCURVE",
"1318 1200 QCURVE SMOOTH",
"1342 1226 OFFCURVE",
"1486 1262 OFFCURVE",
"1510 1262 QCURVE SMOOTH",
"1524 1262 OFFCURVE",
"1524 1310 QCURVE SMOOTH",
"1524 1316 LINE",
"1498 1314 OFFCURVE",
"1418 1308 OFFCURVE",
"1344 1304 OFFCURVE",
"1302 1304 QCURVE SMOOTH",
"1284 1304 OFFCURVE",
"1080 1316 QCURVE",
"1066 1306 OFFCURVE",
"1066 1272 QCURVE SMOOTH",
"1066 1262 OFFCURVE",
"1070 1262 QCURVE SMOOTH",
"1110 1262 OFFCURVE",
"1186 1226 OFFCURVE",
"1186 1200 QCURVE SMOOTH",
"1186 1178 OFFCURVE",
"1016 978 OFFCURVE",
"848 798 OFFCURVE",
"844 798 QCURVE SMOOTH",
"842 798 OFFCURVE",
"694 1134 QCURVE SMOOTH",
"684 1160 OFFCURVE",
"684 1182 QCURVE SMOOTH",
"684 1210 OFFCURVE",
"744 1250 OFFCURVE",
"796 1262 OFFCURVE",
"812 1262 QCURVE SMOOTH",
"824 1262 OFFCURVE",
"824 1308 QCURVE SMOOTH",
"824 1316 LINE",
"596 1304 OFFCURVE",
"578 1304 QCURVE SMOOTH",
"524 1304 OFFCURVE"
);
}
);
width = 1312;
}
);
note = X;
unicode = 0058;
},
{
glyphname = Y;
layers = (
{
layerId = "982A60EF-513A-498E-AE80-A9982858EA0F";
paths = (
{
closed = 1;
nodes = (
"278 1314 OFFCURVE",
"254 1316 QCURVE",
"240 1306 OFFCURVE",
"240 1272 QCURVE SMOOTH",
"240 1262 OFFCURVE",
"244 1262 QCURVE SMOOTH",
"260 1262 OFFCURVE",
"336 1232 OFFCURVE",
"356 1218 QCURVE SMOOTH",
"404 1182 OFFCURVE",
"434 1090 QCURVE SMOOTH",
"476 960 LINE SMOOTH",
"520 830 OFFCURVE",
"604 564 OFFCURVE",
"602 556 QCURVE SMOOTH",
"550 272 LINE SMOOTH",
"524 134 OFFCURVE",
"500 92 QCURVE SMOOTH",
"490 76 OFFCURVE",
"394 48 OFFCURVE",
"372 48 QCURVE SMOOTH",
"358 48 OFFCURVE",
"358 8 QCURVE SMOOTH",
"358 -4 OFFCURVE",
"360 -6 QCURVE",
"576 4 OFFCURVE",
"582 4 QCURVE SMOOTH",
"604 4 OFFCURVE",
"790 -6 QCURVE",
"802 18 OFFCURVE",
"802 40 QCURVE SMOOTH",
"802 48 OFFCURVE",
"798 48 QCURVE",
"772 52 LINE SMOOTH",
"744 56 OFFCURVE",
"690 82 OFFCURVE",
"690 98 QCURVE SMOOTH",
"690 168 OFFCURVE",
"712 278 QCURVE SMOOTH",
"768 570 LINE SMOOTH",
"772 590 OFFCURVE",
"1206 1176 OFFCURVE",
"1254 1224 OFFCURVE",
"1372 1262 OFFCURVE",
"1392 1262 QCURVE SMOOTH",
"1406 1262 OFFCURVE",
"1406 1306 QCURVE SMOOTH",
"1406 1312 OFFCURVE",
"1404 1316 QCURVE",
"1176 1304 OFFCURVE",
"1166 1304 QCURVE SMOOTH",
"1126 1304 OFFCURVE",
"998 1316 OFFCURVE",
"982 1316 QCURVE",
"968 1306 OFFCURVE",
"968 1274 QCURVE SMOOTH",
"968 1262 OFFCURVE",
"972 1262 QCURVE SMOOTH",
"1012 1262 OFFCURVE",
"1094 1226 OFFCURVE",
"1096 1200 QCURVE SMOOTH",
"1096 1190 OFFCURVE",
"1056 1126 OFFCURVE",
"968 1006 OFFCURVE",
"898 912 OFFCURVE",
"768 744 OFFCURVE",
"742 710 QCURVE",
"604 1134 LINE SMOOTH",
"596 1158 OFFCURVE",
"596 1178 QCURVE SMOOTH",
"596 1220 OFFCURVE",
"692 1262 OFFCURVE",
"722 1262 QCURVE SMOOTH",
"736 1262 OFFCURVE",
"736 1306 QCURVE SMOOTH",
"736 1316 LINE",
"508 1304 OFFCURVE",
"488 1304 QCURVE SMOOTH",
"434 1304 OFFCURVE"
);
}
);
width = 1186;
}
);
note = Y;
unicode = 0059;
},
{
glyphname = Z;
layers = (
{
layerId = "982A60EF-513A-498E-AE80-A9982858EA0F";
paths = (
{
closed = 1;
nodes = (
"370 1324 OFFCURVE",
"352 1330 QCURVE",
"266 1048 OFFCURVE",
"240 978 QCURVE",
"258 960 OFFCURVE",
"294 960 QCURVE SMOOTH",
"308 960 OFFCURVE",
"314 968 QCURVE",
"378 1108 OFFCURVE",
"490 1212 OFFCURVE",
"618 1214 QCURVE SMOOTH",
"620 1214 OFFCURVE",
"664 1214 OFFCURVE",
"736 1216 OFFCURVE",
"816 1216 OFFCURVE",
"902 1216 OFFCURVE",
"934 1216 QCURVE SMOOTH",
"1020 1216 LINE",
"88 86 LINE SMOOTH",
"72 66 OFFCURVE",
"72 34 QCURVE SMOOTH",
"72 14 OFFCURVE",
"80 0 QCURVE",
"1002 0 LINE",
"1046 136 OFFCURVE",
"1116 308 QCURVE",
"1108 320 OFFCURVE",
"1088 320 QCURVE SMOOTH",
"1040 320 OFFCURVE",
"1034 304 QCURVE",
"1034 302 OFFCURVE",
"1014 260 OFFCURVE",
"1008 246 OFFCURVE",
"984 204 OFFCURVE",
"964 184 OFFCURVE",
"932 148 OFFCURVE",
"896 132 OFFCURVE",
"852 110 OFFCURVE",
"794 102 OFFCURVE",
"762 102 QCURVE SMOOTH",
"342 102 LINE SMOOTH",
"322 102 OFFCURVE",
"322 134 OFFCURVE",
"338 152 QCURVE SMOOTH",
"564 428 LINE SMOOTH",
"792 702 OFFCURVE",
"1248 1258 OFFCURVE",
"1250 1266 QCURVE SMOOTH",
"1252 1272 OFFCURVE",
"1248 1330 OFFCURVE",
"1244 1332 QCURVE",
"1192 1328 OFFCURVE",
"1078 1318 OFFCURVE",
"1026 1314 OFFCURVE",
"930 1310 OFFCURVE",
"862 1310 QCURVE SMOOTH",
"738 1310 OFFCURVE",
"646 1312 QCURVE SMOOTH",
"614 1312 OFFCURVE"
);
}
);
width = 1092;
}
);
note = Z;
unicode = 005A;
},
{
glyphname = bracketleft;
layers = (
{
layerId = "982A60EF-513A-498E-AE80-A9982858EA0F";
paths = (
{
closed = 1;
nodes = (
"298 1456 OFFCURVE",
"290 1438 OFFCURVE",
"290 1434 QCURVE",
"-18 -158 LINE",
"-18 -170 LINE SMOOTH",
"-18 -204 OFFCURVE",
"8 -204 QCURVE SMOOTH",
"160 -204 OFFCURVE",
"292 -228 QCURVE",
"296 -228 LINE",
"298 -226 OFFCURVE",
"306 -214 OFFCURVE",
"308 -204 QCURVE SMOOTH",
"310 -188 OFFCURVE",
"310 -170 OFFCURVE",
"304 -158 OFFCURVE",
"300 -152 OFFCURVE",
"296 -150 QCURVE SMOOTH",
"292 -148 LINE",
"268 -140 LINE SMOOTH",
"246 -132 OFFCURVE",
"156 -114 OFFCURVE",
"112 -114 QCURVE SMOOTH",
"100 -114 OFFCURVE",
"102 -98 QCURVE",
"390 1374 LINE",
"392 1378 LINE",
"392 1382 OFFCURVE",
"400 1390 OFFCURVE",
"406 1390 QCURVE SMOOTH",
"506 1390 OFFCURVE",
"598 1412 QCURVE",
"602 1416 LINE",
"606 1418 OFFCURVE",
"616 1426 OFFCURVE",
"630 1440 OFFCURVE",
"640 1456 OFFCURVE",
"646 1476 OFFCURVE",
"646 1486 QCURVE SMOOTH",
"646 1498 OFFCURVE",
"636 1498 QCURVE",
"532 1488 LINE SMOOTH",
"426 1480 OFFCURVE",
"336 1480 QCURVE SMOOTH",
"320 1480 OFFCURVE"
);
}
);
width = 614;
}
);
note = bracketleft;
unicode = 005B;
},
{
glyphname = backslash;
layers = (
{
layerId = "982A60EF-513A-498E-AE80-A9982858EA0F";
paths = (
{
closed = 1;
nodes = (
"12 1510 QCURVE",
"284 -74 LINE",
"330 -78 LINE",
"354 -76 OFFCURVE",
"388 -22 OFFCURVE",
"388 10 QCURVE SMOOTH",
"388 20 OFFCURVE",
"386 26 QCURVE",
"134 1478 LINE",
"130 1522 OFFCURVE",
"52 1522 QCURVE SMOOTH",
"36 1522 OFFCURVE"
);
}
);
width = 424;
}
);
note = backslash;
unicode = 005C;
},
{
glyphname = bracketright;
layers = (
{
layerId = "982A60EF-513A-498E-AE80-A9982858EA0F";
paths = (
{
closed = 1;
nodes = (
"284 1456 QCURVE SMOOTH",
"284 1436 OFFCURVE",
"308 1412 QCURVE",
"332 1406 LINE SMOOTH",
"356 1400 OFFCURVE",
"448 1390 OFFCURVE",
"492 1390 QCURVE SMOOTH",
"504 1390 OFFCURVE",
"502 1374 QCURVE",
"216 -98 LINE",
"214 -102 LINE SMOOTH",
"212 -106 OFFCURVE",
"204 -114 OFFCURVE",
"198 -114 QCURVE SMOOTH",
"104 -114 OFFCURVE",
"6 -148 QCURVE",
"-34 -188 OFFCURVE",
"-34 -210 QCURVE SMOOTH",
"-34 -222 OFFCURVE",
"-26 -228 QCURVE",
"14 -222 LINE SMOOTH",
"54 -216 OFFCURVE",
"200 -204 OFFCURVE",
"268 -204 QCURVE SMOOTH",
"284 -204 OFFCURVE",
"306 -180 OFFCURVE",
"312 -162 OFFCURVE",
"312 -158 QCURVE",
"620 1434 LINE",
"622 1440 OFFCURVE",
"622 1450 QCURVE SMOOTH",
"622 1480 OFFCURVE",
"596 1480 QCURVE SMOOTH",
"552 1480 OFFCURVE",
"462 1484 OFFCURVE",
"390 1488 OFFCURVE",
"334 1494 OFFCURVE",
"316 1496 QCURVE SMOOTH",
"300 1498 OFFCURVE",
"300 1498 QCURVE",
"284 1498 OFFCURVE"
);
}
);
width = 598;
}
);
note = bracketright;
unicode = 005D;
},
{
glyphname = asciicircum;
layers = (
{
layerId = "982A60EF-513A-498E-AE80-A9982858EA0F";
paths = (
{
closed = 1;
nodes = (
"42 950 QCURVE SMOOTH",
"62 950 OFFCURVE",
"278 1116 OFFCURVE",
"344 1194 QCURVE",
"376 1136 OFFCURVE",
"530 950 OFFCURVE",
"558 950 QCURVE SMOOTH",
"568 950 OFFCURVE",
"588 984 OFFCURVE",
"592 1000 QCURVE",
"592 1004 OFFCURVE",
"546 1066 OFFCURVE",
"486 1150 OFFCURVE",
"474 1176 QCURVE SMOOTH",
"442 1242 OFFCURVE",
"404 1354 OFFCURVE",
"392 1380 OFFCURVE",
"372 1380 QCURVE SMOOTH",
"368 1380 OFFCURVE",
"362 1378 OFFCURVE",
"358 1374 OFFCURVE",
"356 1370 OFFCURVE",
"350 1358 OFFCURVE",
"348 1354 QCURVE SMOOTH",
"286 1256 OFFCURVE",
"134 1092 OFFCURVE",
"30 1006 OFFCURVE",
"26 998 QCURVE",
"26 950 OFFCURVE"
);
}
);
width = 606;
}
);
note = asciicircum;
unicode = 005E;
},
{
glyphname = underscore;
layers = (
{
layerId = "982A60EF-513A-498E-AE80-A9982858EA0F";
paths = (
{
closed = 1;
nodes = (
"28 -86 QCURVE SMOOTH",
"858 -86 LINE",
"870 -74 OFFCURVE",
"870 -74 QCURVE",
"906 6 OFFCURVE",
"906 18 QCURVE SMOOTH",
"906 26 OFFCURVE",
"894 26 QCURVE SMOOTH",
"66 26 LINE SMOOTH",
"56 26 OFFCURVE",
"18 -64 OFFCURVE",
"18 -74 QCURVE SMOOTH",
"18 -86 OFFCURVE"
);
}
);
width = 970;
}
);
note = underscore;
unicode = 005F;
},
{
glyphname = grave;
layers = (
{
layerId = "982A60EF-513A-498E-AE80-A9982858EA0F";
paths = (
{
closed = 1;
nodes = (
"254 1054 OFFCURVE",
"276 1054 QCURVE SMOOTH",
"286 1054 OFFCURVE",
"304 1074 OFFCURVE",
"304 1084 QCURVE",
"286 1132 LINE SMOOTH",
"268 1182 OFFCURVE",
"208 1318 OFFCURVE",
"184 1356 QCURVE SMOOTH",
"174 1374 OFFCURVE",
"124 1374 QCURVE SMOOTH",
"92 1374 OFFCURVE",
"50 1350 OFFCURVE",
"40 1328 OFFCURVE",
"40 1318 QCURVE SMOOTH",
"40 1264 OFFCURVE"
);
}
);
width = 324;
}
);
note = grave;
unicode = 0060;
},
{
glyphname = a;
layers = (
{
layerId = "982A60EF-513A-498E-AE80-A9982858EA0F";
paths = (
{
closed = 1;
nodes = (
"300 688 OFFCURVE",
"130 402 OFFCURVE",
"130 260 QCURVE SMOOTH",
"130 148 OFFCURVE",
"232 -10 OFFCURVE",
"320 -10 QCURVE SMOOTH",
"360 -10 OFFCURVE",
"450 48 OFFCURVE",
"530 140 OFFCURVE",
"582 214 OFFCURVE",
"602 250 QCURVE",
"602 246 OFFCURVE",
"596 220 OFFCURVE",
"592 198 QCURVE SMOOTH",
"578 126 OFFCURVE",
"578 92 QCURVE SMOOTH",
"578 46 OFFCURVE",
"614 -12 OFFCURVE",
"646 -12 QCURVE SMOOTH",
"708 -12 OFFCURVE",
"872 132 OFFCURVE",
"898 176 QCURVE",
"898 184 OFFCURVE",
"876 222 OFFCURVE",
"872 222 QCURVE",
"860 208 LINE SMOOTH",
"848 196 OFFCURVE",
"820 166 OFFCURVE",
"786 134 OFFCURVE",
"752 112 OFFCURVE",
"740 112 QCURVE SMOOTH",
"720 112 OFFCURVE",
"720 162 QCURVE SMOOTH",
"720 188 OFFCURVE",
"726 212 QCURVE",
"848 844 LINE",
"778 870 OFFCURVE",
"702 870 QCURVE SMOOTH",
"568 870 OFFCURVE"
);
},
{
closed = 1;
nodes = (
"700 752 QCURVE",
"660 548 LINE SMOOTH",
"630 398 OFFCURVE",
"452 106 OFFCURVE",
"380 106 QCURVE SMOOTH",
"278 106 OFFCURVE",
"278 302 QCURVE SMOOTH",
"278 472 OFFCURVE",
"500 778 OFFCURVE",
"618 778 QCURVE SMOOTH",
"676 778 OFFCURVE"
);
}
);
width = 880;
}
);
note = a;
unicode = 0061;
},
{
glyphname = b;
layers = (
{
layerId = "982A60EF-513A-498E-AE80-A9982858EA0F";
paths = (
{
closed = 1;
nodes = (
"554 840 OFFCURVE",
"414 712 OFFCURVE",
"350 606 QCURVE",
"468 1182 LINE SMOOTH",
"494 1308 OFFCURVE",
"494 1332 QCURVE SMOOTH",
"494 1364 OFFCURVE",
"482 1370 QCURVE",
"360 1326 OFFCURVE",
"230 1314 QCURVE",
"214 1298 OFFCURVE",
"214 1274 QCURVE SMOOTH",
"214 1262 OFFCURVE",
"220 1262 QCURVE SMOOTH",
"342 1262 OFFCURVE",
"342 1224 QCURVE SMOOTH",
"342 1200 OFFCURVE",
"324 1118 QCURVE SMOOTH",
"158 274 LINE SMOOTH",
"152 238 OFFCURVE",
"152 208 QCURVE SMOOTH",
"152 102 OFFCURVE",
"274 -12 OFFCURVE",
"350 -12 QCURVE SMOOTH",
"522 -12 OFFCURVE",
"834 352 OFFCURVE",
"834 608 QCURVE SMOOTH",
"834 714 OFFCURVE",
"744 870 OFFCURVE",
"656 870 QCURVE SMOOTH",
"630 870 OFFCURVE"
);
},
{
closed = 1;
nodes = (
"668 722 OFFCURVE",
"682 650 OFFCURVE",
"686 598 OFFCURVE",
"686 560 QCURVE SMOOTH",
"686 450 OFFCURVE",
"612 224 OFFCURVE",
"478 70 OFFCURVE",
"402 70 QCURVE SMOOTH",
"332 70 OFFCURVE",
"276 202 OFFCURVE",
"298 312 QCURVE SMOOTH",
"314 398 OFFCURVE",
"426 610 OFFCURVE",
"556 760 OFFCURVE",
"598 760 QCURVE SMOOTH",
"628 760 OFFCURVE"
);
}
);
width = 788;
}
);
note = b;
unicode = 0062;
},
{
glyphname = c;
layers = (
{
layerId = "982A60EF-513A-498E-AE80-A9982858EA0F";
paths = (
{
closed = 1;
nodes = (
"136 484 OFFCURVE",
"136 292 QCURVE SMOOTH",
"136 150 OFFCURVE",
"246 -12 OFFCURVE",
"350 -12 QCURVE SMOOTH",
"432 -12 OFFCURVE",
"600 128 OFFCURVE",
"628 176 QCURVE",
"628 184 OFFCURVE",
"606 222 OFFCURVE",
"602 222 QCURVE",
"596 216 LINE SMOOTH",
"592 212 OFFCURVE",
"582 200 OFFCURVE",
"564 182 OFFCURVE",
"542 166 OFFCURVE",
"518 146 OFFCURVE",
"490 132 OFFCURVE",
"462 120 OFFCURVE",
"432 112 OFFCURVE",
"416 112 QCURVE SMOOTH",
"284 112 OFFCURVE",
"284 324 QCURVE SMOOTH",
"284 510 OFFCURVE",
"470 788 OFFCURVE",
"556 788 QCURVE SMOOTH",
"590 788 OFFCURVE",
"658 676 OFFCURVE",
"722 676 OFFCURVE",
"760 724 OFFCURVE",
"760 762 QCURVE SMOOTH",
"760 778 OFFCURVE",
"754 802 QCURVE",
"674 870 OFFCURVE",
"580 870 QCURVE SMOOTH",
"428 870 OFFCURVE"
);
}
);
width = 652;
}
);
note = c;
unicode = 0063;
},
{
glyphname = d;
layers = (
{
layerId = "982A60EF-513A-498E-AE80-A9982858EA0F";
paths = (
{
closed = 1;
nodes = (
"146 476 OFFCURVE",
"146 260 QCURVE SMOOTH",
"146 148 OFFCURVE",
"246 -10 OFFCURVE",
"338 -10 QCURVE SMOOTH",
"392 -10 OFFCURVE",
"524 106 OFFCURVE",
"594 206 OFFCURVE",
"620 252 QCURVE",
"620 246 OFFCURVE",
"616 236 OFFCURVE",
"612 214 OFFCURVE",
"608 198 QCURVE SMOOTH",
"594 124 OFFCURVE",
"594 92 QCURVE SMOOTH",
"594 46 OFFCURVE",
"630 -12 OFFCURVE",
"662 -12 QCURVE SMOOTH",
"724 -12 OFFCURVE",
"888 132 OFFCURVE",
"914 176 QCURVE",
"914 184 OFFCURVE",
"892 222 OFFCURVE",
"888 222 QCURVE",
"876 208 LINE SMOOTH",
"864 196 OFFCURVE",
"836 166 OFFCURVE",
"802 134 OFFCURVE",
"768 112 OFFCURVE",
"756 112 QCURVE SMOOTH",
"736 112 OFFCURVE",
"736 162 QCURVE SMOOTH",
"736 188 OFFCURVE",
"742 212 QCURVE",
"930 1182 LINE",
"960 1332 LINE",
"960 1362 OFFCURVE",
"948 1370 QCURVE",
"828 1326 OFFCURVE",
"690 1314 QCURVE",
"674 1298 OFFCURVE",
"674 1274 QCURVE SMOOTH",
"674 1262 OFFCURVE",
"680 1262 QCURVE SMOOTH",
"802 1262 OFFCURVE",
"802 1224 QCURVE SMOOTH",
"802 1196 OFFCURVE",
"796 1168 QCURVE SMOOTH",
"740 870 LINE",
"724 870 LINE SMOOTH",
"764 870 OFFCURVE",
"714 870 QCURVE SMOOTH",
"514 870 OFFCURVE"
);
},
{
closed = 1;
nodes = (
"646 400 OFFCURVE",
"470 106 OFFCURVE",
"396 106 QCURVE SMOOTH",
"294 106 OFFCURVE",
"294 300 QCURVE SMOOTH",
"294 472 OFFCURVE",
"516 778 OFFCURVE",
"638 778 QCURVE SMOOTH",
"676 778 OFFCURVE",
"708 720 OFFCURVE",
"700 682 QCURVE SMOOTH",
"676 552 LINE SMOOTH"
);
}
);
width = 926;
}
);
note = d;
unicode = 0064;
},
{
glyphname = e;
layers = (
{
layerId = "982A60EF-513A-498E-AE80-A9982858EA0F";
paths = (
{
closed = 1;
nodes = (
"140 484 OFFCURVE",
"140 292 QCURVE SMOOTH",
"140 150 OFFCURVE",
"250 -12 OFFCURVE",
"354 -12 QCURVE SMOOTH",
"436 -12 OFFCURVE",
"604 128 OFFCURVE",
"632 176 QCURVE",
"632 184 OFFCURVE",
"610 222 OFFCURVE",
"606 222 QCURVE",
"600 216 LINE SMOOTH",
"596 212 OFFCURVE",
"586 200 OFFCURVE",
"568 182 OFFCURVE",
"546 166 OFFCURVE",
"522 146 OFFCURVE",
"494 132 OFFCURVE",
"466 120 OFFCURVE",
"436 112 OFFCURVE",
"420 112 QCURVE SMOOTH",
"360 112 OFFCURVE",
"290 206 OFFCURVE",
"290 296 QCURVE SMOOTH",
"290 366 OFFCURVE",
"298 366 QCURVE SMOOTH",
"364 366 OFFCURVE",
"578 460 OFFCURVE",
"758 632 OFFCURVE",
"758 720 QCURVE SMOOTH",
"758 776 OFFCURVE",
"676 870 OFFCURVE",
"584 870 QCURVE SMOOTH",
"432 870 OFFCURVE"
);
},
{
closed = 1;
nodes = (
"614 728 QCURVE SMOOTH",
"614 628 OFFCURVE",
"384 436 OFFCURVE",
"312 436 QCURVE SMOOTH",
"304 436 OFFCURVE",
"304 444 QCURVE SMOOTH",
"304 518 OFFCURVE",
"470 788 OFFCURVE",
"564 788 QCURVE SMOOTH",
"614 788 OFFCURVE"
);
}
);
width = 718;
}
);
note = e;
unicode = 0065;
},
{
glyphname = f;
layers = (
{
layerId = "982A60EF-513A-498E-AE80-A9982858EA0F";
paths = (
{
closed = 1;
nodes = (
"394 1078 OFFCURVE",
"354 832 QCURVE SMOOTH",
"350 814 OFFCURVE",
"342 814 QCURVE SMOOTH",
"284 814 LINE SMOOTH",
"252 814 OFFCURVE",
"188 746 OFFCURVE",
"188 728 QCURVE SMOOTH",
"188 722 OFFCURVE",
"192 722 QCURVE SMOOTH",
"322 722 LINE SMOOTH",
"328 722 OFFCURVE",
"328 712 QCURVE SMOOTH",
"328 708 LINE",
"208 30 LINE SMOOTH",
"200 -20 OFFCURVE",
"162 -148 OFFCURVE",
"108 -290 OFFCURVE",
"32 -384 OFFCURVE",
"-6 -384 QCURVE SMOOTH",
"-34 -384 OFFCURVE",
"-80 -346 OFFCURVE",
"-104 -300 OFFCURVE",
"-136 -262 OFFCURVE",
"-154 -262 QCURVE SMOOTH",
"-190 -262 OFFCURVE",
"-238 -334 OFFCURVE",
"-236 -380 QCURVE",
"-224 -412 OFFCURVE",
"-144 -462 OFFCURVE",
"-74 -462 QCURVE SMOOTH",
"68 -462 OFFCURVE",
"310 -170 OFFCURVE",
"358 108 QCURVE SMOOTH",
"468 706 LINE SMOOTH",
"470 722 OFFCURVE",
"480 722 QCURVE SMOOTH",
"714 722 LINE",
"736 758 OFFCURVE",
"736 790 QCURVE SMOOTH",
"736 814 OFFCURVE",
"726 814 QCURVE SMOOTH",
"496 814 LINE SMOOTH",
"490 814 OFFCURVE",
"490 822 QCURVE SMOOTH",
"490 826 LINE",
"530 1060 OFFCURVE",
"674 1322 OFFCURVE",
"738 1322 QCURVE SMOOTH",
"770 1322 OFFCURVE",
"824 1260 OFFCURVE",
"874 1200 OFFCURVE",
"902 1200 QCURVE SMOOTH",
"974 1200 OFFCURVE",
"974 1330 QCURVE",
"938 1398 OFFCURVE",
"810 1398 QCURVE SMOOTH",
"658 1398 OFFCURVE"
);
}
);
width = 608;
}
);
note = f;
unicode = 0066;
},
{
glyphname = g;
layers = (
{
layerId = "982A60EF-513A-498E-AE80-A9982858EA0F";
paths = (
{
closed = 1;
nodes = (
"538 -380 OFFCURVE",
"440 -380 QCURVE SMOOTH",
"178 -380 OFFCURVE",
"178 -220 QCURVE SMOOTH",
"178 -188 OFFCURVE",
"212 -128 OFFCURVE",
"250 -92 OFFCURVE",
"330 -48 OFFCURVE",
"364 -32 OFFCURVE",
"402 -16 QCURVE",
"458 -34 OFFCURVE",
"536 -64 OFFCURVE",
"632 -118 OFFCURVE",
"682 -192 OFFCURVE",
"682 -236 QCURVE SMOOTH",
"682 -298 OFFCURVE"
);
},
{
closed = 1;
nodes = (
"672 668 OFFCURVE",
"672 588 QCURVE SMOOTH",
"672 488 OFFCURVE",
"562 312 OFFCURVE",
"478 312 QCURVE SMOOTH",
"420 312 OFFCURVE",
"356 416 OFFCURVE",
"356 494 QCURVE SMOOTH",
"356 606 OFFCURVE",
"466 796 OFFCURVE",
"552 796 QCURVE SMOOTH",
"608 796 OFFCURVE"
);
},
{
closed = 1;
nodes = (
"206 630 OFFCURVE",
"206 462 QCURVE SMOOTH",
"206 390 OFFCURVE",
"296 284 OFFCURVE",
"394 244 OFFCURVE",
"432 244 QCURVE",
"374 230 OFFCURVE",
"232 142 OFFCURVE",
"232 108 QCURVE SMOOTH",
"232 70 OFFCURVE",
"282 36 QCURVE SMOOTH",
"318 12 LINE",
"264 -12 OFFCURVE",
"180 -60 OFFCURVE",
"82 -132 OFFCURVE",
"30 -222 OFFCURVE",
"30 -270 QCURVE SMOOTH",
"30 -362 OFFCURVE",
"204 -466 OFFCURVE",
"342 -466 QCURVE SMOOTH",
"556 -466 OFFCURVE",
"810 -298 OFFCURVE",
"810 -156 QCURVE SMOOTH",
"810 -92 OFFCURVE",
"732 8 OFFCURVE",
"620 64 OFFCURVE",
"506 102 OFFCURVE",
"428 136 OFFCURVE",
"428 154 QCURVE SMOOTH",
"428 174 OFFCURVE",
"496 220 OFFCURVE",
"618 278 OFFCURVE",
"638 290 QCURVE SMOOTH",
"662 304 OFFCURVE",
"708 344 OFFCURVE",
"778 424 OFFCURVE",
"820 550 OFFCURVE",
"820 624 QCURVE SMOOTH",
"820 656 OFFCURVE",
"808 728 QCURVE",
"808 740 OFFCURVE",
"820 740 QCURVE SMOOTH",
"932 740 LINE",
"940 748 OFFCURVE",
"954 788 OFFCURVE",
"954 802 QCURVE SMOOTH",
"954 818 OFFCURVE",
"942 818 QCURVE SMOOTH",
"856 818 LINE SMOOTH",
"788 818 OFFCURVE",
"644 872 OFFCURVE",
"584 872 QCURVE SMOOTH",
"440 872 OFFCURVE"
);
}
);
width = 876;
}
);
note = g;
unicode = 0067;
},
{
glyphname = h;
layers = (
{
layerId = "982A60EF-513A-498E-AE80-A9982858EA0F";
paths = (
{
closed = 1;
nodes = (
"508 688 OFFCURVE",
"374 512 OFFCURVE",
"354 476 QCURVE",
"390 660 LINE",
"492 1182 LINE SMOOTH",
"518 1316 OFFCURVE",
"518 1332 QCURVE SMOOTH",
"518 1364 OFFCURVE",
"506 1370 QCURVE",
"386 1326 OFFCURVE",
"254 1314 QCURVE",
"238 1298 OFFCURVE",
"238 1274 QCURVE SMOOTH",
"238 1262 OFFCURVE",
"244 1262 QCURVE SMOOTH",
"366 1262 OFFCURVE",
"366 1224 QCURVE SMOOTH",
"366 1206 OFFCURVE",
"348 1118 QCURVE SMOOTH",
"132 0 LINE",
"164 -8 OFFCURVE",
"236 -8 OFFCURVE",
"262 0 QCURVE",
"296 156 LINE SMOOTH",
"336 360 OFFCURVE",
"614 722 OFFCURVE",
"680 722 QCURVE SMOOTH",
"718 722 OFFCURVE",
"718 636 QCURVE SMOOTH",
"718 594 OFFCURVE",
"704 528 QCURVE SMOOTH",
"634 198 LINE SMOOTH",
"620 124 OFFCURVE",
"620 92 QCURVE SMOOTH",
"620 46 OFFCURVE",
"656 -12 OFFCURVE",
"688 -12 QCURVE SMOOTH",
"750 -12 OFFCURVE",
"914 132 OFFCURVE",
"940 176 QCURVE",
"940 184 OFFCURVE",
"918 222 OFFCURVE",
"914 222 QCURVE",
"902 208 LINE SMOOTH",
"890 196 OFFCURVE",
"862 166 OFFCURVE",
"828 134 OFFCURVE",
"794 112 OFFCURVE",
"782 112 QCURVE SMOOTH",
"762 112 OFFCURVE",
"762 162 QCURVE SMOOTH",
"762 188 OFFCURVE",
"768 212 QCURVE SMOOTH",
"834 520 LINE SMOOTH",
"862 648 OFFCURVE",
"862 738 QCURVE SMOOTH",
"862 870 OFFCURVE",
"762 870 QCURVE SMOOTH",
"702 870 OFFCURVE"
);
}
);
width = 922;
}
);
note = h;
unicode = 0068;
},
{
glyphname = i;
layers = (
{
layerId = "982A60EF-513A-498E-AE80-A9982858EA0F";
paths = (
{
closed = 1;
nodes = (
"210 738 OFFCURVE",
"186 698 QCURVE",
"186 690 OFFCURVE",
"208 652 OFFCURVE",
"212 652 QCURVE",
"222 664 LINE SMOOTH",
"232 676 OFFCURVE",
"256 700 OFFCURVE",
"286 728 OFFCURVE",
"314 746 OFFCURVE",
"322 746 QCURVE SMOOTH",
"342 746 OFFCURVE",
"342 696 QCURVE SMOOTH",
"342 678 OFFCURVE",
"332 616 QCURVE SMOOTH",
"250 198 LINE SMOOTH",
"236 124 OFFCURVE",
"236 92 QCURVE SMOOTH",
"236 46 OFFCURVE",
"272 -12 OFFCURVE",
"304 -12 QCURVE SMOOTH",
"366 -12 OFFCURVE",
"530 132 OFFCURVE",
"556 176 QCURVE",
"556 184 OFFCURVE",
"534 222 OFFCURVE",
"530 222 QCURVE",
"518 208 LINE SMOOTH",
"506 196 OFFCURVE",
"478 166 OFFCURVE",
"444 134 OFFCURVE",
"410 112 OFFCURVE",
"398 112 QCURVE SMOOTH",
"378 112 OFFCURVE",
"378 162 QCURVE SMOOTH",
"378 188 OFFCURVE",
"384 212 QCURVE SMOOTH",
"472 660 LINE SMOOTH",
"484 724 OFFCURVE",
"484 766 QCURVE SMOOTH",
"484 812 OFFCURVE",
"448 870 OFFCURVE",
"416 870 QCURVE SMOOTH",
"364 870 OFFCURVE"
);
},
{
closed = 1;
nodes = (
"370 1224 OFFCURVE",
"370 1178 QCURVE SMOOTH",
"370 1142 OFFCURVE",
"406 1092 OFFCURVE",
"438 1092 QCURVE SMOOTH",
"484 1092 OFFCURVE",
"546 1164 OFFCURVE",
"546 1212 QCURVE SMOOTH",
"546 1244 OFFCURVE",
"504 1292 OFFCURVE",
"474 1292 QCURVE SMOOTH",
"430 1292 OFFCURVE"
);
}
);
width = 548;
}
);
note = i;
unicode = 0069;
},
{
glyphname = j;
layers = (
{
layerId = "982A60EF-513A-498E-AE80-A9982858EA0F";
paths = (
{
closed = 1;
nodes = (
"252 738 OFFCURVE",
"228 698 QCURVE",
"228 690 OFFCURVE",
"250 652 OFFCURVE",
"254 652 QCURVE",
"254 652 OFFCURVE",
"274 676 OFFCURVE",
"298 700 OFFCURVE",
"328 728 OFFCURVE",
"356 746 OFFCURVE",
"364 746 QCURVE SMOOTH",
"384 746 OFFCURVE",
"384 696 QCURVE SMOOTH",
"384 688 OFFCURVE",
"374 616 QCURVE",
"260 44 LINE SMOOTH",
"228 -122 OFFCURVE",
"76 -372 OFFCURVE",
"-24 -430 QCURVE",
"-24 -456 OFFCURVE",
"-6 -470 QCURVE",
"56 -446 OFFCURVE",
"216 -324 OFFCURVE",
"272 -248 QCURVE SMOOTH",
"362 -126 OFFCURVE",
"404 90 QCURVE SMOOTH",
"514 660 LINE SMOOTH",
"526 726 OFFCURVE",
"526 766 QCURVE SMOOTH",
"526 812 OFFCURVE",
"490 870 OFFCURVE",
"458 870 QCURVE SMOOTH",
"406 870 OFFCURVE"
);
},
{
closed = 1;
nodes = (
"412 1224 OFFCURVE",
"412 1178 QCURVE SMOOTH",
"412 1142 OFFCURVE",
"448 1092 OFFCURVE",
"480 1092 QCURVE SMOOTH",
"526 1092 OFFCURVE",
"588 1164 OFFCURVE",
"588 1212 QCURVE SMOOTH",
"588 1244 OFFCURVE",
"546 1292 OFFCURVE",
"516 1292 QCURVE SMOOTH",
"472 1292 OFFCURVE"
);
}
);
width = 580;
}
);
note = j;
unicode = 006A;
},
{
glyphname = k;
layers = (
{
layerId = "982A60EF-513A-498E-AE80-A9982858EA0F";
paths = (
{
closed = 1;
nodes = (
"618 826 OFFCURVE",
"536 758 OFFCURVE",
"474 696 OFFCURVE",
"452 670 QCURVE SMOOTH",
"430 644 LINE",
"534 1182 LINE SMOOTH",
"560 1308 OFFCURVE",
"560 1332 QCURVE SMOOTH",
"560 1364 OFFCURVE",
"548 1370 QCURVE",
"426 1326 OFFCURVE",
"296 1314 QCURVE",
"280 1298 OFFCURVE",
"280 1274 QCURVE SMOOTH",
"280 1262 OFFCURVE",
"286 1262 QCURVE SMOOTH",
"408 1262 OFFCURVE",
"408 1224 QCURVE SMOOTH",
"408 1200 OFFCURVE",
"390 1118 QCURVE SMOOTH",
"172 0 LINE",
"212 -10 OFFCURVE",
"238 -10 QCURVE SMOOTH",
"268 -10 OFFCURVE",
"304 0 QCURVE",
"378 382 LINE",
"384 374 OFFCURVE",
"432 290 OFFCURVE",
"452 258 OFFCURVE",
"502 178 OFFCURVE",
"534 140 OFFCURVE",
"584 76 OFFCURVE",
"626 44 OFFCURVE",
"676 8 OFFCURVE",
"726 -8 OFFCURVE",
"752 -8 QCURVE SMOOTH",
"810 -8 OFFCURVE",
"938 124 OFFCURVE",
"948 158 QCURVE",
"948 166 OFFCURVE",
"922 198 OFFCURVE",
"916 198 QCURVE",
"900 170 OFFCURVE",
"834 110 OFFCURVE",
"798 110 QCURVE SMOOTH",
"754 110 OFFCURVE",
"628 226 OFFCURVE",
"508 406 QCURVE",
"688 436 OFFCURVE",
"918 604 OFFCURVE",
"918 734 QCURVE SMOOTH",
"918 792 OFFCURVE",
"828 870 OFFCURVE",
"768 870 QCURVE SMOOTH",
"720 870 OFFCURVE"
);
},
{
closed = 1;
nodes = (
"776 690 QCURVE SMOOTH",
"776 650 OFFCURVE",
"734 582 OFFCURVE",
"674 536 OFFCURVE",
"592 498 OFFCURVE",
"522 478 OFFCURVE",
"448 464 OFFCURVE",
"422 460 OFFCURVE",
"414 460 QCURVE SMOOTH",
"410 460 OFFCURVE",
"410 464 QCURVE SMOOTH",
"410 508 OFFCURVE",
"632 776 OFFCURVE",
"696 776 QCURVE SMOOTH",
"776 776 OFFCURVE"
);
}
);
width = 970;
}
);
note = k;
unicode = 006B;
},
{
glyphname = l;
layers = (
{
layerId = "982A60EF-513A-498E-AE80-A9982858EA0F";
paths = (
{
closed = 1;
nodes = (
"172 92 QCURVE SMOOTH",
"172 46 OFFCURVE",
"210 -12 OFFCURVE",
"240 -12 QCURVE SMOOTH",
"302 -12 OFFCURVE",
"466 132 OFFCURVE",
"492 176 QCURVE",
"492 184 OFFCURVE",
"472 222 OFFCURVE",
"466 222 QCURVE",
"466 222 OFFCURVE",
"444 196 OFFCURVE",
"416 166 OFFCURVE",
"380 134 OFFCURVE",
"346 112 OFFCURVE",
"334 112 QCURVE SMOOTH",
"314 112 OFFCURVE",
"314 162 QCURVE SMOOTH",
"314 188 OFFCURVE",
"320 212 QCURVE",
"510 1182 LINE SMOOTH",
"536 1308 OFFCURVE",
"536 1332 QCURVE SMOOTH",
"536 1364 OFFCURVE",
"524 1370 QCURVE",
"404 1326 OFFCURVE",
"268 1314 QCURVE",
"252 1298 OFFCURVE",
"252 1274 QCURVE SMOOTH",
"252 1262 OFFCURVE",
"258 1262 QCURVE SMOOTH",
"380 1262 OFFCURVE",
"380 1224 QCURVE SMOOTH",
"380 1198 OFFCURVE",
"374 1168 QCURVE SMOOTH",
"186 198 LINE SMOOTH",
"172 126 OFFCURVE"
);
}
);
width = 496;
}
);
note = l;
unicode = 006C;
},
{
glyphname = m;
layers = (
{
layerId = "982A60EF-513A-498E-AE80-A9982858EA0F";
paths = (
{
closed = 1;
nodes = (
"498 602 OFFCURVE",
"424 474 QCURVE",
"460 660 LINE SMOOTH",
"472 722 OFFCURVE",
"472 766 QCURVE SMOOTH",
"472 812 OFFCURVE",
"436 870 OFFCURVE",
"404 870 QCURVE SMOOTH",
"352 870 OFFCURVE",
"198 738 OFFCURVE",
"174 698 QCURVE",
"174 690 OFFCURVE",
"196 652 OFFCURVE",
"200 652 QCURVE",
"200 652 OFFCURVE",
"220 676 OFFCURVE",
"244 700 OFFCURVE",
"274 728 OFFCURVE",
"302 746 OFFCURVE",
"310 746 QCURVE SMOOTH",
"330 746 OFFCURVE",
"330 696 QCURVE SMOOTH",
"330 688 OFFCURVE",
"320 616 QCURVE",
"200 0 LINE",
"252 -8 OFFCURVE",
"266 -8 QCURVE SMOOTH",
"282 -8 OFFCURVE",
"334 0 QCURVE",
"370 176 LINE SMOOTH",
"404 342 OFFCURVE",
"664 722 OFFCURVE",
"734 722 QCURVE SMOOTH",
"774 722 OFFCURVE",
"774 644 QCURVE SMOOTH",
"774 610 OFFCURVE",
"766 568 QCURVE SMOOTH",
"654 0 LINE",
"660 0 OFFCURVE",
"702 -6 OFFCURVE",
"734 -6 OFFCURVE",
"780 0 OFFCURVE",
"788 0 QCURVE",
"824 190 LINE SMOOTH",
"858 374 OFFCURVE",
"1124 722 OFFCURVE",
"1192 722 QCURVE SMOOTH",
"1210 722 OFFCURVE",
"1226 698 OFFCURVE",
"1230 666 OFFCURVE",
"1230 636 QCURVE SMOOTH",
"1230 594 OFFCURVE",
"1216 528 QCURVE SMOOTH",
"1146 198 LINE SMOOTH",
"1132 124 OFFCURVE",
"1132 92 QCURVE SMOOTH",
"1132 46 OFFCURVE",
"1168 -12 OFFCURVE",
"1200 -12 QCURVE SMOOTH",
"1262 -12 OFFCURVE",
"1426 132 OFFCURVE",
"1452 176 QCURVE",
"1452 184 OFFCURVE",
"1430 222 OFFCURVE",
"1426 222 QCURVE",
"1414 208 LINE SMOOTH",
"1402 196 OFFCURVE",
"1374 166 OFFCURVE",
"1340 134 OFFCURVE",
"1306 112 OFFCURVE",
"1294 112 QCURVE SMOOTH",
"1274 112 OFFCURVE",
"1274 162 QCURVE SMOOTH",
"1274 188 OFFCURVE",
"1280 212 QCURVE SMOOTH",
"1346 520 LINE SMOOTH",
"1374 648 OFFCURVE",
"1374 738 QCURVE SMOOTH",
"1374 804 OFFCURVE",
"1326 870 OFFCURVE",
"1260 870 QCURVE SMOOTH",
"1190 870 OFFCURVE",
"952 616 OFFCURVE",
"886 502 QCURVE",
"914 646 OFFCURVE",
"914 680 QCURVE SMOOTH",
"914 736 OFFCURVE",
"902 806 OFFCURVE",
"844 870 OFFCURVE",
"790 870 QCURVE SMOOTH",
"720 870 OFFCURVE"
);
}
);
width = 1432;
}
);
note = m;
unicode = 006D;
},
{
glyphname = n;
layers = (
{
layerId = "982A60EF-513A-498E-AE80-A9982858EA0F";
paths = (
{
closed = 1;
nodes = (
"194 738 OFFCURVE",
"170 698 QCURVE",
"170 690 OFFCURVE",
"192 652 OFFCURVE",
"196 652 QCURVE",
"196 652 OFFCURVE",
"216 676 OFFCURVE",
"240 700 OFFCURVE",
"270 728 OFFCURVE",
"298 746 OFFCURVE",
"306 746 QCURVE SMOOTH",
"326 746 OFFCURVE",
"326 696 QCURVE SMOOTH",
"326 688 OFFCURVE",
"316 616 QCURVE",
"198 0 LINE",
"230 -8 OFFCURVE",
"302 -8 OFFCURVE",
"328 0 QCURVE",
"362 156 LINE SMOOTH",
"402 360 OFFCURVE",
"680 722 OFFCURVE",
"746 722 QCURVE SMOOTH",
"784 722 OFFCURVE",
"784 636 QCURVE SMOOTH",
"784 594 OFFCURVE",
"770 528 QCURVE SMOOTH",
"700 198 LINE SMOOTH",
"686 124 OFFCURVE",
"686 92 QCURVE SMOOTH",
"686 46 OFFCURVE",
"722 -12 OFFCURVE",
"754 -12 QCURVE SMOOTH",
"816 -12 OFFCURVE",
"980 132 OFFCURVE",
"1006 176 QCURVE",
"1006 184 OFFCURVE",
"984 222 OFFCURVE",
"980 222 QCURVE",
"968 208 LINE SMOOTH",
"956 196 OFFCURVE",
"928 166 OFFCURVE",
"894 134 OFFCURVE",
"860 112 OFFCURVE",
"848 112 QCURVE SMOOTH",
"828 112 OFFCURVE",
"828 162 QCURVE SMOOTH",
"828 188 OFFCURVE",
"834 212 QCURVE SMOOTH",
"900 520 LINE SMOOTH",
"928 648 OFFCURVE",
"928 738 QCURVE SMOOTH",
"928 870 OFFCURVE",
"828 870 QCURVE SMOOTH",
"768 870 OFFCURVE",
"574 688 OFFCURVE",
"440 512 OFFCURVE",
"420 476 QCURVE",
"456 660 LINE SMOOTH",
"468 722 OFFCURVE",
"468 766 QCURVE SMOOTH",
"468 812 OFFCURVE",
"432 870 OFFCURVE",
"400 870 QCURVE SMOOTH",
"348 870 OFFCURVE"
);
}
);
width = 984;
}
);
note = n;
unicode = 006E;
},
{
glyphname = o;
layers = (
{
layerId = "982A60EF-513A-498E-AE80-A9982858EA0F";
paths = (
{
closed = 1;
nodes = (
"672 664 OFFCURVE",
"672 546 QCURVE SMOOTH",
"672 386 OFFCURVE",
"518 72 OFFCURVE",
"418 72 QCURVE SMOOTH",
"362 72 OFFCURVE",
"288 200 OFFCURVE",
"288 316 QCURVE SMOOTH",
"288 474 OFFCURVE",
"452 788 OFFCURVE",
"552 788 QCURVE SMOOTH",
"608 788 OFFCURVE"
);
},
{
closed = 1;
nodes = (
"136 498 OFFCURVE",
"136 290 QCURVE SMOOTH",
"136 146 OFFCURVE",
"262 -10 OFFCURVE",
"382 -10 QCURVE SMOOTH",
"534 -10 OFFCURVE",
"824 356 OFFCURVE",
"824 562 QCURVE SMOOTH",
"824 706 OFFCURVE",
"694 870 OFFCURVE",
"576 870 QCURVE SMOOTH",
"424 870 OFFCURVE"
);
}
);
width = 824;
}
);
note = o;
unicode = 006F;
},
{
glyphname = p;
layers = (
{
layerId = "982A60EF-513A-498E-AE80-A9982858EA0F";
paths = (
{
closed = 1;
nodes = (
"750 560 QCURVE SMOOTH",
"750 388 OFFCURVE",
"542 84 OFFCURVE",
"426 84 QCURVE SMOOTH",
"372 84 OFFCURVE",
"340 160 OFFCURVE",
"348 206 QCURVE SMOOTH",
"434 648 LINE",
"508 754 OFFCURVE",
"626 754 QCURVE SMOOTH",
"750 754 OFFCURVE"
);
},
{
closed = 1;
nodes = (
"544 824 OFFCURVE",
"494 784 OFFCURVE",
"454 748 QCURVE",
"458 776 OFFCURVE",
"476 860 QCURVE",
"448 874 OFFCURVE",
"376 874 OFFCURVE",
"346 866 QCURVE",
"294 606 LINE",
"176 480 LINE SMOOTH",
"170 474 OFFCURVE",
"170 466 QCURVE SMOOTH",
"170 440 OFFCURVE",
"182 426 QCURVE",
"278 522 LINE",
"120 -294 LINE SMOOTH",
"110 -352 OFFCURVE",
"88 -380 QCURVE SMOOTH",
"62 -412 OFFCURVE",
"8 -412 QCURVE",
"0 -424 OFFCURVE",
"0 -454 QCURVE SMOOTH",
"0 -468 OFFCURVE",
"6 -470 QCURVE",
"156 -452 OFFCURVE",
"292 -452 QCURVE SMOOTH",
"302 -452 OFFCURVE",
"348 -454 OFFCURVE",
"362 -454 QCURVE",
"372 -440 OFFCURVE",
"372 -410 QCURVE SMOOTH",
"372 -398 OFFCURVE",
"368 -398 QCURVE SMOOTH",
"300 -398 OFFCURVE",
"274 -392 QCURVE SMOOTH",
"246 -384 OFFCURVE",
"246 -346 QCURVE SMOOTH",
"246 -316 OFFCURVE",
"252 -290 QCURVE SMOOTH",
"308 8 LINE",
"338 -8 OFFCURVE",
"388 -8 QCURVE SMOOTH",
"482 -8 OFFCURVE",
"722 172 OFFCURVE",
"898 462 OFFCURVE",
"898 600 QCURVE SMOOTH",
"898 712 OFFCURVE",
"798 870 OFFCURVE",
"706 870 QCURVE SMOOTH",
"650 870 OFFCURVE"
);
}
);
width = 880;
}
);
note = p;
unicode = 0070;
},
{
glyphname = q;
layers = (
{
layerId = "982A60EF-513A-498E-AE80-A9982858EA0F";
paths = (
{
closed = 1;
nodes = (
"742 752 QCURVE",
"702 548 LINE SMOOTH",
"672 400 OFFCURVE",
"482 106 OFFCURVE",
"408 106 QCURVE SMOOTH",
"304 106 OFFCURVE",
"304 318 QCURVE SMOOTH",
"304 480 OFFCURVE",
"514 778 OFFCURVE",
"644 778 QCURVE SMOOTH",
"718 778 OFFCURVE"
);
},
{
closed = 1;
nodes = (
"328 688 OFFCURVE",
"156 402 OFFCURVE",
"156 260 QCURVE SMOOTH",
"156 148 OFFCURVE",
"260 -10 OFFCURVE",
"348 -10 QCURVE SMOOTH",
"400 -10 OFFCURVE",
"532 96 OFFCURVE",
"616 202 OFFCURVE",
"644 250 QCURVE",
"542 -294 LINE SMOOTH",
"532 -346 OFFCURVE",
"458 -404 OFFCURVE",
"416 -410 OFFCURVE",
"398 -410 QCURVE SMOOTH",
"388 -410 OFFCURVE",
"388 -446 QCURVE SMOOTH",
"388 -450 OFFCURVE",
"390 -468 OFFCURVE",
"390 -470 QCURVE",
"538 -454 OFFCURVE",
"680 -454 QCURVE SMOOTH",
"692 -454 OFFCURVE",
"746 -456 OFFCURVE",
"760 -456 QCURVE",
"770 -440 OFFCURVE",
"770 -408 QCURVE SMOOTH",
"770 -396 OFFCURVE",
"766 -396 QCURVE SMOOTH",
"726 -396 OFFCURVE",
"682 -376 OFFCURVE",
"674 -354 OFFCURVE",
"674 -336 QCURVE SMOOTH",
"674 -326 OFFCURVE",
"678 -294 QCURVE",
"768 212 LINE",
"890 844 LINE",
"820 870 OFFCURVE",
"730 870 QCURVE SMOOTH",
"596 870 OFFCURVE"
);
}
);
width = 830;
}
);
note = q;
unicode = 0071;
},
{
glyphname = r;
layers = (
{
layerId = "982A60EF-513A-498E-AE80-A9982858EA0F";
paths = (
{
closed = 1;
nodes = (
"208 738 OFFCURVE",
"184 698 QCURVE",
"184 690 OFFCURVE",
"206 652 OFFCURVE",
"210 652 QCURVE",
"210 652 OFFCURVE",
"230 676 OFFCURVE",
"254 700 OFFCURVE",
"284 728 OFFCURVE",
"312 746 OFFCURVE",
"320 746 QCURVE SMOOTH",
"340 746 OFFCURVE",
"340 696 QCURVE SMOOTH",
"340 688 OFFCURVE",
"330 616 QCURVE",
"210 0 LINE",
"246 -6 OFFCURVE",
"284 -6 QCURVE SMOOTH",
"316 -6 OFFCURVE",
"350 0 QCURVE",
"388 210 LINE SMOOTH",
"418 374 OFFCURVE",
"648 722 OFFCURVE",
"706 722 QCURVE SMOOTH",
"730 722 OFFCURVE",
"774 672 OFFCURVE",
"790 672 QCURVE SMOOTH",
"864 672 OFFCURVE",
"864 806 QCURVE",
"822 870 OFFCURVE",
"686 870 OFFCURVE",
"488 610 OFFCURVE",
"438 492 QCURVE",
"470 660 LINE SMOOTH",
"482 722 OFFCURVE",
"482 766 QCURVE SMOOTH",
"482 812 OFFCURVE",
"446 870 OFFCURVE",
"414 870 QCURVE SMOOTH",
"362 870 OFFCURVE"
);
}
);
width = 744;
}
);
note = r;
unicode = 0072;
},
{
glyphname = s;
layers = (
{
layerId = "982A60EF-513A-498E-AE80-A9982858EA0F";
paths = (
{
closed = 1;
nodes = (
"244 714 OFFCURVE",
"244 630 QCURVE SMOOTH",
"244 562 OFFCURVE",
"322 430 OFFCURVE",
"414 338 OFFCURVE",
"492 220 OFFCURVE",
"492 168 QCURVE SMOOTH",
"492 134 OFFCURVE",
"438 76 OFFCURVE",
"394 76 QCURVE SMOOTH",
"340 76 OFFCURVE",
"274 136 OFFCURVE",
"230 194 OFFCURVE",
"202 194 QCURVE SMOOTH",
"172 194 OFFCURVE",
"134 138 OFFCURVE",
"134 102 QCURVE SMOOTH",
"134 80 OFFCURVE",
"144 64 QCURVE",
"210 -12 OFFCURVE",
"324 -12 QCURVE SMOOTH",
"450 -12 OFFCURVE",
"610 124 OFFCURVE",
"610 234 QCURVE SMOOTH",
"610 302 OFFCURVE",
"532 434 OFFCURVE",
"440 526 OFFCURVE",
"362 644 OFFCURVE",
"362 696 QCURVE SMOOTH",
"362 732 OFFCURVE",
"410 788 OFFCURVE",
"452 788 QCURVE SMOOTH",
"506 788 OFFCURVE",
"572 728 OFFCURVE",
"616 670 OFFCURVE",
"644 670 QCURVE SMOOTH",
"674 670 OFFCURVE",
"712 722 OFFCURVE",
"712 758 QCURVE SMOOTH",
"712 776 OFFCURVE",
"702 800 QCURVE",
"636 876 OFFCURVE",
"522 876 QCURVE SMOOTH",
"404 876 OFFCURVE"
);
}
);
width = 640;
}
);
note = s;
unicode = 0073;
},
{
glyphname = t;
layers = (
{
layerId = "982A60EF-513A-498E-AE80-A9982858EA0F";
paths = (
{
closed = 1;
nodes = (
"204 840 LINE",
"180 804 OFFCURVE",
"180 778 QCURVE SMOOTH",
"180 756 OFFCURVE",
"186 756 QCURVE SMOOTH",
"328 756 LINE",
"220 198 LINE SMOOTH",
"206 124 OFFCURVE",
"206 92 QCURVE SMOOTH",
"206 46 OFFCURVE",
"242 -12 OFFCURVE",
"274 -12 QCURVE SMOOTH",
"336 -12 OFFCURVE",
"500 132 OFFCURVE",
"526 176 QCURVE",
"526 184 OFFCURVE",
"504 222 OFFCURVE",
"500 222 QCURVE",
"488 208 LINE SMOOTH",
"476 196 OFFCURVE",
"448 166 OFFCURVE",
"414 134 OFFCURVE",
"380 112 OFFCURVE",
"368 112 QCURVE SMOOTH",
"348 112 OFFCURVE",
"348 162 QCURVE SMOOTH",
"348 188 OFFCURVE",
"354 212 QCURVE",
"460 756 LINE",
"650 756 LINE",
"668 790 OFFCURVE",
"668 814 QCURVE SMOOTH",
"668 840 OFFCURVE",
"658 840 QCURVE SMOOTH",
"476 840 LINE",
"526 1102 LINE",
"514 1104 OFFCURVE",
"490 1104 QCURVE SMOOTH",
"398 1104 OFFCURVE",
"392 1084 QCURVE",
"344 840 LINE"
);
}
);
width = 524;
}
);
note = t;
unicode = 0074;
},
{
glyphname = u;
layers = (
{
layerId = "982A60EF-513A-498E-AE80-A9982858EA0F";
paths = (
{
closed = 1;
nodes = (
"174 738 OFFCURVE",
"150 698 QCURVE",
"150 690 OFFCURVE",
"172 652 OFFCURVE",
"176 652 QCURVE",
"176 652 OFFCURVE",
"196 676 OFFCURVE",
"220 700 OFFCURVE",
"250 728 OFFCURVE",
"278 746 OFFCURVE",
"286 746 QCURVE SMOOTH",
"306 746 OFFCURVE",
"306 696 QCURVE SMOOTH",
"306 688 OFFCURVE",
"296 616 QCURVE",
"236 338 LINE SMOOTH",
"208 212 OFFCURVE",
"208 120 QCURVE SMOOTH",
"208 -12 OFFCURVE",
"308 -12 QCURVE SMOOTH",
"368 -12 OFFCURVE",
"556 172 OFFCURVE",
"680 344 OFFCURVE",
"700 382 QCURVE",
"664 198 LINE SMOOTH",
"650 124 OFFCURVE",
"650 92 QCURVE SMOOTH",
"650 46 OFFCURVE",
"686 -12 OFFCURVE",
"718 -12 QCURVE SMOOTH",
"780 -12 OFFCURVE",
"944 132 OFFCURVE",
"970 176 QCURVE",
"970 184 OFFCURVE",
"948 222 OFFCURVE",
"944 222 QCURVE",
"932 208 LINE SMOOTH",
"920 196 OFFCURVE",
"892 166 OFFCURVE",
"858 134 OFFCURVE",
"824 112 OFFCURVE",
"812 112 QCURVE SMOOTH",
"792 112 OFFCURVE",
"792 162 QCURVE SMOOTH",
"792 188 OFFCURVE",
"798 212 QCURVE",
"922 858 LINE",
"890 866 OFFCURVE",
"854 866 QCURVE SMOOTH",
"818 866 OFFCURVE",
"792 858 QCURVE",
"758 702 LINE SMOOTH",
"738 596 OFFCURVE",
"636 380 OFFCURVE",
"522 230 OFFCURVE",
"418 136 OFFCURVE",
"390 136 QCURVE SMOOTH",
"352 136 OFFCURVE",
"352 222 QCURVE SMOOTH",
"352 272 OFFCURVE",
"366 330 QCURVE SMOOTH",
"436 660 LINE SMOOTH",
"448 712 OFFCURVE",
"448 766 QCURVE SMOOTH",
"448 812 OFFCURVE",
"412 870 OFFCURVE",
"380 870 QCURVE SMOOTH",
"328 870 OFFCURVE"
);
}
);
width = 944;
}
);
note = u;
unicode = 0075;
},
{
glyphname = v;
layers = (
{
layerId = "982A60EF-513A-498E-AE80-A9982858EA0F";
paths = (
{
closed = 1;
nodes = (
"182 738 OFFCURVE",
"158 698 QCURVE",
"158 690 OFFCURVE",
"180 652 OFFCURVE",
"184 652 QCURVE",
"194 664 LINE SMOOTH",
"204 676 OFFCURVE",
"228 700 OFFCURVE",
"258 728 OFFCURVE",
"286 746 OFFCURVE",
"294 746 QCURVE SMOOTH",
"314 746 OFFCURVE",
"314 696 QCURVE SMOOTH",
"314 658 OFFCURVE",
"302 616 QCURVE",
"234 264 LINE",
"226 232 OFFCURVE",
"226 176 QCURVE SMOOTH",
"226 98 OFFCURVE",
"306 0 OFFCURVE",
"374 0 QCURVE SMOOTH",
"462 0 OFFCURVE",
"710 216 OFFCURVE",
"904 572 OFFCURVE",
"904 738 QCURVE SMOOTH",
"904 802 OFFCURVE",
"876 854 QCURVE",
"850 870 OFFCURVE",
"812 870 QCURVE SMOOTH",
"778 870 OFFCURVE",
"730 816 OFFCURVE",
"730 780 QCURVE SMOOTH",
"730 756 OFFCURVE",
"788 660 OFFCURVE",
"788 618 QCURVE SMOOTH",
"788 490 OFFCURVE",
"542 124 OFFCURVE",
"450 124 QCURVE SMOOTH",
"404 124 OFFCURVE",
"368 172 OFFCURVE",
"368 228 QCURVE SMOOTH",
"368 258 OFFCURVE",
"384 354 QCURVE SMOOTH",
"444 660 LINE SMOOTH",
"456 724 OFFCURVE",
"456 766 QCURVE SMOOTH",
"456 812 OFFCURVE",
"420 870 OFFCURVE",
"388 870 QCURVE SMOOTH",
"336 870 OFFCURVE"
);
}
);
width = 832;
}
);
note = v;
unicode = 0076;
},
{
glyphname = w;
layers = (
{
layerId = "982A60EF-513A-498E-AE80-A9982858EA0F";
paths = (
{
closed = 1;
nodes = (
"182 738 OFFCURVE",
"158 698 QCURVE",
"158 690 OFFCURVE",
"180 652 OFFCURVE",
"184 652 QCURVE",
"194 664 LINE SMOOTH",
"204 676 OFFCURVE",
"228 700 OFFCURVE",
"258 728 OFFCURVE",
"286 746 OFFCURVE",
"294 746 QCURVE SMOOTH",
"314 746 OFFCURVE",
"314 696 QCURVE SMOOTH",
"314 658 OFFCURVE",
"302 616 QCURVE",
"234 264 LINE",
"226 232 OFFCURVE",
"226 176 QCURVE SMOOTH",
"226 98 OFFCURVE",
"306 0 OFFCURVE",
"374 0 QCURVE SMOOTH",
"492 0 OFFCURVE",
"650 182 QCURVE",
"650 98 OFFCURVE",
"728 0 OFFCURVE",
"798 0 QCURVE SMOOTH",
"862 0 OFFCURVE",
"1038 134 OFFCURVE",
"1194 338 OFFCURVE",
"1302 612 OFFCURVE",
"1302 738 QCURVE SMOOTH",
"1302 802 OFFCURVE",
"1274 854 QCURVE",
"1248 870 OFFCURVE",
"1210 870 QCURVE SMOOTH",
"1176 870 OFFCURVE",
"1128 816 OFFCURVE",
"1128 780 QCURVE SMOOTH",
"1128 756 OFFCURVE",
"1186 660 OFFCURVE",
"1186 618 QCURVE SMOOTH",
"1186 536 OFFCURVE",
"1084 302 OFFCURVE",
"934 124 OFFCURVE",
"874 124 QCURVE SMOOTH",
"826 124 OFFCURVE",
"792 198 OFFCURVE",
"792 294 QCURVE SMOOTH",
"792 322 OFFCURVE",
"806 422 QCURVE",
"888 646 OFFCURVE",
"888 776 QCURVE SMOOTH",
"888 870 OFFCURVE",
"812 870 QCURVE SMOOTH",
"758 870 OFFCURVE",
"732 770 QCURVE SMOOTH",
"714 702 OFFCURVE",
"666 308 QCURVE",
"612 228 OFFCURVE",
"494 124 OFFCURVE",
"450 124 QCURVE SMOOTH",
"404 124 OFFCURVE",
"368 172 OFFCURVE",
"368 228 QCURVE SMOOTH",
"368 258 OFFCURVE",
"384 354 QCURVE SMOOTH",
"444 660 LINE SMOOTH",
"456 724 OFFCURVE",
"456 766 QCURVE SMOOTH",
"456 812 OFFCURVE",
"420 870 OFFCURVE",
"388 870 QCURVE SMOOTH",
"336 870 OFFCURVE"
);
}
);
width = 1264;
}
);
note = w;
unicode = 0077;
},
{
glyphname = x;
layers = (
{
layerId = "982A60EF-513A-498E-AE80-A9982858EA0F";
paths = (
{
closed = 1;
nodes = (
"218 736 OFFCURVE",
"212 702 QCURVE",
"212 694 OFFCURVE",
"236 662 OFFCURVE",
"244 662 QCURVE",
"258 688 OFFCURVE",
"326 750 OFFCURVE",
"356 750 QCURVE SMOOTH",
"390 750 OFFCURVE",
"410 682 QCURVE SMOOTH",
"492 414 LINE",
"334 142 LINE SMOOTH",
"304 90 OFFCURVE",
"280 90 QCURVE SMOOTH",
"252 90 OFFCURVE",
"186 152 OFFCURVE",
"160 152 QCURVE SMOOTH",
"138 152 OFFCURVE",
"96 110 OFFCURVE",
"96 80 QCURVE SMOOTH",
"96 56 OFFCURVE",
"112 28 QCURVE",
"160 -12 OFFCURVE",
"228 -12 QCURVE SMOOTH",
"330 -12 OFFCURVE",
"396 102 QCURVE SMOOTH",
"522 320 LINE",
"568 164 LINE SMOOTH",
"620 -10 OFFCURVE",
"704 -10 QCURVE SMOOTH",
"766 -10 OFFCURVE",
"902 124 OFFCURVE",
"908 158 QCURVE",
"908 166 OFFCURVE",
"884 198 OFFCURVE",
"876 198 QCURVE",
"862 172 OFFCURVE",
"794 110 OFFCURVE",
"764 110 QCURVE SMOOTH",
"730 110 OFFCURVE",
"710 178 QCURVE SMOOTH",
"624 460 LINE",
"774 716 LINE SMOOTH",
"804 768 OFFCURVE",
"828 768 QCURVE SMOOTH",
"856 768 OFFCURVE",
"922 706 OFFCURVE",
"948 706 QCURVE SMOOTH",
"970 706 OFFCURVE",
"1012 748 OFFCURVE",
"1012 778 QCURVE SMOOTH",
"1012 798 OFFCURVE",
"996 830 QCURVE",
"948 870 OFFCURVE",
"880 870 QCURVE SMOOTH",
"778 870 OFFCURVE",
"712 756 QCURVE SMOOTH",
"594 554 LINE",
"552 696 LINE SMOOTH",
"500 870 OFFCURVE",
"416 870 QCURVE SMOOTH",
"354 870 OFFCURVE"
);
}
);
width = 952;
}
);
note = x;
unicode = 0078;
},
{
glyphname = y;
layers = (
{
layerId = "982A60EF-513A-498E-AE80-A9982858EA0F";
paths = (
{
closed = 1;
nodes = (
"216 728 OFFCURVE",
"204 698 QCURVE",
"204 690 OFFCURVE",
"226 652 OFFCURVE",
"230 652 QCURVE",
"250 678 OFFCURVE",
"322 746 OFFCURVE",
"340 746 QCURVE SMOOTH",
"374 746 OFFCURVE",
"424 620 OFFCURVE",
"450 416 OFFCURVE",
"460 222 OFFCURVE",
"460 124 QCURVE SMOOTH",
"460 -76 OFFCURVE",
"414 -144 QCURVE SMOOTH",
"292 -322 OFFCURVE",
"126 -322 QCURVE SMOOTH",
"36 -322 OFFCURVE",
"-8 -296 QCURVE",
"-54 -320 OFFCURVE",
"-54 -384 QCURVE SMOOTH",
"-54 -418 OFFCURVE",
"14 -466 OFFCURVE",
"66 -466 QCURVE SMOOTH",
"200 -466 OFFCURVE",
"634 -78 OFFCURVE",
"978 492 OFFCURVE",
"978 712 QCURVE SMOOTH",
"978 870 OFFCURVE",
"890 870 QCURVE SMOOTH",
"816 870 OFFCURVE",
"790 784 QCURVE",
"840 688 OFFCURVE",
"840 570 QCURVE SMOOTH",
"840 450 OFFCURVE",
"684 152 OFFCURVE",
"606 56 QCURVE",
"606 150 OFFCURVE",
"598 336 OFFCURVE",
"570 666 OFFCURVE",
"492 870 OFFCURVE",
"432 870 QCURVE SMOOTH",
"382 870 OFFCURVE"
);
}
);
width = 958;
}
);
note = y;
unicode = 0079;
},
{
glyphname = z;
layers = (
{
layerId = "982A60EF-513A-498E-AE80-A9982858EA0F";
paths = (
{
closed = 1;
nodes = (
"228 704 OFFCURVE",
"212 652 QCURVE",
"214 634 OFFCURVE",
"230 602 OFFCURVE",
"240 612 QCURVE SMOOTH",
"242 614 OFFCURVE",
"262 650 OFFCURVE",
"284 686 OFFCURVE",
"314 724 OFFCURVE",
"348 748 OFFCURVE",
"364 748 QCURVE SMOOTH",
"392 748 OFFCURVE",
"560 676 OFFCURVE",
"616 676 QCURVE SMOOTH",
"630 676 OFFCURVE",
"670 696 OFFCURVE",
"684 704 QCURVE",
"696 714 LINE",
"548 554 LINE SMOOTH",
"398 394 OFFCURVE",
"100 66 OFFCURVE",
"100 52 QCURVE SMOOTH",
"100 0 OFFCURVE",
"124 0 QCURVE SMOOTH",
"152 0 OFFCURVE",
"228 52 OFFCURVE",
"256 52 QCURVE SMOOTH",
"322 52 OFFCURVE",
"538 0 OFFCURVE",
"558 0 QCURVE SMOOTH",
"618 0 OFFCURVE",
"742 168 OFFCURVE",
"758 220 QCURVE",
"756 236 OFFCURVE",
"738 268 OFFCURVE",
"730 258 QCURVE SMOOTH",
"728 256 OFFCURVE",
"708 218 OFFCURVE",
"684 184 OFFCURVE",
"654 146 OFFCURVE",
"620 122 OFFCURVE",
"604 122 QCURVE SMOOTH",
"576 122 OFFCURVE",
"408 194 OFFCURVE",
"352 194 QCURVE SMOOTH",
"338 194 OFFCURVE",
"298 174 OFFCURVE",
"270 156 OFFCURVE",
"270 158 QCURVE",
"420 318 LINE SMOOTH",
"568 478 OFFCURVE",
"868 808 OFFCURVE",
"868 820 QCURVE SMOOTH",
"868 870 OFFCURVE",
"844 870 QCURVE SMOOTH",
"816 870 OFFCURVE",
"740 820 OFFCURVE",
"712 820 QCURVE SMOOTH",
"646 820 OFFCURVE",
"430 870 OFFCURVE",
"410 870 QCURVE SMOOTH",
"350 870 OFFCURVE"
);
}
);
width = 808;
}
);
note = z;
unicode = 007A;
},
{
glyphname = braceleft;
layers = (
{
layerId = "982A60EF-513A-498E-AE80-A9982858EA0F";
paths = (
{
closed = 1;
nodes = (
"134 -250 OFFCURVE",
"236 -250 QCURVE SMOOTH",
"248 -250 OFFCURVE",
"248 -224 QCURVE SMOOTH",
"248 -196 OFFCURVE",
"234 -192 QCURVE",
"188 -188 OFFCURVE",
"88 -76 OFFCURVE",
"88 0 QCURVE SMOOTH",
"88 68 OFFCURVE",
"174 210 OFFCURVE",
"260 362 OFFCURVE",
"260 444 QCURVE SMOOTH",
"260 518 OFFCURVE",
"188 614 OFFCURVE",
"142 616 QCURVE",
"208 618 OFFCURVE",
"340 788 OFFCURVE",
"340 928 QCURVE SMOOTH",
"340 972 OFFCURVE",
"318 1116 OFFCURVE",
"318 1154 QCURVE SMOOTH",
"318 1232 OFFCURVE",
"382 1354 OFFCURVE",
"470 1412 OFFCURVE",
"536 1440 OFFCURVE",
"552 1442 QCURVE SMOOTH",
"562 1444 OFFCURVE",
"582 1480 OFFCURVE",
"582 1492 QCURVE SMOOTH",
"582 1500 OFFCURVE",
"576 1500 QCURVE SMOOTH",
"412 1500 OFFCURVE",
"208 1230 OFFCURVE",
"208 1098 QCURVE SMOOTH",
"208 1054 OFFCURVE",
"242 888 OFFCURVE",
"242 850 QCURVE SMOOTH",
"242 802 OFFCURVE",
"212 734 OFFCURVE",
"146 692 OFFCURVE",
"92 672 OFFCURVE",
"42 658 QCURVE",
"26 634 OFFCURVE",
"26 596 QCURVE SMOOTH",
"26 584 LINE",
"34 582 OFFCURVE",
"84 564 OFFCURVE",
"104 556 OFFCURVE",
"140 536 OFFCURVE",
"156 516 OFFCURVE",
"170 486 OFFCURVE",
"170 466 QCURVE SMOOTH",
"170 412 OFFCURVE",
"88 280 OFFCURVE",
"6 116 OFFCURVE",
"6 24 QCURVE SMOOTH",
"6 -98 OFFCURVE"
);
}
);
width = 550;
}
);
note = braceleft;
unicode = 007B;
},
{
glyphname = bar;
layers = (
{
layerId = "982A60EF-513A-498E-AE80-A9982858EA0F";
paths = (
{
closed = 1;
nodes = (
"-20 -236 OFFCURVE",
"0 -246 OFFCURVE",
"10 -246 QCURVE SMOOTH",
"38 -246 OFFCURVE",
"90 -224 OFFCURVE",
"102 -212 QCURVE",
"438 1532 LINE",
"440 1538 OFFCURVE",
"420 1546 OFFCURVE",
"408 1546 QCURVE SMOOTH",
"352 1546 OFFCURVE",
"320 1514 QCURVE",
"-18 -230 LINE"
);
}
);
width = 406;
}
);
note = bar;
unicode = 007C;
},
{
glyphname = braceright;
layers = (
{
layerId = "982A60EF-513A-498E-AE80-A9982858EA0F";
paths = (
{
closed = 1;
nodes = (
"416 1500 OFFCURVE",
"312 1500 QCURVE SMOOTH",
"300 1500 OFFCURVE",
"300 1474 QCURVE SMOOTH",
"300 1446 OFFCURVE",
"314 1442 QCURVE",
"360 1438 OFFCURVE",
"460 1336 OFFCURVE",
"460 1262 QCURVE SMOOTH",
"460 1190 OFFCURVE",
"292 882 OFFCURVE",
"292 782 QCURVE SMOOTH",
"292 710 OFFCURVE",
"356 618 OFFCURVE",
"400 616 QCURVE",
"332 614 OFFCURVE",
"192 446 OFFCURVE",
"192 322 QCURVE SMOOTH",
"192 274 OFFCURVE",
"232 134 OFFCURVE",
"232 94 QCURVE SMOOTH",
"232 -28 OFFCURVE",
"56 -188 OFFCURVE",
"-2 -192 QCURVE",
"-12 -194 OFFCURVE",
"-34 -230 OFFCURVE",
"-34 -242 QCURVE SMOOTH",
"-34 -250 OFFCURVE",
"-28 -250 QCURVE SMOOTH",
"118 -250 OFFCURVE",
"338 22 OFFCURVE",
"338 158 QCURVE SMOOTH",
"338 200 OFFCURVE",
"304 360 OFFCURVE",
"304 398 QCURVE SMOOTH",
"304 428 OFFCURVE",
"316 478 OFFCURVE",
"346 512 OFFCURVE",
"370 536 OFFCURVE",
"418 558 OFFCURVE",
"444 566 OFFCURVE",
"498 582 OFFCURVE",
"506 584 QCURVE",
"520 612 OFFCURVE",
"520 642 QCURVE SMOOTH",
"520 654 OFFCURVE",
"518 658 QCURVE",
"472 672 OFFCURVE",
"424 692 OFFCURVE",
"376 742 OFFCURVE",
"376 780 QCURVE SMOOTH",
"376 826 OFFCURVE",
"430 936 OFFCURVE",
"496 1026 OFFCURVE",
"550 1170 OFFCURVE",
"550 1246 QCURVE SMOOTH",
"550 1366 OFFCURVE"
);
}
);
width = 536;
}
);
note = braceright;
unicode = 007D;
},
{
glyphname = asciitilde;
layers = (
{
layerId = "982A60EF-513A-498E-AE80-A9982858EA0F";
paths = (
{
closed = 1;
nodes = (
"38 594 OFFCURVE",
"38 538 QCURVE SMOOTH",
"38 530 OFFCURVE",
"50 518 QCURVE",
"96 552 OFFCURVE",
"130 576 OFFCURVE",
"202 606 OFFCURVE",
"236 606 QCURVE SMOOTH",
"324 606 OFFCURVE",
"570 500 OFFCURVE",
"658 500 QCURVE SMOOTH",
"758 500 OFFCURVE",
"928 620 OFFCURVE",
"928 670 QCURVE SMOOTH",
"928 678 OFFCURVE",
"916 690 QCURVE",
"870 656 OFFCURVE",
"836 632 OFFCURVE",
"764 602 OFFCURVE",
"730 602 QCURVE SMOOTH",
"642 602 OFFCURVE",
"402 708 OFFCURVE",
"314 708 QCURVE SMOOTH",
"228 708 OFFCURVE"
);
}
);
width = 946;
}
);
note = asciitilde;
unicode = 007E;
},
{
glyphname = guillemotleft;
layers = (
{
layerId = "982A60EF-513A-498E-AE80-A9982858EA0F";
paths = (
{
closed = 1;
nodes = (
"690 748 OFFCURVE",
"472 596 OFFCURVE",
"366 536 QCURVE",
"342 512 OFFCURVE",
"342 474 QCURVE SMOOTH",
"342 460 OFFCURVE",
"350 454 QCURVE SMOOTH",
"458 372 OFFCURVE",
"650 180 OFFCURVE",
"672 146 QCURVE",
"674 146 OFFCURVE",
"694 154 OFFCURVE",
"710 160 OFFCURVE",
"724 174 OFFCURVE",
"724 190 OFFCURVE",
"710 216 OFFCURVE",
"690 242 OFFCURVE",
"650 292 OFFCURVE",
"634 314 QCURVE SMOOTH",
"508 494 LINE",
"528 510 OFFCURVE",
"678 652 OFFCURVE",
"706 676 QCURVE SMOOTH",
"778 736 OFFCURVE",
"840 794 OFFCURVE",
"846 804 OFFCURVE",
"846 814 QCURVE SMOOTH",
"846 834 OFFCURVE",
"810 846 QCURVE",
"788 826 OFFCURVE"
);
},
{
closed = 1;
nodes = (
"344 652 OFFCURVE",
"372 676 QCURVE SMOOTH",
"444 736 OFFCURVE",
"506 794 OFFCURVE",
"512 804 OFFCURVE",
"512 814 QCURVE SMOOTH",
"512 836 OFFCURVE",
"478 846 QCURVE",
"468 836 OFFCURVE",
"364 754 OFFCURVE",
"142 598 OFFCURVE",
"32 536 QCURVE",
"8 512 OFFCURVE",
"8 474 QCURVE SMOOTH",
"8 460 OFFCURVE",
"16 454 QCURVE SMOOTH",
"124 372 OFFCURVE",
"316 180 OFFCURVE",
"338 146 QCURVE",
"348 148 LINE",
"356 152 OFFCURVE",
"376 160 OFFCURVE",
"392 176 OFFCURVE",
"392 184 QCURVE SMOOTH",
"392 194 OFFCURVE",
"382 212 OFFCURVE",
"350 252 OFFCURVE",
"306 304 OFFCURVE",
"222 422 OFFCURVE",
"174 494 QCURVE",
"194 510 OFFCURVE"
);
}
);
width = 832;
}
);
note = guillemotleft;
unicode = 00AB;
},
{
glyphname = guillemotright;
layers = (
{
layerId = "982A60EF-513A-498E-AE80-A9982858EA0F";
paths = (
{
closed = 1;
nodes = (
"144 838 OFFCURVE",
"130 832 OFFCURVE",
"118 816 OFFCURVE",
"118 804 QCURVE SMOOTH",
"118 782 OFFCURVE",
"204 676 QCURVE",
"332 494 LINE",
"136 314 LINE SMOOTH",
"112 292 OFFCURVE",
"76 262 QCURVE SMOOTH",
"20 214 OFFCURVE",
"-4 188 OFFCURVE",
"-4 176 QCURVE SMOOTH",
"-4 156 OFFCURVE",
"32 146 QCURVE",
"82 188 LINE SMOOTH",
"132 228 OFFCURVE",
"354 382 OFFCURVE",
"476 454 QCURVE",
"496 462 OFFCURVE",
"496 504 QCURVE SMOOTH",
"496 524 OFFCURVE",
"490 536 QCURVE",
"396 602 OFFCURVE",
"196 802 OFFCURVE",
"166 846 QCURVE",
"164 844 OFFCURVE"
);
},
{
closed = 1;
nodes = (
"484 840 OFFCURVE",
"472 836 OFFCURVE",
"458 826 OFFCURVE",
"450 812 OFFCURVE",
"450 802 QCURVE SMOOTH",
"450 784 OFFCURVE",
"538 676 QCURVE",
"666 494 LINE",
"470 314 LINE SMOOTH",
"446 292 OFFCURVE",
"410 262 QCURVE SMOOTH",
"354 214 OFFCURVE",
"330 188 OFFCURVE",
"330 176 QCURVE SMOOTH",
"330 156 OFFCURVE",
"366 146 QCURVE",
"420 188 LINE SMOOTH",
"472 232 OFFCURVE",
"692 386 OFFCURVE",
"808 454 QCURVE",
"830 462 OFFCURVE",
"830 508 QCURVE SMOOTH",
"830 526 OFFCURVE",
"822 536 QCURVE",
"728 604 OFFCURVE",
"526 806 OFFCURVE",
"500 846 QCURVE",
"492 844 LINE"
);
}
);
width = 850;
}
);
note = guillemotright;
unicode = 00BB;
},
{
glyphname = uni1780;
layers = (
{
layerId = "982A60EF-513A-498E-AE80-A9982858EA0F";
paths = (
{
closed = 1;
nodes = (
"900 850 QCURVE SMOOTH",
"1141 850 OFFCURVE",
"1217 772 QCURVE SMOOTH",
"1256 734 OFFCURVE",
"1265 670 QCURVE SMOOTH",
"1268 648 OFFCURVE",
"1268 624 QCURVE SMOOTH",
"1268 577 OFFCURVE",
"1256 519 QCURVE SMOOTH",
"1163 75 LINE SMOOTH",
"1161 65 OFFCURVE",
"1161 56 QCURVE SMOOTH",
"1161 0 OFFCURVE",
"1250 0 QCURVE SMOOTH",
"1300 0 OFFCURVE",
"1311 50 QCURVE SMOOTH",
"1403 485 LINE SMOOTH",
"1420 564 OFFCURVE",
"1420 630 QCURVE SMOOTH",
"1420 672 OFFCURVE",
"1413 710 QCURVE SMOOTH",
"1395 807 OFFCURVE",
"1331 871 QCURVE SMOOTH",
"1268 936 OFFCURVE",
"1160 968 QCURVE SMOOTH",
"1052 1000 OFFCURVE",
"900 1000 QCURVE SMOOTH",
"741 1000 OFFCURVE",
"610 966 QCURVE SMOOTH",
"479 933 OFFCURVE",
"376 865 QCURVE SMOOTH",
"340 841 OFFCURVE",
"340 814 QCURVE",
"409 814 OFFCURVE",
"434 779 QCURVE SMOOTH",
"451 753 OFFCURVE",
"451 723 QCURVE SMOOTH",
"451 712 OFFCURVE",
"449 700 QCURVE SMOOTH",
"316 75 LINE SMOOTH",
"314 65 OFFCURVE",
"314 56 QCURVE SMOOTH",
"314 0 OFFCURVE",
"400 0 QCURVE SMOOTH",
"453 0 OFFCURVE",
"463 50 QCURVE SMOOTH",
"598 679 LINE SMOOTH",
"603 702 OFFCURVE",
"603 724 QCURVE SMOOTH",
"603 766 OFFCURVE",
"585 802 QCURVE",
"721 850 OFFCURVE"
);
},
{
closed = 1;
nodes = (
"750 1052 QCURVE SMOOTH",
"750 1077 OFFCURVE",
"704 1122 QCURVE SMOOTH",
"643 1180 LINE",
"825 1322 LINE",
"985 1139 LINE",
"1206 1334 LINE",
"1240 1281 OFFCURVE",
"1348 1208 QCURVE SMOOTH",
"1457 1135 OFFCURVE",
"1528 1122 QCURVE SMOOTH",
"1555 1117 OFFCURVE",
"1572 1117 QCURVE SMOOTH",
"1600 1117 OFFCURVE",
"1600 1131 QCURVE SMOOTH",
"1600 1154 OFFCURVE",
"1545 1200 QCURVE SMOOTH",
"1490 1246 OFFCURVE",
"1418 1324 QCURVE SMOOTH",
"1347 1402 OFFCURVE",
"1293 1500 OFFCURVE",
"1262 1500 QCURVE SMOOTH",
"1232 1500 OFFCURVE",
"1182 1455 QCURVE SMOOTH",
"1131 1409 LINE",
"1028 1318 LINE",
"949 1409 LINE SMOOTH",
"868 1500 OFFCURVE",
"841 1500 QCURVE SMOOTH",
"814 1500 OFFCURVE",
"771 1448 QCURVE SMOOTH",
"729 1395 OFFCURVE",
"554 1256 OFFCURVE",
"350 1143 QCURVE",
"418 1134 LINE SMOOTH",
"486 1126 OFFCURVE",
"551 1103 QCURVE SMOOTH",
"615 1081 OFFCURVE",
"672 1048 QCURVE SMOOTH",
"705 1029 OFFCURVE",
"725 1029 QCURVE SMOOTH",
"739 1029 OFFCURVE",
"746 1039 QCURVE SMOOTH",
"750 1045 OFFCURVE"
);
}
);
width = 1600;
}
);
note = uni1780;
unicode = 1780;
},
{
glyphname = uni1781;
layers = (
{
layerId = "982A60EF-513A-498E-AE80-A9982858EA0F";
paths = (
{
closed = 1;
nodes = (
"1287 719 OFFCURVE",
"1364 812 QCURVE SMOOTH",
"1442 905 OFFCURVE",
"1464 1012 QCURVE SMOOTH",
"1479 1082 OFFCURVE",
"1479 1143 QCURVE SMOOTH",
"1479 1187 OFFCURVE",
"1471 1226 QCURVE SMOOTH",
"1452 1317 OFFCURVE",
"1388 1378 QCURVE SMOOTH",
"1324 1439 OFFCURVE",
"1214 1470 QCURVE SMOOTH",
"1105 1500 OFFCURVE",
"990 1500 QCURVE SMOOTH",
"800 1500 OFFCURVE",
"688 1420 QCURVE SMOOTH",
"576 1340 OFFCURVE",
"542 1180 QCURVE SMOOTH",
"530 1120 OFFCURVE",
"530 1071 QCURVE SMOOTH",
"530 985 OFFCURVE",
"568 933 QCURVE SMOOTH",
"628 850 OFFCURVE",
"782 850 QCURVE SMOOTH",
"956 850 OFFCURVE",
"996 999 QCURVE SMOOTH",
"1006 1039 OFFCURVE",
"1006 1071 QCURVE SMOOTH",
"1006 1157 OFFCURVE",
"929 1183 QCURVE SMOOTH",
"896 1193 OFFCURVE",
"870 1193 QCURVE SMOOTH",
"812 1193 OFFCURVE",
"789 1140 QCURVE SMOOTH",
"776 1109 OFFCURVE",
"776 1085 QCURVE SMOOTH",
"776 1050 OFFCURVE",
"805 1031 QCURVE SMOOTH",
"824 1018 OFFCURVE",
"824 1011 QCURVE SMOOTH",
"824 1000 OFFCURVE",
"782 1000 QCURVE SMOOTH",
"720 1000 OFFCURVE",
"697 1039 QCURVE SMOOTH",
"683 1062 OFFCURVE",
"683 1099 QCURVE SMOOTH",
"683 1124 OFFCURVE",
"689 1154 QCURVE SMOOTH",
"710 1252 OFFCURVE",
"785 1301 QCURVE SMOOTH",
"860 1350 OFFCURVE",
"990 1350 QCURVE SMOOTH",
"1167 1350 OFFCURVE",
"1259 1273 QCURVE SMOOTH",
"1305 1235 OFFCURVE",
"1320 1177 QCURVE SMOOTH",
"1327 1150 OFFCURVE",
"1327 1118 QCURVE SMOOTH",
"1327 1082 OFFCURVE",
"1318 1041 QCURVE SMOOTH",
"1302 966 OFFCURVE",
"1244 899 QCURVE SMOOTH",
"1186 833 OFFCURVE",
"1085 774 QCURVE SMOOTH",
"440 390 LINE",
"373 346 OFFCURVE",
"363 297 QCURVE SMOOTH",
"355 263 OFFCURVE",
"355 244 QCURVE SMOOTH",
"355 236 OFFCURVE",
"357 231 QCURVE SMOOTH",
"378 168 OFFCURVE",
"505 84 QCURVE SMOOTH",
"632 0 OFFCURVE",
"760 0 QCURVE SMOOTH",
"921 0 OFFCURVE",
"1099 176 QCURVE SMOOTH",
"1274 359 OFFCURVE",
"1328 487 QCURVE SMOOTH",
"1381 614 OFFCURVE",
"1393 670 QCURVE SMOOTH",
"1399 698 OFFCURVE",
"1399 714 QCURVE SMOOTH",
"1399 731 OFFCURVE",
"1393 735 QCURVE",
"1391 735 LINE SMOOTH",
"1375 735 OFFCURVE",
"1290 620 QCURVE SMOOTH",
"1199 497 OFFCURVE",
"1000 292 QCURVE SMOOTH",
"860 150 OFFCURVE",
"760 150 QCURVE SMOOTH",
"679 150 OFFCURVE",
"624 187 QCURVE SMOOTH",
"568 223 OFFCURVE",
"524 262 QCURVE",
"1155 640 LINE SMOOTH"
);
}
);
width = 1540;
}
);
note = uni1781;
unicode = 1781;
},
{
glyphname = uni1782;
layers = (
{
layerId = "982A60EF-513A-498E-AE80-A9982858EA0F";
paths = (
{
closed = 1;
nodes = (
"725 1029 QCURVE SMOOTH",
"739 1029 OFFCURVE",
"746 1039 QCURVE SMOOTH",
"750 1045 OFFCURVE",
"750 1052 QCURVE SMOOTH",
"750 1077 OFFCURVE",
"704 1122 QCURVE SMOOTH",
"643 1180 LINE",
"825 1322 LINE",
"985 1139 LINE",
"1206 1334 LINE",
"1240 1281 OFFCURVE",
"1348 1208 QCURVE SMOOTH",
"1457 1135 OFFCURVE",
"1528 1122 QCURVE SMOOTH",
"1555 1117 OFFCURVE",
"1572 1117 QCURVE SMOOTH",
"1600 1117 OFFCURVE",
"1600 1131 QCURVE SMOOTH",
"1600 1154 OFFCURVE",
"1545 1200 QCURVE SMOOTH",
"1490 1246 OFFCURVE",
"1418 1324 QCURVE SMOOTH",
"1347 1402 OFFCURVE",
"1293 1500 OFFCURVE",
"1262 1500 QCURVE SMOOTH",
"1232 1500 OFFCURVE",
"1182 1455 QCURVE SMOOTH",
"1131 1409 LINE",
"1028 1318 LINE",
"949 1409 LINE SMOOTH",
"868 1500 OFFCURVE",
"841 1500 QCURVE SMOOTH",
"814 1500 OFFCURVE",
"771 1448 QCURVE SMOOTH",
"729 1395 OFFCURVE",
"554 1256 OFFCURVE",
"350 1143 QCURVE",
"418 1134 LINE SMOOTH",
"486 1126 OFFCURVE",
"551 1103 QCURVE SMOOTH",
"615 1081 OFFCURVE",
"672 1048 QCURVE SMOOTH",
"705 1029 OFFCURVE"
);
},
{
closed = 1;
nodes = (
"614 204 LINE SMOOTH",
"746 350 OFFCURVE",
"773 350 QCURVE SMOOTH",
"800 350 OFFCURVE",
"800 300 QCURVE",
"950 300 OFFCURVE",
"950 400 QCURVE SMOOTH",
"950 500 OFFCURVE",
"800 500 QCURVE SMOOTH",
"680 500 OFFCURVE",
"522 326 QCURVE",
"598 679 LINE SMOOTH",
"614 757 OFFCURVE",
"683 804 QCURVE SMOOTH",
"753 850 OFFCURVE",
"900 850 QCURVE SMOOTH",
"1141 850 OFFCURVE",
"1217 772 QCURVE SMOOTH",
"1256 734 OFFCURVE",
"1265 670 QCURVE SMOOTH",
"1268 648 OFFCURVE",
"1268 624 QCURVE SMOOTH",
"1268 577 OFFCURVE",
"1256 519 QCURVE SMOOTH",
"1210 297 LINE SMOOTH",
"1186 186 OFFCURVE",
"1138 173 QCURVE SMOOTH",
"1090 160 OFFCURVE",
"1075 115 QCURVE SMOOTH",
"1072 105 OFFCURVE",
"1072 95 QCURVE SMOOTH",
"1072 62 OFFCURVE",
"1110 35 QCURVE SMOOTH",
"1160 0 OFFCURVE",
"1230 0 QCURVE SMOOTH",
"1300 0 OFFCURVE",
"1322 100 QCURVE SMOOTH",
"1403 485 LINE SMOOTH",
"1420 564 OFFCURVE",
"1420 630 QCURVE SMOOTH",
"1420 672 OFFCURVE",
"1413 710 QCURVE SMOOTH",
"1395 807 OFFCURVE",
"1331 871 QCURVE SMOOTH",
"1268 936 OFFCURVE",
"1160 968 QCURVE SMOOTH",
"1052 1000 OFFCURVE",
"900 1000 QCURVE SMOOTH",
"706 1000 OFFCURVE",
"593 925 QCURVE SMOOTH",
"481 850 OFFCURVE",
"449 700 QCURVE SMOOTH",
"316 75 LINE SMOOTH",
"314 65 OFFCURVE",
"314 56 QCURVE SMOOTH",
"314 0 OFFCURVE",
"400 0 QCURVE SMOOTH",
"433 0 OFFCURVE",
"482 57 QCURVE SMOOTH"
);
}
);
width = 1600;
}
);
note = uni1782;
unicode = 1782;
},
{
glyphname = uni1783;
layers = (
{
layerId = "982A60EF-513A-498E-AE80-A9982858EA0F";
paths = (
{
closed = 1;
nodes = (
"473 1153 OFFCURVE",
"442 1178 QCURVE SMOOTH",
"420 1197 OFFCURVE",
"420 1228 QCURVE SMOOTH",
"420 1238 OFFCURVE",
"422 1250 QCURVE SMOOTH",
"443 1350 OFFCURVE",
"530 1350 QCURVE SMOOTH",
"573 1350 OFFCURVE",
"573 1302 QCURVE SMOOTH",
"573 1286 OFFCURVE",
"569 1266 QCURVE SMOOTH",
"545 1150 LINE"
);
},
{
closed = 1;
nodes = (
"1547 0 QCURVE SMOOTH",
"1747 0 OFFCURVE",
"1866 88 QCURVE SMOOTH",
"1984 175 OFFCURVE",
"2021 350 QCURVE SMOOTH",
"2138 900 LINE SMOOTH",
"2144 930 OFFCURVE",
"2144 959 QCURVE SMOOTH",
"2144 1011 OFFCURVE",
"2123 1058 QCURVE SMOOTH",
"2090 1130 OFFCURVE",
"2005 1188 QCURVE",
"2096 1286 LINE",
"2146 1228 OFFCURVE",
"2215 1228 QCURVE SMOOTH",
"2224 1228 LINE SMOOTH",
"2299 1231 OFFCURVE",
"2350 1266 QCURVE SMOOTH",
"2400 1300 LINE",
"2390 1299 OFFCURVE",
"2380 1299 QCURVE SMOOTH",
"2319 1299 OFFCURVE",
"2258 1342 QCURVE SMOOTH",
"2186 1392 OFFCURVE",
"2114 1500 QCURVE",
"2072 1427 OFFCURVE",
"1983 1327 QCURVE SMOOTH",
"1894 1227 OFFCURVE",
"1747 1141 QCURVE",
"1881 1133 OFFCURVE",
"1944 1066 QCURVE SMOOTH",
"1995 1011 OFFCURVE",
"1995 957 QCURVE SMOOTH",
"1995 945 OFFCURVE",
"1992 933 QCURVE SMOOTH",
"1874 375 LINE SMOOTH",
"1850 263 OFFCURVE",
"1768 206 QCURVE SMOOTH",
"1686 150 OFFCURVE",
"1547 150 QCURVE SMOOTH",
"1390 150 OFFCURVE",
"1322 200 QCURVE SMOOTH",
"1269 239 OFFCURVE",
"1269 307 QCURVE SMOOTH",
"1269 327 OFFCURVE",
"1274 350 QCURVE SMOOTH",
"1391 900 LINE SMOOTH",
"1397 930 OFFCURVE",
"1397 959 QCURVE SMOOTH",
"1397 1011 OFFCURVE",
"1376 1058 QCURVE SMOOTH",
"1343 1130 OFFCURVE",
"1258 1188 QCURVE",
"1349 1286 LINE",
"1398 1229 OFFCURVE",
"1493 1229 QCURVE SMOOTH",
"1508 1229 LINE SMOOTH",
"1614 1233 OFFCURVE",
"1700 1340 QCURVE",
"1653 1321 OFFCURVE",
"1611 1321 QCURVE SMOOTH",
"1563 1321 OFFCURVE",
"1520 1346 QCURVE SMOOTH",
"1439 1392 OFFCURVE",
"1367 1500 QCURVE",
"1325 1427 OFFCURVE",
"1236 1327 QCURVE SMOOTH",
"1147 1227 OFFCURVE",
"1000 1141 QCURVE",
"1134 1133 OFFCURVE",
"1197 1066 QCURVE SMOOTH",
"1248 1011 OFFCURVE",
"1248 957 QCURVE SMOOTH",
"1248 945 OFFCURVE",
"1245 933 QCURVE SMOOTH",
"1122 356 LINE",
"1094 253 OFFCURVE",
"1014 201 QCURVE SMOOTH",
"933 150 OFFCURVE",
"800 150 QCURVE SMOOTH",
"643 150 OFFCURVE",
"575 200 QCURVE SMOOTH",
"522 239 OFFCURVE",
"522 307 QCURVE SMOOTH",
"522 327 OFFCURVE",
"527 350 QCURVE SMOOTH",
"718 1247 LINE SMOOTH",
"728 1293 OFFCURVE",
"728 1331 QCURVE SMOOTH",
"728 1397 OFFCURVE",
"698 1437 QCURVE SMOOTH",
"651 1500 OFFCURVE",
"530 1500 QCURVE SMOOTH",
"425 1500 OFFCURVE",
"362 1449 QCURVE SMOOTH",
"299 1398 OFFCURVE",
"277 1295 QCURVE SMOOTH",
"267 1250 OFFCURVE",
"267 1212 QCURVE SMOOTH",
"267 1134 OFFCURVE",
"307 1085 QCURVE SMOOTH",
"366 1011 OFFCURVE",
"513 1001 QCURVE",
"379 375 LINE SMOOTH",
"368 324 OFFCURVE",
"368 280 QCURVE SMOOTH",
"368 163 OFFCURVE",
"445 94 QCURVE SMOOTH",
"550 0 OFFCURVE",
"800 0 QCURVE SMOOTH",
"920 0 OFFCURVE",
"1010 31 QCURVE SMOOTH",
"1101 63 OFFCURVE",
"1162 126 QCURVE",
"1210 63 OFFCURVE",
"1306 31 QCURVE SMOOTH",
"1402 0 OFFCURVE"
);
}
);
width = 2250;
}
);
note = uni1783;
unicode = 1783;
},
{
glyphname = uni1784;
layers = (
{
layerId = "982A60EF-513A-498E-AE80-A9982858EA0F";
paths = (
{
closed = 1;
nodes = (
"1102 1308 QCURVE SMOOTH",
"1102 1324 OFFCURVE",
"1107 1340 QCURVE SMOOTH",
"1120 1380 OFFCURVE",
"1180 1380 QCURVE SMOOTH",
"1243 1380 OFFCURVE",
"1243 1334 QCURVE SMOOTH",
"1243 1325 OFFCURVE",
"1241 1315 QCURVE SMOOTH",
"1231 1269 OFFCURVE",
"1114 1256 QCURVE",
"1102 1283 OFFCURVE"
);
},
{
closed = 1;
nodes = (
"1131 1068 QCURVE SMOOTH",
"1256 1004 OFFCURVE",
"1287 907 QCURVE SMOOTH",
"1309 837 OFFCURVE",
"1309 786 QCURVE SMOOTH",
"1309 767 OFFCURVE",
"1306 750 QCURVE SMOOTH",
"1182 167 LINE",
"868 435 LINE",
"498 208 LINE",
"607 721 LINE SMOOTH",
"626 810 OFFCURVE",
"626 868 QCURVE SMOOTH",
"626 920 OFFCURVE",
"610 946 QCURVE SMOOTH",
"576 1000 OFFCURVE",
"500 1000 QCURVE SMOOTH",
"400 1000 OFFCURVE",
"385 925 QCURVE SMOOTH",
"382 908 OFFCURVE",
"382 893 QCURVE SMOOTH",
"382 844 OFFCURVE",
"420 825 QCURVE SMOOTH",
"461 805 OFFCURVE",
"461 765 QCURVE SMOOTH",
"461 757 OFFCURVE",
"459 747 QCURVE SMOOTH",
"321 100 LINE SMOOTH",
"317 79 OFFCURVE",
"317 62 QCURVE SMOOTH",
"317 0 OFFCURVE",
"377 0 QCURVE SMOOTH",
"453 0 OFFCURVE",
"553 63 QCURVE SMOOTH",
"853 250 LINE",
"1074 63 LINE SMOOTH",
"1147 0 OFFCURVE",
"1224 0 QCURVE SMOOTH",
"1300 0 OFFCURVE",
"1321 100 QCURVE SMOOTH",
"1454 725 LINE SMOOTH",
"1462 765 OFFCURVE",
"1462 806 QCURVE SMOOTH",
"1462 888 OFFCURVE",
"1429 975 QCURVE SMOOTH",
"1382 1095 OFFCURVE",
"1273 1153 QCURVE",
"1349 1197 OFFCURVE",
"1367 1275 QCURVE SMOOTH",
"1376 1315 OFFCURVE",
"1376 1348 QCURVE SMOOTH",
"1376 1408 OFFCURVE",
"1346 1444 QCURVE SMOOTH",
"1299 1500 OFFCURVE",
"1180 1500 QCURVE SMOOTH",
"1004 1500 OFFCURVE",
"975 1407 QCURVE SMOOTH",
"960 1359 OFFCURVE",
"960 1313 QCURVE SMOOTH",
"960 1282 OFFCURVE",
"967 1251 QCURVE",
"845 1255 OFFCURVE",
"792 1298 QCURVE SMOOTH",
"752 1330 OFFCURVE",
"752 1383 QCURVE SMOOTH",
"752 1401 OFFCURVE",
"756 1420 QCURVE SMOOTH",
"774 1502 OFFCURVE",
"853 1563 QCURVE SMOOTH",
"932 1625 OFFCURVE",
"1117 1661 QCURVE",
"1356 1719 OFFCURVE",
"1462 1811 QCURVE SMOOTH",
"1568 1904 OFFCURVE",
"1597 2038 QCURVE SMOOTH",
"1602 2057 OFFCURVE",
"1602 2072 QCURVE SMOOTH",
"1602 2092 OFFCURVE",
"1594 2106 QCURVE SMOOTH",
"1581 2132 OFFCURVE",
"1544 2139 QCURVE SMOOTH",
"1533 2141 OFFCURVE",
"1522 2141 QCURVE SMOOTH",
"1500 2141 OFFCURVE",
"1483 2129 QCURVE SMOOTH",
"1460 2111 OFFCURVE",
"1449 2068 QCURVE SMOOTH",
"1430 1979 OFFCURVE",
"1352 1914 QCURVE SMOOTH",
"1274 1849 OFFCURVE",
"1082 1803 QCURVE",
"850 1756 OFFCURVE",
"743 1666 QCURVE SMOOTH",
"636 1577 OFFCURVE",
"609 1451 QCURVE SMOOTH",
"599 1403 OFFCURVE",
"599 1361 QCURVE SMOOTH",
"599 1252 OFFCURVE",
"669 1188 QCURVE SMOOTH",
"767 1100 OFFCURVE",
"1000 1100 QCURVE SMOOTH",
"1039 1100 OFFCURVE",
"1073 1102 QCURVE",
"1099 1084 OFFCURVE"
);
}
);
width = 1600;
}
);
note = uni1784;
unicode = 1784;
},
{
glyphname = uni1785;
layers = (
{
layerId = "982A60EF-513A-498E-AE80-A9982858EA0F";
paths = (
{
closed = 1;
nodes = (
"725 1029 QCURVE SMOOTH",
"739 1029 OFFCURVE",
"746 1039 QCURVE SMOOTH",
"750 1045 OFFCURVE",
"750 1052 QCURVE SMOOTH",
"750 1077 OFFCURVE",
"704 1122 QCURVE SMOOTH",
"643 1180 LINE",
"825 1322 LINE",
"985 1139 LINE",
"1206 1334 LINE",
"1240 1281 OFFCURVE",
"1348 1208 QCURVE SMOOTH",
"1457 1135 OFFCURVE",
"1528 1122 QCURVE SMOOTH",
"1555 1117 OFFCURVE",
"1572 1117 QCURVE SMOOTH",
"1600 1117 OFFCURVE",
"1600 1131 QCURVE SMOOTH",
"1600 1154 OFFCURVE",
"1545 1200 QCURVE SMOOTH",
"1490 1246 OFFCURVE",
"1418 1324 QCURVE SMOOTH",
"1347 1402 OFFCURVE",
"1293 1500 OFFCURVE",
"1262 1500 QCURVE SMOOTH",
"1232 1500 OFFCURVE",
"1182 1455 QCURVE SMOOTH",
"1131 1409 LINE",
"1028 1318 LINE",
"949 1409 LINE SMOOTH",
"868 1500 OFFCURVE",
"841 1500 QCURVE SMOOTH",
"814 1500 OFFCURVE",
"771 1448 QCURVE SMOOTH",
"729 1395 OFFCURVE",
"554 1256 OFFCURVE",
"350 1143 QCURVE",
"418 1134 LINE SMOOTH",
"486 1126 OFFCURVE",
"551 1103 QCURVE SMOOTH",
"615 1081 OFFCURVE",
"672 1048 QCURVE SMOOTH",
"705 1029 OFFCURVE"
);
},
{
closed = 1;
nodes = (
"642 886 OFFCURVE",
"642 915 QCURVE SMOOTH",
"642 968 OFFCURVE",
"617 1000 QCURVE SMOOTH",
"588 1036 OFFCURVE",
"530 1036 QCURVE SMOOTH",
"511 1036 OFFCURVE",
"489 1032 QCURVE SMOOTH",
"400 1015 OFFCURVE",
"400 953 QCURVE SMOOTH",
"400 891 OFFCURVE",
"438 860 QCURVE SMOOTH",
"462 840 OFFCURVE",
"462 789 QCURVE SMOOTH",
"462 759 OFFCURVE",
"453 717 QCURVE SMOOTH",
"380 375 LINE SMOOTH",
"371 332 OFFCURVE",
"371 293 QCURVE SMOOTH",
"371 254 OFFCURVE",
"380 219 QCURVE SMOOTH",
"399 150 OFFCURVE",
"455 100 QCURVE SMOOTH",
"566 0 OFFCURVE",
"832 0 QCURVE SMOOTH",
"1066 0 OFFCURVE",
"1202 88 QCURVE SMOOTH",
"1337 175 OFFCURVE",
"1374 350 QCURVE SMOOTH",
"1491 898 LINE SMOOTH",
"1494 910 OFFCURVE",
"1494 921 QCURVE SMOOTH",
"1494 955 OFFCURVE",
"1467 975 QCURVE SMOOTH",
"1432 1000 OFFCURVE",
"1350 1000 QCURVE SMOOTH",
"1280 1000 OFFCURVE",
"1240 950 QCURVE SMOOTH",
"1200 900 OFFCURVE",
"1200 825 QCURVE SMOOTH",
"1200 750 OFFCURVE",
"1295 700 QCURVE",
"1225 371 LINE SMOOTH",
"1203 268 OFFCURVE",
"1112 209 QCURVE SMOOTH",
"1021 150 OFFCURVE",
"832 150 QCURVE SMOOTH",
"625 150 OFFCURVE",
"566 202 QCURVE SMOOTH",
"523 241 OFFCURVE",
"523 304 QCURVE SMOOTH",
"523 325 OFFCURVE",
"528 350 QCURVE SMOOTH",
"635 851 LINE SMOOTH"
);
}
);
width = 1600;
}
);
note = uni1785;
unicode = 1785;
},
{
glyphname = uni1786;
layers = (
{
layerId = "982A60EF-513A-498E-AE80-A9982858EA0F";
paths = (
{
closed = 1;
nodes = (
"725 1029 QCURVE SMOOTH",
"739 1029 OFFCURVE",
"746 1039 QCURVE SMOOTH",
"750 1045 OFFCURVE",
"750 1052 QCURVE SMOOTH",
"750 1077 OFFCURVE",
"704 1122 QCURVE SMOOTH",
"643 1180 LINE",
"825 1322 LINE",
"985 1139 LINE",
"1206 1334 LINE",
"1240 1281 OFFCURVE",
"1348 1208 QCURVE SMOOTH",
"1457 1135 OFFCURVE",
"1528 1122 QCURVE SMOOTH",
"1555 1117 OFFCURVE",
"1572 1117 QCURVE SMOOTH",
"1600 1117 OFFCURVE",
"1600 1131 QCURVE SMOOTH",
"1600 1154 OFFCURVE",
"1545 1200 QCURVE SMOOTH",
"1490 1246 OFFCURVE",
"1418 1324 QCURVE SMOOTH",
"1347 1402 OFFCURVE",
"1293 1500 OFFCURVE",
"1262 1500 QCURVE SMOOTH",
"1232 1500 OFFCURVE",
"1182 1455 QCURVE SMOOTH",
"1131 1409 LINE",
"1028 1318 LINE",
"949 1409 LINE SMOOTH",
"868 1500 OFFCURVE",
"841 1500 QCURVE SMOOTH",
"814 1500 OFFCURVE",
"771 1448 QCURVE SMOOTH",
"729 1395 OFFCURVE",
"554 1256 OFFCURVE",
"350 1143 QCURVE",
"418 1134 LINE SMOOTH",
"486 1126 OFFCURVE",
"551 1103 QCURVE SMOOTH",
"615 1081 OFFCURVE",
"672 1048 QCURVE SMOOTH",
"705 1029 OFFCURVE"
);
},
{
closed = 1;
nodes = (
"938 516 QCURVE SMOOTH",
"938 525 OFFCURVE",
"941 537 QCURVE SMOOTH",
"954 597 OFFCURVE",
"989 625 QCURVE SMOOTH",
"1021 650 OFFCURVE",
"1070 650 QCURVE SMOOTH",
"1168 650 OFFCURVE",
"1209 592 QCURVE SMOOTH",
"1238 551 OFFCURVE",
"1238 480 QCURVE SMOOTH",
"1238 432 OFFCURVE",
"1225 371 QCURVE SMOOTH",
"1203 268 OFFCURVE",
"1112 209 QCURVE SMOOTH",
"1021 150 OFFCURVE",
"930 150 QCURVE SMOOTH",
"808 150 OFFCURVE",
"764 188 QCURVE SMOOTH",
"633 300 OFFCURVE",
"550 300 QCURVE SMOOTH",
"533 300 OFFCURVE",
"517 298 QCURVE",
"635 851 LINE SMOOTH",
"642 886 OFFCURVE",
"642 915 QCURVE SMOOTH",
"642 968 OFFCURVE",
"617 1000 QCURVE SMOOTH",
"588 1036 OFFCURVE",
"530 1036 QCURVE SMOOTH",
"511 1036 OFFCURVE",
"489 1032 QCURVE SMOOTH",
"400 1015 OFFCURVE",
"400 953 QCURVE SMOOTH",
"400 891 OFFCURVE",
"438 860 QCURVE SMOOTH",
"462 840 OFFCURVE",
"462 789 QCURVE SMOOTH",
"462 759 OFFCURVE",
"453 717 QCURVE SMOOTH",
"321 99 LINE SMOOTH",
"317 82 OFFCURVE",
"317 68 QCURVE SMOOTH",
"317 0 OFFCURVE",
"400 0 QCURVE SMOOTH",
"453 0 OFFCURVE",
"475 98 QCURVE SMOOTH",
"486 150 OFFCURVE",
"550 150 QCURVE SMOOTH",
"588 150 OFFCURVE",
"687 75 QCURVE SMOOTH",
"785 0 OFFCURVE",
"930 0 QCURVE SMOOTH",
"1066 0 OFFCURVE",
"1202 88 QCURVE SMOOTH",
"1337 175 OFFCURVE",
"1374 350 QCURVE SMOOTH",
"1393 437 OFFCURVE",
"1393 507 QCURVE SMOOTH",
"1393 628 OFFCURVE",
"1337 700 QCURVE SMOOTH",
"1259 800 OFFCURVE",
"1070 800 QCURVE SMOOTH",
"960 800 OFFCURVE",
"892 747 QCURVE SMOOTH",
"821 691 OFFCURVE",
"796 577 QCURVE SMOOTH",
"787 533 OFFCURVE",
"787 496 QCURVE SMOOTH",
"787 424 OFFCURVE",
"821 381 QCURVE SMOOTH",
"875 312 OFFCURVE",
"1017 312 QCURVE SMOOTH",
"1092 312 OFFCURVE",
"1092 387 QCURVE SMOOTH",
"1092 462 OFFCURVE",
"1017 462 QCURVE SMOOTH",
"969 462 OFFCURVE",
"950 483 QCURVE SMOOTH",
"938 495 OFFCURVE"
);
}
);
width = 1600;
}
);
note = uni1786;
unicode = 1786;
},
{
glyphname = uni1787;
layers = (
{
layerId = "982A60EF-513A-498E-AE80-A9982858EA0F";
paths = (
{
closed = 1;
nodes = (
"725 1029 QCURVE SMOOTH",
"739 1029 OFFCURVE",
"746 1039 QCURVE SMOOTH",
"750 1045 OFFCURVE",
"750 1052 QCURVE SMOOTH",
"750 1077 OFFCURVE",
"704 1122 QCURVE SMOOTH",
"660 1164 LINE",
"835 1310 LINE",
"900 1236 OFFCURVE",
"994 1193 QCURVE SMOOTH",
"1088 1150 OFFCURVE",
"1200 1150 QCURVE SMOOTH",
"1371 1150 OFFCURVE",
"1483 1275 QCURVE SMOOTH",
"1596 1399 OFFCURVE",
"1650 1649 QCURVE SMOOTH",
"1659 1684 OFFCURVE",
"1659 1710 QCURVE SMOOTH",
"1659 1727 OFFCURVE",
"1655 1740 QCURVE SMOOTH",
"1647 1773 OFFCURVE",
"1616 1782 QCURVE SMOOTH",
"1609 1784 OFFCURVE",
"1602 1784 QCURVE SMOOTH",
"1581 1784 OFFCURVE",
"1562 1763 QCURVE SMOOTH",
"1539 1737 OFFCURVE",
"1522 1674 QCURVE SMOOTH",
"1471 1487 OFFCURVE",
"1391 1394 QCURVE SMOOTH",
"1311 1300 OFFCURVE",
"1200 1300 QCURVE SMOOTH",
"1122 1300 OFFCURVE",
"1059 1327 QCURVE SMOOTH",
"997 1355 OFFCURVE",
"949 1409 QCURVE SMOOTH",
"868 1500 OFFCURVE",
"841 1500 QCURVE SMOOTH",
"814 1500 OFFCURVE",
"771 1448 QCURVE SMOOTH",
"729 1395 OFFCURVE",
"554 1256 OFFCURVE",
"350 1143 QCURVE",
"418 1134 LINE SMOOTH",
"486 1126 OFFCURVE",
"551 1103 QCURVE SMOOTH",
"615 1081 OFFCURVE",
"672 1048 QCURVE SMOOTH",
"705 1029 OFFCURVE"
);
},
{
closed = 1;
nodes = (
"642 886 OFFCURVE",
"642 915 QCURVE SMOOTH",
"642 968 OFFCURVE",
"617 1000 QCURVE SMOOTH",
"588 1036 OFFCURVE",
"530 1036 QCURVE SMOOTH",
"511 1036 OFFCURVE",
"489 1032 QCURVE SMOOTH",
"400 1015 OFFCURVE",
"400 953 QCURVE SMOOTH",
"400 891 OFFCURVE",
"438 860 QCURVE SMOOTH",
"462 840 OFFCURVE",
"462 789 QCURVE SMOOTH",
"462 759 OFFCURVE",
"453 717 QCURVE SMOOTH",
"321 100 LINE SMOOTH",
"317 79 OFFCURVE",
"317 62 QCURVE SMOOTH",
"317 0 OFFCURVE",
"377 0 QCURVE SMOOTH",
"453 0 OFFCURVE",
"553 63 QCURVE SMOOTH",
"853 250 LINE",
"1074 63 LINE SMOOTH",
"1147 0 OFFCURVE",
"1224 0 QCURVE SMOOTH",
"1300 0 OFFCURVE",
"1321 100 QCURVE SMOOTH",
"1470 799 LINE SMOOTH",
"1479 840 OFFCURVE",
"1479 872 QCURVE SMOOTH",
"1479 932 OFFCURVE",
"1448 959 QCURVE SMOOTH",
"1400 1000 OFFCURVE",
"1350 1000 QCURVE SMOOTH",
"1300 1000 OFFCURVE",
"1300 967 QCURVE SMOOTH",
"1300 934 OFFCURVE",
"1317 909 QCURVE SMOOTH",
"1327 894 OFFCURVE",
"1327 868 QCURVE SMOOTH",
"1327 849 OFFCURVE",
"1322 824 QCURVE SMOOTH",
"1182 167 LINE",
"868 435 LINE",
"498 208 LINE",
"635 851 LINE SMOOTH"
);
}
);
width = 1600;
}
);
note = uni1787;
unicode = 1787;
},
{
glyphname = uni1788;
layers = (
{
layerId = "982A60EF-513A-498E-AE80-A9982858EA0F";
paths = (
{
closed = 1;
nodes = (
"1116 324 OFFCURVE",
"1116 280 QCURVE SMOOTH",
"1116 163 OFFCURVE",
"1193 94 QCURVE SMOOTH",
"1298 0 OFFCURVE",
"1548 0 QCURVE SMOOTH",
"1668 0 OFFCURVE",
"1758 31 QCURVE SMOOTH",
"1849 63 OFFCURVE",
"1910 126 QCURVE",
"1958 63 OFFCURVE",
"2054 31 QCURVE SMOOTH",
"2150 0 OFFCURVE",
"2295 0 QCURVE SMOOTH",
"2495 0 OFFCURVE",
"2614 88 QCURVE SMOOTH",
"2732 175 OFFCURVE",
"2769 350 QCURVE SMOOTH",
"2886 900 LINE SMOOTH",
"2892 930 OFFCURVE",
"2892 959 QCURVE SMOOTH",
"2892 1011 OFFCURVE",
"2871 1058 QCURVE SMOOTH",
"2838 1130 OFFCURVE",
"2753 1188 QCURVE",
"2844 1286 LINE",
"2894 1228 OFFCURVE",
"2963 1228 QCURVE SMOOTH",
"2972 1228 LINE SMOOTH",
"3047 1231 OFFCURVE",
"3098 1266 QCURVE SMOOTH",
"3148 1300 LINE",
"3138 1299 OFFCURVE",
"3128 1299 QCURVE SMOOTH",
"3067 1299 OFFCURVE",
"3006 1342 QCURVE SMOOTH",
"2934 1392 OFFCURVE",
"2862 1500 QCURVE",
"2820 1427 OFFCURVE",
"2731 1327 QCURVE SMOOTH",
"2642 1227 OFFCURVE",
"2495 1141 QCURVE",
"2629 1133 OFFCURVE",
"2692 1066 QCURVE SMOOTH",
"2743 1011 OFFCURVE",
"2743 957 QCURVE SMOOTH",
"2743 945 OFFCURVE",
"2740 933 QCURVE SMOOTH",
"2622 375 LINE SMOOTH",
"2598 263 OFFCURVE",
"2516 206 QCURVE SMOOTH",
"2434 150 OFFCURVE",
"2295 150 QCURVE SMOOTH",
"2138 150 OFFCURVE",
"2070 200 QCURVE SMOOTH",
"2017 239 OFFCURVE",
"2017 307 QCURVE SMOOTH",
"2017 327 OFFCURVE",
"2022 350 QCURVE SMOOTH",
"2139 900 LINE SMOOTH",
"2145 930 OFFCURVE",
"2145 959 QCURVE SMOOTH",
"2145 1011 OFFCURVE",
"2124 1058 QCURVE SMOOTH",
"2091 1130 OFFCURVE",
"2006 1188 QCURVE",
"2097 1286 LINE",
"2146 1229 OFFCURVE",
"2241 1229 QCURVE SMOOTH",
"2256 1229 LINE SMOOTH",
"2362 1233 OFFCURVE",
"2448 1340 QCURVE",
"2401 1321 OFFCURVE",
"2359 1321 QCURVE SMOOTH",
"2311 1321 OFFCURVE",
"2268 1346 QCURVE SMOOTH",
"2187 1392 OFFCURVE",
"2115 1500 QCURVE",
"2073 1427 OFFCURVE",
"1984 1327 QCURVE SMOOTH",
"1895 1227 OFFCURVE",
"1748 1141 QCURVE",
"1882 1133 OFFCURVE",
"1945 1066 QCURVE SMOOTH",
"1996 1011 OFFCURVE",
"1996 957 QCURVE SMOOTH",
"1996 945 OFFCURVE",
"1993 933 QCURVE SMOOTH",
"1870 356 LINE",
"1842 253 OFFCURVE",
"1762 201 QCURVE SMOOTH",
"1681 150 OFFCURVE",
"1548 150 QCURVE SMOOTH",
"1391 150 OFFCURVE",
"1323 200 QCURVE SMOOTH",
"1270 239 OFFCURVE",
"1270 307 QCURVE SMOOTH",
"1270 327 OFFCURVE",
"1275 350 QCURVE SMOOTH",
"1411 985 LINE SMOOTH",
"1428 1064 OFFCURVE",
"1428 1130 QCURVE SMOOTH",
"1428 1172 OFFCURVE",
"1421 1210 QCURVE SMOOTH",
"1403 1307 OFFCURVE",
"1339 1371 QCURVE SMOOTH",
"1276 1436 OFFCURVE",
"1168 1468 QCURVE SMOOTH",
"1060 1500 OFFCURVE",
"978 1500 QCURVE SMOOTH",
"814 1500 OFFCURVE",
"701 1425 QCURVE SMOOTH",
"589 1350 OFFCURVE",
"557 1200 QCURVE SMOOTH",
"344 200 LINE SMOOTH",
"336 162 OFFCURVE",
"336 131 QCURVE SMOOTH",
"336 81 OFFCURVE",
"358 50 QCURVE SMOOTH",
"394 0 OFFCURVE",
"447 0 QCURVE SMOOTH",
"500 0 OFFCURVE",
"597 101 QCURVE SMOOTH",
"694 201 OFFCURVE",
"721 294 QCURVE SMOOTH",
"730 328 OFFCURVE",
"730 357 QCURVE SMOOTH",
"730 408 OFFCURVE",
"701 444 QCURVE SMOOTH",
"654 500 OFFCURVE",
"600 500 QCURVE SMOOTH",
"579 500 OFFCURVE",
"560 498 QCURVE",
"706 1179 LINE SMOOTH",
"722 1257 OFFCURVE",
"791 1304 QCURVE SMOOTH",
"861 1350 OFFCURVE",
"978 1350 QCURVE SMOOTH",
"1149 1350 OFFCURVE",
"1225 1272 QCURVE SMOOTH",
"1264 1234 OFFCURVE",
"1273 1170 QCURVE SMOOTH",
"1276 1148 OFFCURVE",
"1276 1124 QCURVE SMOOTH",
"1276 1077 OFFCURVE",
"1264 1019 QCURVE SMOOTH",
"1127 375 LINE SMOOTH"
);
}
);
width = 2998;
}
);
note = uni1788;
unicode = 1788;
},
{
glyphname = uni1789;
layers = (
{
layerId = "982A60EF-513A-498E-AE80-A9982858EA0F";
paths = (
{
closed = 1;
nodes = (
"560 500 OFFCURVE",
"651 500 QCURVE SMOOTH",
"715 500 OFFCURVE",
"743 484 QCURVE SMOOTH",
"761 474 OFFCURVE",
"761 442 QCURVE SMOOTH",
"761 425 OFFCURVE",
"756 402 QCURVE SMOOTH",
"730 285 OFFCURVE",
"653 218 QCURVE SMOOTH",
"575 150 OFFCURVE",
"486 150 QCURVE",
"543 421 LINE SMOOTH"
);
},
{
closed = 1;
nodes = (
"1765 1275 QCURVE SMOOTH",
"1850 1350 OFFCURVE",
"2000 1350 QCURVE SMOOTH",
"2217 1350 OFFCURVE",
"2281 1255 QCURVE SMOOTH",
"2320 1198 OFFCURVE",
"2320 1104 QCURVE SMOOTH",
"2320 1045 OFFCURVE",
"2304 971 QCURVE SMOOTH",
"2160 297 LINE SMOOTH",
"2136 186 OFFCURVE",
"2088 173 QCURVE SMOOTH",
"2040 160 OFFCURVE",
"2025 115 QCURVE SMOOTH",
"2022 105 OFFCURVE",
"2022 95 QCURVE SMOOTH",
"2022 62 OFFCURVE",
"2060 35 QCURVE SMOOTH",
"2110 0 OFFCURVE",
"2180 0 QCURVE SMOOTH",
"2250 0 OFFCURVE",
"2272 100 QCURVE SMOOTH",
"2451 941 LINE SMOOTH",
"2474 1046 OFFCURVE",
"2474 1131 QCURVE SMOOTH",
"2474 1160 OFFCURVE",
"2471 1186 QCURVE SMOOTH",
"2461 1291 OFFCURVE",
"2410 1360 QCURVE SMOOTH",
"2310 1500 OFFCURVE",
"2000 1500 QCURVE SMOOTH",
"1839 1500 OFFCURVE",
"1747 1440 QCURVE SMOOTH",
"1655 1380 OFFCURVE",
"1583 1260 QCURVE",
"1562 1312 OFFCURVE",
"1526 1353 QCURVE SMOOTH",
"1392 1507 OFFCURVE",
"1329 1507 QCURVE SMOOTH",
"1266 1507 OFFCURVE",
"1216 1460 QCURVE SMOOTH",
"1165 1414 OFFCURVE",
"1094 1333 QCURVE",
"1047 1417 LINE SMOOTH",
"1000 1500 OFFCURVE",
"917 1500 QCURVE SMOOTH",
"834 1500 OFFCURVE",
"766 1434 QCURVE SMOOTH",
"698 1369 LINE SMOOTH",
"562 1237 OFFCURVE",
"519 1036 QCURVE SMOOTH",
"343 200 LINE SMOOTH",
"335 163 OFFCURVE",
"335 132 QCURVE SMOOTH",
"335 81 OFFCURVE",
"357 50 QCURVE SMOOTH",
"393 0 OFFCURVE",
"486 0 QCURVE SMOOTH",
"614 0 OFFCURVE",
"742 102 QCURVE SMOOTH",
"870 203 OFFCURVE",
"903 382 QCURVE SMOOTH",
"908 411 OFFCURVE",
"908 437 QCURVE SMOOTH",
"908 561 OFFCURVE",
"799 625 QCURVE SMOOTH",
"755 650 OFFCURVE",
"651 650 QCURVE SMOOTH",
"620 650 OFFCURVE",
"590 636 QCURVE",
"668 1006 LINE SMOOTH",
"702 1163 OFFCURVE",
"796 1257 QCURVE SMOOTH",
"889 1350 OFFCURVE",
"916 1350 QCURVE SMOOTH",
"943 1350 OFFCURVE",
"1007 1225 QCURVE SMOOTH",
"1070 1100 LINE",
"1172 1225 LINE SMOOTH",
"1274 1350 OFFCURVE",
"1306 1350 QCURVE SMOOTH",
"1337 1350 OFFCURVE",
"1419 1262 QCURVE SMOOTH",
"1460 1218 OFFCURVE",
"1465 1131 QCURVE SMOOTH",
"1466 1117 OFFCURVE",
"1466 1101 QCURVE SMOOTH",
"1466 1022 OFFCURVE",
"1441 914 QCURVE SMOOTH",
"1310 297 LINE SMOOTH",
"1286 186 OFFCURVE",
"1238 173 QCURVE SMOOTH",
"1190 160 OFFCURVE",
"1175 115 QCURVE SMOOTH",
"1172 105 OFFCURVE",
"1172 95 QCURVE SMOOTH",
"1172 62 OFFCURVE",
"1210 35 QCURVE SMOOTH",
"1260 0 OFFCURVE",
"1330 0 QCURVE SMOOTH",
"1400 0 OFFCURVE",
"1422 100 QCURVE SMOOTH",
"1590 890 LINE SMOOTH",
"1610 976 OFFCURVE",
"1613 1050 QCURVE",
"1681 1200 OFFCURVE"
);
},
{
closed = 1;
nodes = (
"809 -700 OFFCURVE",
"1295 -700 QCURVE SMOOTH",
"1780 -700 OFFCURVE",
"1964 -592 QCURVE SMOOTH",
"2147 -484 OFFCURVE",
"2173 -363 QCURVE SMOOTH",
"2182 -320 OFFCURVE",
"2182 -284 QCURVE SMOOTH",
"2182 -217 OFFCURVE",
"2152 -171 QCURVE SMOOTH",
"2105 -100 OFFCURVE",
"2000 -100 QCURVE SMOOTH",
"1850 -100 OFFCURVE",
"1850 -230 QCURVE SMOOTH",
"1850 -300 OFFCURVE",
"1925 -300 QCURVE SMOOTH",
"2000 -300 OFFCURVE",
"2000 -250 QCURVE",
"2024 -250 OFFCURVE",
"2031 -261 QCURVE SMOOTH",
"2034 -266 OFFCURVE",
"2034 -277 QCURVE SMOOTH",
"2034 -295 OFFCURVE",
"2027 -330 QCURVE SMOOTH",
"2015 -387 OFFCURVE",
"1876 -468 QCURVE SMOOTH",
"1737 -550 OFFCURVE",
"1301 -550 QCURVE SMOOTH",
"864 -550 OFFCURVE",
"511 -241 QCURVE SMOOTH",
"461 -197 OFFCURVE",
"425 -193 QCURVE SMOOTH",
"419 -192 OFFCURVE",
"414 -192 QCURVE SMOOTH",
"386 -192 OFFCURVE",
"370 -209 QCURVE SMOOTH",
"350 -230 OFFCURVE",
"350 -265 QCURVE SMOOTH",
"350 -300 OFFCURVE",
"407 -350 QCURVE SMOOTH"
);
}
);
width = 2550;
}
);
note = uni1789;
unicode = 1789;
},
{
glyphname = uni178A;
layers = (
{
layerId = "982A60EF-513A-498E-AE80-A9982858EA0F";
paths = (
{
closed = 1;
nodes = (
"642 886 OFFCURVE",
"642 915 QCURVE SMOOTH",
"642 968 OFFCURVE",
"617 1000 QCURVE SMOOTH",
"588 1036 OFFCURVE",
"530 1036 QCURVE SMOOTH",
"511 1036 OFFCURVE",
"489 1032 QCURVE SMOOTH",
"400 1015 OFFCURVE",
"400 953 QCURVE SMOOTH",
"400 891 OFFCURVE",
"438 860 QCURVE SMOOTH",
"462 840 OFFCURVE",
"462 789 QCURVE SMOOTH",
"462 759 OFFCURVE",
"453 717 QCURVE SMOOTH",
"321 100 LINE SMOOTH",
"317 79 OFFCURVE",
"317 62 QCURVE SMOOTH",
"317 0 OFFCURVE",
"377 0 QCURVE SMOOTH",
"453 0 OFFCURVE",
"553 63 QCURVE SMOOTH",
"853 250 LINE",
"1074 63 LINE SMOOTH",
"1147 0 OFFCURVE",
"1224 0 QCURVE SMOOTH",
"1300 0 OFFCURVE",
"1321 100 QCURVE SMOOTH",
"1470 799 LINE SMOOTH",
"1479 840 OFFCURVE",
"1479 872 QCURVE SMOOTH",
"1479 932 OFFCURVE",
"1448 959 QCURVE SMOOTH",
"1400 1000 OFFCURVE",
"1350 1000 QCURVE SMOOTH",
"1300 1000 OFFCURVE",
"1300 967 QCURVE SMOOTH",
"1300 934 OFFCURVE",
"1317 909 QCURVE SMOOTH",
"1327 894 OFFCURVE",
"1327 868 QCURVE SMOOTH",
"1327 849 OFFCURVE",
"1322 824 QCURVE SMOOTH",
"1182 167 LINE",
"868 435 LINE",
"498 208 LINE",
"635 851 LINE SMOOTH"
);
},
{
closed = 1;
nodes = (
"1658 1729 QCURVE SMOOTH",
"1658 1777 OFFCURVE",
"1612 1777 QCURVE SMOOTH",
"1565 1777 OFFCURVE",
"1530 1677 QCURVE SMOOTH",
"1495 1576 OFFCURVE",
"1454 1497 QCURVE SMOOTH",
"1416 1425 OFFCURVE",
"1366 1369 QCURVE SMOOTH",
"1322 1319 OFFCURVE",
"1241 1290 QCURVE SMOOTH",
"1130 1250 OFFCURVE",
"950 1250 QCURVE SMOOTH",
"811 1250 OFFCURVE",
"747 1275 QCURVE SMOOTH",
"692 1296 OFFCURVE",
"692 1336 QCURVE SMOOTH",
"692 1343 OFFCURVE",
"694 1350 QCURVE",
"693 1345 OFFCURVE",
"693 1340 QCURVE SMOOTH",
"693 1300 OFFCURVE",
"762 1300 QCURVE SMOOTH",
"840 1300 OFFCURVE",
"840 1400 QCURVE SMOOTH",
"840 1500 OFFCURVE",
"726 1500 QCURVE SMOOTH",
"571 1500 OFFCURVE",
"544 1377 QCURVE SMOOTH",
"538 1347 OFFCURVE",
"538 1320 QCURVE SMOOTH",
"538 1224 OFFCURVE",
"617 1169 QCURVE SMOOTH",
"719 1100 OFFCURVE",
"950 1100 QCURVE SMOOTH",
"1164 1100 OFFCURVE",
"1300 1150 QCURVE SMOOTH",
"1400 1186 OFFCURVE",
"1459 1250 QCURVE SMOOTH",
"1525 1322 OFFCURVE",
"1571 1416 QCURVE SMOOTH",
"1622 1519 OFFCURVE",
"1640 1600 QCURVE SMOOTH",
"1658 1681 OFFCURVE"
);
}
);
width = 1600;
}
);
note = uni178A;
unicode = 178A;
},
{
glyphname = uni178B;
layers = (
{
layerId = "982A60EF-513A-498E-AE80-A9982858EA0F";
paths = (
{
closed = 1;
nodes = (
"379 373 OFFCURVE",
"379 327 QCURVE SMOOTH",
"379 192 OFFCURVE",
"474 110 QCURVE SMOOTH",
"600 0 OFFCURVE",
"850 0 QCURVE SMOOTH",
"1100 0 OFFCURVE",
"1219 88 QCURVE SMOOTH",
"1337 175 OFFCURVE",
"1374 350 QCURVE SMOOTH",
"1491 900 LINE SMOOTH",
"1497 930 OFFCURVE",
"1497 959 QCURVE SMOOTH",
"1497 1011 OFFCURVE",
"1476 1058 QCURVE SMOOTH",
"1443 1130 OFFCURVE",
"1348 1198 QCURVE",
"1399 1286 LINE",
"1449 1228 OFFCURVE",
"1553 1228 QCURVE SMOOTH",
"1567 1228 LINE SMOOTH",
"1642 1231 OFFCURVE",
"1696 1291 QCURVE SMOOTH",
"1750 1350 OFFCURVE",
"1750 1450 QCURVE SMOOTH",
"1750 1700 OFFCURVE",
"1645 1825 QCURVE SMOOTH",
"1540 1950 OFFCURVE",
"1507 1950 QCURVE SMOOTH",
"1496 1950 OFFCURVE",
"1496 1938 QCURVE SMOOTH",
"1496 1911 OFFCURVE",
"1547 1827 QCURVE SMOOTH",
"1620 1703 OFFCURVE",
"1620 1520 QCURVE SMOOTH",
"1620 1360 OFFCURVE",
"1562 1360 QCURVE SMOOTH",
"1561 1360 LINE SMOOTH",
"1503 1360 OFFCURVE",
"1390 1500 QCURVE",
"1350 1380 OFFCURVE",
"1212 1199 OFFCURVE",
"1100 1141 QCURVE",
"1234 1133 OFFCURVE",
"1297 1066 QCURVE SMOOTH",
"1348 1011 OFFCURVE",
"1348 957 QCURVE SMOOTH",
"1348 945 OFFCURVE",
"1345 933 QCURVE SMOOTH",
"1227 375 LINE SMOOTH",
"1203 263 OFFCURVE",
"1126 206 QCURVE SMOOTH",
"1050 150 OFFCURVE",
"850 150 QCURVE SMOOTH",
"655 150 OFFCURVE",
"584 213 QCURVE SMOOTH",
"532 258 OFFCURVE",
"532 338 QCURVE SMOOTH",
"532 366 OFFCURVE",
"539 400 QCURVE SMOOTH",
"741 1352 LINE SMOOTH",
"746 1374 OFFCURVE",
"746 1392 QCURVE SMOOTH",
"746 1436 OFFCURVE",
"719 1462 QCURVE SMOOTH",
"682 1500 OFFCURVE",
"610 1500 QCURVE SMOOTH",
"540 1500 OFFCURVE",
"500 1450 QCURVE SMOOTH",
"460 1400 OFFCURVE",
"460 1325 QCURVE SMOOTH",
"460 1250 OFFCURVE",
"555 1200 QCURVE",
"390 425 LINE SMOOTH"
);
}
);
width = 1600;
}
);
note = uni178B;
unicode = 178B;
},
{
glyphname = uni178C;
layers = (
{
layerId = "982A60EF-513A-498E-AE80-A9982858EA0F";
paths = (
{
closed = 1;
nodes = (
"1515 1012 QCURVE SMOOTH",
"1522 1048 OFFCURVE",
"1522 1087 QCURVE SMOOTH",
"1522 1132 OFFCURVE",
"1512 1181 QCURVE SMOOTH",
"1488 1294 OFFCURVE",
"1409 1423 QCURVE SMOOTH",
"1362 1500 OFFCURVE",
"1290 1500 QCURVE SMOOTH",
"1217 1500 OFFCURVE",
"1040 1293 QCURVE",
"941 1500 OFFCURVE",
"878 1500 QCURVE SMOOTH",
"814 1500 OFFCURVE",
"755 1453 QCURVE SMOOTH",
"577 1310 OFFCURVE",
"538 1129 QCURVE SMOOTH",
"529 1083 OFFCURVE",
"529 1043 QCURVE SMOOTH",
"529 956 OFFCURVE",
"571 893 QCURVE SMOOTH",
"632 800 OFFCURVE",
"738 800 QCURVE SMOOTH",
"844 800 OFFCURVE",
"902 907 QCURVE SMOOTH",
"927 954 OFFCURVE",
"927 992 QCURVE SMOOTH",
"927 1040 OFFCURVE",
"886 1075 QCURVE SMOOTH",
"856 1100 OFFCURVE",
"822 1100 QCURVE SMOOTH",
"774 1100 OFFCURVE",
"718 1047 QCURVE",
"780 1013 OFFCURVE",
"780 987 QCURVE SMOOTH",
"780 982 OFFCURVE",
"778 978 QCURVE SMOOTH",
"763 950 OFFCURVE",
"738 950 QCURVE SMOOTH",
"713 950 OFFCURVE",
"693 990 QCURVE SMOOTH",
"681 1014 OFFCURVE",
"681 1052 QCURVE SMOOTH",
"681 1075 OFFCURVE",
"685 1103 QCURVE",
"716 1231 OFFCURVE",
"852 1350 QCURVE",
"977 1115 OFFCURVE",
"1012 1115 QCURVE SMOOTH",
"1047 1115 OFFCURVE",
"1279 1355 QCURVE",
"1347 1241 OFFCURVE",
"1366 1152 QCURVE SMOOTH",
"1373 1118 OFFCURVE",
"1373 1087 QCURVE SMOOTH",
"1373 1063 OFFCURVE",
"1369 1041 QCURVE SMOOTH",
"1354 975 OFFCURVE",
"1306 915 QCURVE SMOOTH",
"1246 839 OFFCURVE",
"1136 774 QCURVE SMOOTH",
"500 390 LINE",
"433 346 OFFCURVE",
"423 297 QCURVE SMOOTH",
"415 263 OFFCURVE",
"415 244 QCURVE SMOOTH",
"415 236 OFFCURVE",
"417 231 QCURVE SMOOTH",
"438 168 LINE SMOOTH",
"466 84 OFFCURVE",
"534 42 QCURVE SMOOTH",
"602 0 OFFCURVE",
"710 0 QCURVE SMOOTH",
"840 0 OFFCURVE",
"1080 169 QCURVE SMOOTH",
"1201 253 LINE",
"1128 -86 LINE SMOOTH",
"1122 -114 OFFCURVE",
"1122 -135 QCURVE SMOOTH",
"1122 -200 OFFCURVE",
"1180 -200 QCURVE SMOOTH",
"1257 -200 OFFCURVE",
"1277 -106 QCURVE SMOOTH",
"1382 386 LINE SMOOTH",
"1393 437 OFFCURVE",
"1393 472 QCURVE SMOOTH",
"1393 550 OFFCURVE",
"1340 550 QCURVE SMOOTH",
"1263 550 OFFCURVE",
"1245 461 QCURVE",
"985 285 LINE SMOOTH",
"787 150 OFFCURVE",
"710 150 QCURVE SMOOTH",
"601 150 OFFCURVE",
"576 228 QCURVE SMOOTH",
"567 252 LINE",
"1196 640 LINE SMOOTH",
"1346 728 OFFCURVE",
"1428 832 QCURVE SMOOTH",
"1494 917 OFFCURVE"
);
}
);
width = 1600;
}
);
note = uni178C;
unicode = 178C;
},
{
glyphname = uni178D;
layers = (
{
layerId = "982A60EF-513A-498E-AE80-A9982858EA0F";
paths = (
{
closed = 1;
nodes = (
"560 500 OFFCURVE",
"651 500 QCURVE SMOOTH",
"715 500 OFFCURVE",
"743 484 QCURVE SMOOTH",
"761 474 OFFCURVE",
"761 442 QCURVE SMOOTH",
"761 425 OFFCURVE",
"756 402 QCURVE SMOOTH",
"730 285 OFFCURVE",
"653 218 QCURVE SMOOTH",
"575 150 OFFCURVE",
"486 150 QCURVE",
"543 421 LINE SMOOTH"
);
},
{
closed = 1;
nodes = (
"1764 405 LINE",
"1444 208 LINE",
"1590 890 LINE SMOOTH",
"1614 996 OFFCURVE",
"1614 1084 QCURVE SMOOTH",
"1614 1124 OFFCURVE",
"1609 1160 QCURVE SMOOTH",
"1593 1276 OFFCURVE",
"1503 1388 QCURVE SMOOTH",
"1412 1500 OFFCURVE",
"1334 1500 QCURVE SMOOTH",
"1256 1500 OFFCURVE",
"1122 1351 QCURVE",
"1077 1417 LINE",
"1030 1500 OFFCURVE",
"947 1500 QCURVE SMOOTH",
"834 1500 OFFCURVE",
"766 1450 QCURVE SMOOTH",
"680 1382 LINE",
"570 1280 OFFCURVE",
"519 1036 QCURVE SMOOTH",
"343 200 LINE SMOOTH",
"335 163 OFFCURVE",
"335 132 QCURVE SMOOTH",
"335 81 OFFCURVE",
"357 50 QCURVE SMOOTH",
"393 0 OFFCURVE",
"486 0 QCURVE SMOOTH",
"614 0 OFFCURVE",
"742 102 QCURVE SMOOTH",
"870 203 OFFCURVE",
"903 382 QCURVE SMOOTH",
"908 411 OFFCURVE",
"908 437 QCURVE SMOOTH",
"908 561 OFFCURVE",
"799 625 QCURVE SMOOTH",
"755 650 OFFCURVE",
"651 650 QCURVE SMOOTH",
"620 650 OFFCURVE",
"590 636 QCURVE",
"668 1006 LINE SMOOTH",
"710 1206 OFFCURVE",
"765 1265 QCURVE",
"854 1346 OFFCURVE",
"930 1350 QCURVE SMOOTH",
"973 1350 OFFCURVE",
"1100 1171 QCURVE",
"1294 1350 OFFCURVE",
"1326 1350 QCURVE SMOOTH",
"1357 1350 OFFCURVE",
"1409 1284 QCURVE SMOOTH",
"1460 1218 OFFCURVE",
"1465 1131 QCURVE SMOOTH",
"1466 1117 OFFCURVE",
"1466 1101 QCURVE SMOOTH",
"1466 1022 OFFCURVE",
"1441 914 QCURVE SMOOTH",
"1267 100 LINE SMOOTH",
"1263 79 OFFCURVE",
"1263 62 QCURVE SMOOTH",
"1263 0 OFFCURVE",
"1323 0 QCURVE SMOOTH",
"1399 0 OFFCURVE",
"1499 63 QCURVE SMOOTH",
"1749 220 LINE",
"1920 63 LINE SMOOTH",
"1993 0 OFFCURVE",
"2070 0 QCURVE SMOOTH",
"2146 0 OFFCURVE",
"2167 100 QCURVE SMOOTH",
"2338 900 LINE SMOOTH",
"2344 930 OFFCURVE",
"2344 959 QCURVE SMOOTH",
"2344 1011 OFFCURVE",
"2323 1058 QCURVE SMOOTH",
"2290 1130 OFFCURVE",
"2205 1188 QCURVE",
"2296 1286 LINE",
"2346 1228 OFFCURVE",
"2415 1228 QCURVE SMOOTH",
"2424 1228 LINE SMOOTH",
"2499 1231 OFFCURVE",
"2550 1266 QCURVE SMOOTH",
"2600 1300 LINE",
"2590 1299 OFFCURVE",
"2580 1299 QCURVE SMOOTH",
"2519 1299 OFFCURVE",
"2458 1342 QCURVE SMOOTH",
"2386 1392 OFFCURVE",
"2314 1500 QCURVE",
"2272 1427 OFFCURVE",
"2183 1327 QCURVE SMOOTH",
"2094 1227 OFFCURVE",
"1947 1141 QCURVE",
"2081 1133 OFFCURVE",
"2144 1066 QCURVE SMOOTH",
"2195 1011 OFFCURVE",
"2195 957 QCURVE SMOOTH",
"2195 945 OFFCURVE",
"2192 933 QCURVE SMOOTH",
"2028 167 LINE"
);
}
);
width = 2450;
}
);
note = uni178D;
unicode = 178D;
},
{
glyphname = uni178E;
layers = (
{
layerId = "982A60EF-513A-498E-AE80-A9982858EA0F";
paths = (
{
closed = 1;
nodes = (
"1163 79 OFFCURVE",
"1163 62 QCURVE SMOOTH",
"1163 0 OFFCURVE",
"1223 0 QCURVE SMOOTH",
"1299 0 OFFCURVE",
"1399 63 QCURVE",
"1717 250 LINE",
"1926 63 LINE SMOOTH",
"1999 0 OFFCURVE",
"2076 0 QCURVE SMOOTH",
"2152 0 OFFCURVE",
"2173 100 QCURVE SMOOTH",
"2404 1179 LINE SMOOTH",
"2420 1257 OFFCURVE",
"2489 1304 QCURVE SMOOTH",
"2559 1350 OFFCURVE",
"2756 1350 QCURVE SMOOTH",
"2947 1350 OFFCURVE",
"3023 1272 QCURVE SMOOTH",
"3062 1234 OFFCURVE",
"3071 1170 QCURVE SMOOTH",
"3074 1148 OFFCURVE",
"3074 1124 QCURVE SMOOTH",
"3074 1077 OFFCURVE",
"3062 1019 QCURVE SMOOTH",
"2910 297 LINE SMOOTH",
"2886 186 OFFCURVE",
"2838 173 QCURVE SMOOTH",
"2790 160 OFFCURVE",
"2775 115 QCURVE SMOOTH",
"2772 105 OFFCURVE",
"2772 95 QCURVE SMOOTH",
"2772 62 OFFCURVE",
"2810 35 QCURVE SMOOTH",
"2860 0 OFFCURVE",
"2930 0 QCURVE SMOOTH",
"3000 0 OFFCURVE",
"3022 100 QCURVE SMOOTH",
"3209 985 LINE SMOOTH",
"3226 1064 OFFCURVE",
"3226 1130 QCURVE SMOOTH",
"3226 1172 OFFCURVE",
"3219 1210 QCURVE SMOOTH",
"3201 1307 OFFCURVE",
"3137 1371 QCURVE SMOOTH",
"3074 1436 OFFCURVE",
"2966 1468 QCURVE SMOOTH",
"2858 1500 OFFCURVE",
"2756 1500 QCURVE SMOOTH",
"2512 1500 OFFCURVE",
"2399 1425 QCURVE SMOOTH",
"2287 1350 OFFCURVE",
"2255 1200 QCURVE SMOOTH",
"2034 167 LINE",
"1732 435 LINE",
"1344 208 LINE",
"1511 985 LINE SMOOTH",
"1528 1064 OFFCURVE",
"1528 1130 QCURVE SMOOTH",
"1528 1172 OFFCURVE",
"1521 1210 QCURVE SMOOTH",
"1503 1307 OFFCURVE",
"1439 1371 QCURVE SMOOTH",
"1376 1436 OFFCURVE",
"1268 1468 QCURVE SMOOTH",
"1160 1500 OFFCURVE",
"1028 1500 QCURVE SMOOTH",
"814 1500 OFFCURVE",
"701 1425 QCURVE SMOOTH",
"589 1350 OFFCURVE",
"557 1200 QCURVE SMOOTH",
"344 200 LINE SMOOTH",
"336 162 OFFCURVE",
"336 131 QCURVE SMOOTH",
"336 81 OFFCURVE",
"358 50 QCURVE SMOOTH",
"394 0 OFFCURVE",
"447 0 QCURVE SMOOTH",
"500 0 OFFCURVE",
"597 101 QCURVE SMOOTH",
"694 201 OFFCURVE",
"721 294 QCURVE SMOOTH",
"730 328 OFFCURVE",
"730 357 QCURVE SMOOTH",
"730 408 OFFCURVE",
"701 444 QCURVE SMOOTH",
"654 500 OFFCURVE",
"600 500 QCURVE SMOOTH",
"579 500 OFFCURVE",
"560 498 QCURVE",
"706 1179 LINE SMOOTH",
"722 1257 OFFCURVE",
"791 1304 QCURVE SMOOTH",
"861 1350 OFFCURVE",
"1028 1350 QCURVE SMOOTH",
"1249 1350 OFFCURVE",
"1325 1272 QCURVE SMOOTH",
"1364 1234 OFFCURVE",
"1373 1170 QCURVE SMOOTH",
"1376 1148 OFFCURVE",
"1376 1124 QCURVE SMOOTH",
"1376 1077 OFFCURVE",
"1364 1019 QCURVE SMOOTH",
"1167 100 LINE SMOOTH"
);
}
);
width = 3300;
}
);
note = uni178E;
unicode = 178E;
},
{
glyphname = uni178F;
layers = (
{
layerId = "982A60EF-513A-498E-AE80-A9982858EA0F";
paths = (
{
closed = 1;
nodes = (
"725 1029 QCURVE SMOOTH",
"739 1029 OFFCURVE",
"746 1039 QCURVE SMOOTH",
"750 1045 OFFCURVE",
"750 1052 QCURVE SMOOTH",
"750 1077 OFFCURVE",
"704 1122 QCURVE SMOOTH",
"643 1180 LINE",
"825 1322 LINE",
"985 1139 LINE",
"1206 1334 LINE",
"1240 1281 OFFCURVE",
"1348 1208 QCURVE SMOOTH",
"1457 1135 OFFCURVE",
"1528 1122 QCURVE SMOOTH",
"1555 1117 OFFCURVE",
"1572 1117 QCURVE SMOOTH",
"1600 1117 OFFCURVE",
"1600 1131 QCURVE SMOOTH",
"1600 1154 OFFCURVE",
"1545 1200 QCURVE SMOOTH",
"1490 1246 OFFCURVE",
"1418 1324 QCURVE SMOOTH",
"1347 1402 OFFCURVE",
"1293 1500 OFFCURVE",
"1262 1500 QCURVE SMOOTH",
"1232 1500 OFFCURVE",
"1182 1455 QCURVE SMOOTH",
"1131 1409 LINE",
"1028 1318 LINE",
"949 1409 LINE SMOOTH",
"868 1500 OFFCURVE",
"841 1500 QCURVE SMOOTH",
"814 1500 OFFCURVE",
"771 1448 QCURVE SMOOTH",
"729 1395 OFFCURVE",
"554 1256 OFFCURVE",
"350 1143 QCURVE",
"418 1134 LINE SMOOTH",
"486 1126 OFFCURVE",
"551 1103 QCURVE SMOOTH",
"615 1081 OFFCURVE",
"672 1048 QCURVE SMOOTH",
"705 1029 OFFCURVE"
);
},
{
closed = 1;
nodes = (
"549 450 OFFCURVE",
"620 450 QCURVE SMOOTH",
"664 450 OFFCURVE",
"692 434 QCURVE SMOOTH",
"710 424 OFFCURVE",
"710 392 QCURVE SMOOTH",
"710 375 OFFCURVE",
"705 352 QCURVE SMOOTH",
"690 285 OFFCURVE",
"633 218 QCURVE SMOOTH",
"575 150 OFFCURVE",
"486 150 QCURVE",
"532 371 LINE SMOOTH"
);
},
{
closed = 1;
nodes = (
"335 163 OFFCURVE",
"335 132 QCURVE SMOOTH",
"335 81 OFFCURVE",
"357 50 QCURVE SMOOTH",
"393 0 OFFCURVE",
"486 0 QCURVE SMOOTH",
"614 0 OFFCURVE",
"722 102 QCURVE SMOOTH",
"830 203 OFFCURVE",
"852 332 QCURVE SMOOTH",
"858 369 OFFCURVE",
"858 401 QCURVE SMOOTH",
"858 512 OFFCURVE",
"783 562 QCURVE SMOOTH",
"724 600 OFFCURVE",
"620 600 QCURVE SMOOTH",
"599 600 OFFCURVE",
"580 598 QCURVE",
"598 679 LINE SMOOTH",
"614 757 OFFCURVE",
"683 804 QCURVE SMOOTH",
"753 850 OFFCURVE",
"900 850 QCURVE SMOOTH",
"1141 850 OFFCURVE",
"1217 772 QCURVE SMOOTH",
"1256 734 OFFCURVE",
"1265 670 QCURVE SMOOTH",
"1268 648 OFFCURVE",
"1268 624 QCURVE SMOOTH",
"1268 577 OFFCURVE",
"1256 519 QCURVE SMOOTH",
"1210 297 LINE SMOOTH",
"1186 186 OFFCURVE",
"1138 173 QCURVE SMOOTH",
"1090 160 OFFCURVE",
"1075 115 QCURVE SMOOTH",
"1072 105 OFFCURVE",
"1072 95 QCURVE SMOOTH",
"1072 62 OFFCURVE",
"1110 35 QCURVE SMOOTH",
"1160 0 OFFCURVE",
"1230 0 QCURVE SMOOTH",
"1300 0 OFFCURVE",
"1322 100 QCURVE SMOOTH",
"1403 485 LINE SMOOTH",
"1420 564 OFFCURVE",
"1420 630 QCURVE SMOOTH",
"1420 672 OFFCURVE",
"1413 710 QCURVE SMOOTH",
"1395 807 OFFCURVE",
"1331 871 QCURVE SMOOTH",
"1268 936 OFFCURVE",
"1160 968 QCURVE SMOOTH",
"1052 1000 OFFCURVE",
"900 1000 QCURVE SMOOTH",
"706 1000 OFFCURVE",
"593 925 QCURVE SMOOTH",
"481 850 OFFCURVE",
"449 700 QCURVE SMOOTH",
"343 200 LINE SMOOTH"
);
}
);
width = 1600;
}
);
note = uni178F;
unicode = 178F;
},
{
glyphname = uni1790;
layers = (
{
layerId = "982A60EF-513A-498E-AE80-A9982858EA0F";
paths = (
{
closed = 1;
nodes = (
"642 886 OFFCURVE",
"642 915 QCURVE SMOOTH",
"642 968 OFFCURVE",
"617 1000 QCURVE SMOOTH",
"588 1036 OFFCURVE",
"530 1036 QCURVE SMOOTH",
"511 1036 OFFCURVE",
"489 1032 QCURVE SMOOTH",
"400 1015 OFFCURVE",
"400 953 QCURVE SMOOTH",
"400 891 OFFCURVE",
"438 860 QCURVE SMOOTH",
"462 840 OFFCURVE",
"462 789 QCURVE SMOOTH",
"462 759 OFFCURVE",
"453 717 QCURVE SMOOTH",
"380 375 LINE SMOOTH",
"371 332 OFFCURVE",
"371 293 QCURVE SMOOTH",
"371 254 OFFCURVE",
"380 219 QCURVE SMOOTH",
"399 150 OFFCURVE",
"455 100 QCURVE SMOOTH",
"566 0 OFFCURVE",
"832 0 QCURVE SMOOTH",
"1066 0 OFFCURVE",
"1202 88 QCURVE SMOOTH",
"1337 175 OFFCURVE",
"1374 350 QCURVE SMOOTH",
"1476 830 LINE SMOOTH",
"1483 861 OFFCURVE",
"1483 886 QCURVE SMOOTH",
"1483 936 OFFCURVE",
"1454 962 QCURVE SMOOTH",
"1412 1000 OFFCURVE",
"1350 1000 QCURVE SMOOTH",
"1280 1000 OFFCURVE",
"1240 950 QCURVE SMOOTH",
"1200 900 OFFCURVE",
"1200 825 QCURVE SMOOTH",
"1200 750 OFFCURVE",
"1295 700 QCURVE",
"1225 371 LINE SMOOTH",
"1203 268 OFFCURVE",
"1112 209 QCURVE SMOOTH",
"1021 150 OFFCURVE",
"832 150 QCURVE SMOOTH",
"625 150 OFFCURVE",
"566 202 QCURVE SMOOTH",
"523 241 OFFCURVE",
"523 304 QCURVE SMOOTH",
"523 325 OFFCURVE",
"528 350 QCURVE SMOOTH",
"635 851 LINE SMOOTH"
);
},
{
closed = 1;
nodes = (
"725 1029 QCURVE SMOOTH",
"739 1029 OFFCURVE",
"746 1039 QCURVE SMOOTH",
"750 1045 OFFCURVE",
"750 1052 QCURVE SMOOTH",
"750 1077 OFFCURVE",
"704 1122 QCURVE SMOOTH",
"660 1164 LINE",
"835 1310 LINE",
"900 1236 OFFCURVE",
"994 1193 QCURVE SMOOTH",
"1088 1150 OFFCURVE",
"1200 1150 QCURVE SMOOTH",
"1371 1150 OFFCURVE",
"1483 1275 QCURVE SMOOTH",
"1596 1399 OFFCURVE",
"1650 1649 QCURVE SMOOTH",
"1659 1684 OFFCURVE",
"1659 1710 QCURVE SMOOTH",
"1659 1727 OFFCURVE",
"1655 1740 QCURVE SMOOTH",
"1647 1773 OFFCURVE",
"1616 1782 QCURVE SMOOTH",
"1609 1784 OFFCURVE",
"1602 1784 QCURVE SMOOTH",
"1581 1784 OFFCURVE",
"1562 1763 QCURVE SMOOTH",
"1539 1737 OFFCURVE",
"1522 1674 QCURVE SMOOTH",
"1471 1487 OFFCURVE",
"1391 1394 QCURVE SMOOTH",
"1311 1300 OFFCURVE",
"1200 1300 QCURVE SMOOTH",
"1122 1300 OFFCURVE",
"1059 1327 QCURVE SMOOTH",
"997 1355 OFFCURVE",
"949 1409 QCURVE SMOOTH",
"868 1500 OFFCURVE",
"841 1500 QCURVE SMOOTH",
"814 1500 OFFCURVE",
"771 1448 QCURVE SMOOTH",
"729 1395 OFFCURVE",
"554 1256 OFFCURVE",
"350 1143 QCURVE",
"418 1134 LINE SMOOTH",
"486 1126 OFFCURVE",
"551 1103 QCURVE SMOOTH",
"615 1081 OFFCURVE",
"672 1048 QCURVE SMOOTH",
"705 1029 OFFCURVE"
);
}
);
width = 1600;
}
);
note = uni1790;
unicode = 1790;
},
{
glyphname = uni1791;
layers = (
{
layerId = "982A60EF-513A-498E-AE80-A9982858EA0F";
paths = (
{
closed = 1;
nodes = (
"1200 750 QCURVE SMOOTH",
"1248 750 OFFCURVE",
"1248 714 QCURVE SMOOTH",
"1248 708 OFFCURVE",
"1246 700 QCURVE SMOOTH",
"1238 664 OFFCURVE",
"1138 654 QCURVE",
"1141 668 LINE SMOOTH",
"1149 713 OFFCURVE",
"1166 734 QCURVE SMOOTH",
"1180 750 OFFCURVE"
);
},
{
closed = 1;
nodes = (
"992 692 QCURVE SMOOTH",
"984 652 LINE",
"802 666 OFFCURVE",
"727 766 QCURVE SMOOTH",
"672 837 OFFCURVE",
"672 953 QCURVE SMOOTH",
"672 1017 OFFCURVE",
"689 1094 QCURVE SMOOTH",
"714 1215 OFFCURVE",
"797 1279 QCURVE SMOOTH",
"888 1350 OFFCURVE",
"1050 1350 QCURVE SMOOTH",
"1244 1350 OFFCURVE",
"1315 1304 QCURVE SMOOTH",
"1356 1277 OFFCURVE",
"1356 1236 QCURVE SMOOTH",
"1356 1226 OFFCURVE",
"1354 1215 QCURVE SMOOTH",
"1344 1156 OFFCURVE",
"1306 1156 QCURVE SMOOTH",
"1267 1156 OFFCURVE",
"1267 1196 QCURVE SMOOTH",
"1267 1210 OFFCURVE",
"1272 1230 QCURVE",
"1150 1230 OFFCURVE",
"1150 1130 QCURVE SMOOTH",
"1150 1030 OFFCURVE",
"1290 1030 QCURVE SMOOTH",
"1381 1030 OFFCURVE",
"1434 1069 QCURVE SMOOTH",
"1485 1107 OFFCURVE",
"1501 1181 QCURVE SMOOTH",
"1509 1217 OFFCURVE",
"1509 1250 QCURVE SMOOTH",
"1509 1343 OFFCURVE",
"1444 1402 QCURVE SMOOTH",
"1337 1500 OFFCURVE",
"1050 1500 QCURVE SMOOTH",
"828 1500 OFFCURVE",
"700 1402 QCURVE SMOOTH",
"579 1309 OFFCURVE",
"541 1129 QCURVE SMOOTH",
"518 1020 OFFCURVE",
"518 930 QCURVE SMOOTH",
"518 772 OFFCURVE",
"589 672 QCURVE SMOOTH",
"694 526 OFFCURVE",
"952 504 QCURVE",
"909 300 LINE SMOOTH",
"894 233 OFFCURVE",
"859 196 QCURVE SMOOTH",
"815 150 OFFCURVE",
"740 150 QCURVE SMOOTH",
"692 150 OFFCURVE",
"670 169 QCURVE SMOOTH",
"650 186 OFFCURVE",
"650 217 QCURVE SMOOTH",
"650 230 OFFCURVE",
"654 246 QCURVE SMOOTH",
"672 333 LINE SMOOTH",
"682 383 OFFCURVE",
"682 420 QCURVE SMOOTH",
"682 511 OFFCURVE",
"617 511 QCURVE SMOOTH",
"549 511 OFFCURVE",
"510 486 QCURVE SMOOTH",
"471 461 OFFCURVE",
"460 411 QCURVE",
"524 411 OFFCURVE",
"524 373 QCURVE SMOOTH",
"524 367 OFFCURVE",
"523 361 QCURVE SMOOTH",
"502 268 LINE SMOOTH",
"493 225 OFFCURVE",
"493 189 QCURVE SMOOTH",
"493 111 OFFCURVE",
"535 65 QCURVE SMOOTH",
"595 0 OFFCURVE",
"740 0 QCURVE SMOOTH",
"862 0 OFFCURVE",
"940 62 QCURVE SMOOTH",
"1024 131 OFFCURVE",
"1054 274 QCURVE SMOOTH",
"1104 502 LINE",
"1245 510 OFFCURVE",
"1318 562 QCURVE SMOOTH",
"1377 603 OFFCURVE",
"1392 673 QCURVE SMOOTH",
"1400 711 OFFCURVE",
"1400 743 QCURVE SMOOTH",
"1400 768 OFFCURVE",
"1395 789 QCURVE SMOOTH",
"1376 864 OFFCURVE",
"1294 888 QCURVE SMOOTH",
"1255 900 OFFCURVE",
"1200 900 QCURVE SMOOTH",
"1123 900 OFFCURVE",
"1072 853 QCURVE SMOOTH",
"1016 801 OFFCURVE"
);
}
);
width = 1550;
}
);
note = uni1791;
unicode = 1791;
},
{
glyphname = uni1792;
layers = (
{
layerId = "982A60EF-513A-498E-AE80-A9982858EA0F";
paths = (
{
closed = 1;
nodes = (
"725 1029 QCURVE SMOOTH",
"739 1029 OFFCURVE",
"746 1039 QCURVE SMOOTH",
"750 1045 OFFCURVE",
"750 1052 QCURVE SMOOTH",
"750 1077 OFFCURVE",
"704 1122 QCURVE SMOOTH",
"643 1180 LINE",
"825 1322 LINE",
"985 1139 LINE",
"1206 1334 LINE",
"1240 1281 OFFCURVE",
"1348 1208 QCURVE SMOOTH",
"1457 1135 OFFCURVE",
"1528 1122 QCURVE SMOOTH",
"1555 1117 OFFCURVE",
"1572 1117 QCURVE SMOOTH",
"1600 1117 OFFCURVE",
"1600 1131 QCURVE SMOOTH",
"1600 1154 OFFCURVE",
"1545 1200 QCURVE SMOOTH",
"1490 1246 OFFCURVE",
"1418 1324 QCURVE SMOOTH",
"1347 1402 OFFCURVE",
"1293 1500 OFFCURVE",
"1262 1500 QCURVE SMOOTH",
"1232 1500 OFFCURVE",
"1182 1455 QCURVE SMOOTH",
"1131 1409 LINE",
"1028 1318 LINE",
"949 1409 LINE SMOOTH",
"868 1500 OFFCURVE",
"841 1500 QCURVE SMOOTH",
"814 1500 OFFCURVE",
"771 1448 QCURVE SMOOTH",
"729 1395 OFFCURVE",
"554 1256 OFFCURVE",
"350 1143 QCURVE",
"418 1134 LINE SMOOTH",
"486 1126 OFFCURVE",
"551 1103 QCURVE SMOOTH",
"615 1081 OFFCURVE",
"672 1048 QCURVE SMOOTH",
"705 1029 OFFCURVE"
);
},
{
closed = 1;
nodes = (
"1483 861 OFFCURVE",
"1483 886 QCURVE SMOOTH",
"1483 936 OFFCURVE",
"1454 962 QCURVE SMOOTH",
"1412 1000 OFFCURVE",
"1350 1000 QCURVE SMOOTH",
"1280 1000 OFFCURVE",
"1240 950 QCURVE SMOOTH",
"1200 900 OFFCURVE",
"1200 825 QCURVE SMOOTH",
"1200 750 OFFCURVE",
"1295 700 QCURVE",
"1182 167 LINE",
"868 435 LINE",
"498 208 LINE",
"635 851 LINE SMOOTH",
"642 886 OFFCURVE",
"642 915 QCURVE SMOOTH",
"642 968 OFFCURVE",
"617 1000 QCURVE SMOOTH",
"588 1036 OFFCURVE",
"530 1036 QCURVE SMOOTH",
"511 1036 OFFCURVE",
"489 1032 QCURVE SMOOTH",
"400 1015 OFFCURVE",
"400 953 QCURVE SMOOTH",
"400 891 OFFCURVE",
"438 860 QCURVE SMOOTH",
"462 840 OFFCURVE",
"462 789 QCURVE SMOOTH",
"462 759 OFFCURVE",
"453 717 QCURVE SMOOTH",
"321 100 LINE SMOOTH",
"317 79 OFFCURVE",
"317 62 QCURVE SMOOTH",
"317 0 OFFCURVE",
"377 0 QCURVE SMOOTH",
"453 0 OFFCURVE",
"553 63 QCURVE SMOOTH",
"853 250 LINE",
"1074 63 LINE SMOOTH",
"1147 0 OFFCURVE",
"1224 0 QCURVE SMOOTH",
"1300 0 OFFCURVE",
"1321 100 QCURVE SMOOTH",
"1476 830 LINE SMOOTH"
);
}
);
width = 1600;
}
);
note = uni1792;
unicode = 1792;
},
{
glyphname = uni1793;
layers = (
{
layerId = "982A60EF-513A-498E-AE80-A9982858EA0F";
paths = (
{
closed = 1;
nodes = (
"317 82 OFFCURVE",
"317 68 QCURVE SMOOTH",
"317 0 OFFCURVE",
"400 0 QCURVE SMOOTH",
"453 0 OFFCURVE",
"475 98 QCURVE SMOOTH",
"486 150 OFFCURVE",
"550 150 QCURVE SMOOTH",
"593 150 OFFCURVE",
"675 91 QCURVE SMOOTH",
"685 83 OFFCURVE",
"697 75 QCURVE SMOOTH",
"795 0 OFFCURVE",
"930 0 QCURVE SMOOTH",
"1066 0 OFFCURVE",
"1202 88 QCURVE SMOOTH",
"1337 175 OFFCURVE",
"1374 350 QCURVE SMOOTH",
"1393 441 OFFCURVE",
"1393 515 QCURVE SMOOTH",
"1393 645 OFFCURVE",
"1334 725 QCURVE SMOOTH",
"1240 850 OFFCURVE",
"1000 850 QCURVE SMOOTH",
"809 850 OFFCURVE",
"737 939 QCURVE SMOOTH",
"693 993 OFFCURVE",
"693 1080 QCURVE SMOOTH",
"693 1123 OFFCURVE",
"704 1175 QCURVE SMOOTH",
"719 1244 OFFCURVE",
"776 1286 QCURVE SMOOTH",
"863 1350 OFFCURVE",
"1050 1350 QCURVE SMOOTH",
"1233 1350 OFFCURVE",
"1304 1295 QCURVE SMOOTH",
"1349 1260 OFFCURVE",
"1349 1203 QCURVE SMOOTH",
"1349 1187 OFFCURVE",
"1345 1168 QCURVE SMOOTH",
"1334 1120 OFFCURVE",
"1290 1120 QCURVE SMOOTH",
"1248 1120 OFFCURVE",
"1234 1170 QCURVE",
"1140 1148 OFFCURVE",
"1140 1059 QCURVE SMOOTH",
"1140 970 OFFCURVE",
"1290 970 QCURVE SMOOTH",
"1456 970 OFFCURVE",
"1493 1140 QCURVE SMOOTH",
"1503 1186 OFFCURVE",
"1503 1226 QCURVE SMOOTH",
"1503 1257 OFFCURVE",
"1497 1285 QCURVE SMOOTH",
"1484 1349 OFFCURVE",
"1439 1393 QCURVE SMOOTH",
"1333 1500 OFFCURVE",
"1050 1500 QCURVE SMOOTH",
"816 1500 OFFCURVE",
"690 1413 QCURVE SMOOTH",
"585 1341 OFFCURVE",
"557 1207 QCURVE SMOOTH",
"539 1124 OFFCURVE",
"539 1054 QCURVE SMOOTH",
"539 915 OFFCURVE",
"610 831 QCURVE SMOOTH",
"720 700 OFFCURVE",
"1000 700 QCURVE SMOOTH",
"1146 700 OFFCURVE",
"1203 619 QCURVE SMOOTH",
"1238 568 OFFCURVE",
"1238 485 QCURVE SMOOTH",
"1238 434 OFFCURVE",
"1225 371 QCURVE SMOOTH",
"1203 268 OFFCURVE",
"1112 209 QCURVE SMOOTH",
"1021 150 OFFCURVE",
"930 150 QCURVE SMOOTH",
"820 150 OFFCURVE",
"737 212 QCURVE SMOOTH",
"729 218 OFFCURVE",
"721 225 QCURVE SMOOTH",
"633 300 OFFCURVE",
"550 300 QCURVE SMOOTH",
"533 300 OFFCURVE",
"517 298 QCURVE",
"573 557 LINE SMOOTH",
"578 581 OFFCURVE",
"578 600 QCURVE SMOOTH",
"578 662 OFFCURVE",
"526 678 QCURVE SMOOTH",
"492 688 OFFCURVE",
"461 688 QCURVE SMOOTH",
"431 688 OFFCURVE",
"404 678 QCURVE SMOOTH",
"350 657 OFFCURVE",
"350 612 QCURVE SMOOTH",
"350 567 OFFCURVE",
"382 551 QCURVE SMOOTH",
"406 538 OFFCURVE",
"406 505 QCURVE SMOOTH",
"406 493 OFFCURVE",
"403 479 QCURVE SMOOTH",
"321 99 LINE SMOOTH"
);
}
);
width = 1600;
}
);
note = uni1793;
unicode = 1793;
},
{
glyphname = uni1794;
layers = (
{
layerId = "982A60EF-513A-498E-AE80-A9982858EA0F";
paths = (
{
closed = 1;
nodes = (
"379 373 OFFCURVE",
"379 327 QCURVE SMOOTH",
"379 192 OFFCURVE",
"474 110 QCURVE SMOOTH",
"600 0 OFFCURVE",
"850 0 QCURVE SMOOTH",
"1100 0 OFFCURVE",
"1219 88 QCURVE SMOOTH",
"1337 175 OFFCURVE",
"1374 350 QCURVE SMOOTH",
"1491 900 LINE SMOOTH",
"1497 930 OFFCURVE",
"1497 959 QCURVE SMOOTH",
"1497 1011 OFFCURVE",
"1476 1058 QCURVE SMOOTH",
"1443 1130 OFFCURVE",
"1358 1188 QCURVE",
"1449 1286 LINE",
"1499 1228 OFFCURVE",
"1568 1228 QCURVE SMOOTH",
"1577 1228 LINE SMOOTH",
"1652 1231 OFFCURVE",
"1703 1266 QCURVE SMOOTH",
"1750 1300 LINE",
"1741 1299 OFFCURVE",
"1731 1299 QCURVE SMOOTH",
"1672 1299 OFFCURVE",
"1611 1342 QCURVE SMOOTH",
"1539 1392 OFFCURVE",
"1467 1500 QCURVE",
"1425 1427 OFFCURVE",
"1336 1327 QCURVE SMOOTH",
"1247 1227 OFFCURVE",
"1100 1141 QCURVE",
"1234 1133 OFFCURVE",
"1297 1066 QCURVE SMOOTH",
"1348 1011 OFFCURVE",
"1348 957 QCURVE SMOOTH",
"1348 945 OFFCURVE",
"1345 933 QCURVE SMOOTH",
"1227 375 LINE SMOOTH",
"1203 263 OFFCURVE",
"1126 206 QCURVE SMOOTH",
"1050 150 OFFCURVE",
"850 150 QCURVE SMOOTH",
"655 150 OFFCURVE",
"584 213 QCURVE SMOOTH",
"532 258 OFFCURVE",
"532 338 QCURVE SMOOTH",
"532 366 OFFCURVE",
"539 400 QCURVE SMOOTH",
"645 900 LINE SMOOTH",
"651 930 OFFCURVE",
"651 959 QCURVE SMOOTH",
"651 1011 OFFCURVE",
"630 1058 QCURVE SMOOTH",
"597 1130 OFFCURVE",
"512 1188 QCURVE",
"603 1286 LINE",
"652 1229 OFFCURVE",
"747 1229 QCURVE SMOOTH",
"762 1229 LINE SMOOTH",
"868 1233 OFFCURVE",
"954 1340 QCURVE",
"907 1321 OFFCURVE",
"865 1321 QCURVE SMOOTH",
"817 1321 OFFCURVE",
"774 1346 QCURVE SMOOTH",
"693 1392 OFFCURVE",
"621 1500 QCURVE",
"579 1427 OFFCURVE",
"490 1327 QCURVE SMOOTH",
"401 1227 OFFCURVE",
"254 1141 QCURVE",
"388 1133 OFFCURVE",
"451 1066 QCURVE SMOOTH",
"502 1011 OFFCURVE",
"502 957 QCURVE SMOOTH",
"502 945 OFFCURVE",
"499 933 QCURVE SMOOTH",
"390 425 LINE SMOOTH"
);
}
);
width = 1600;
}
);
note = uni1794;
unicode = 1794;
},
{
glyphname = uni1795;
layers = (
{
layerId = "982A60EF-513A-498E-AE80-A9982858EA0F";
paths = (
{
closed = 1;
nodes = (
"726 1029 QCURVE SMOOTH",
"740 1029 OFFCURVE",
"747 1039 QCURVE SMOOTH",
"751 1045 OFFCURVE",
"751 1052 QCURVE SMOOTH",
"751 1077 OFFCURVE",
"705 1122 QCURVE SMOOTH",
"661 1164 LINE",
"836 1310 LINE",
"901 1236 OFFCURVE",
"995 1193 QCURVE SMOOTH",
"1089 1150 OFFCURVE",
"1201 1150 QCURVE SMOOTH",
"1372 1150 OFFCURVE",
"1484 1275 QCURVE SMOOTH",
"1597 1399 OFFCURVE",
"1651 1649 QCURVE SMOOTH",
"1660 1684 OFFCURVE",
"1660 1710 QCURVE SMOOTH",
"1660 1727 OFFCURVE",
"1656 1740 QCURVE SMOOTH",
"1648 1773 OFFCURVE",
"1617 1782 QCURVE SMOOTH",
"1610 1784 OFFCURVE",
"1603 1784 QCURVE SMOOTH",
"1582 1784 OFFCURVE",
"1563 1763 QCURVE SMOOTH",
"1540 1737 OFFCURVE",
"1523 1674 QCURVE SMOOTH",
"1472 1487 OFFCURVE",
"1392 1394 QCURVE SMOOTH",
"1312 1300 OFFCURVE",
"1201 1300 QCURVE SMOOTH",
"1123 1300 OFFCURVE",
"1060 1327 QCURVE SMOOTH",
"998 1355 OFFCURVE",
"950 1409 QCURVE SMOOTH",
"869 1500 OFFCURVE",
"842 1500 QCURVE SMOOTH",
"815 1500 OFFCURVE",
"772 1448 QCURVE SMOOTH",
"730 1395 OFFCURVE",
"555 1256 OFFCURVE",
"351 1143 QCURVE",
"419 1134 LINE SMOOTH",
"487 1126 OFFCURVE",
"552 1103 QCURVE SMOOTH",
"616 1081 OFFCURVE",
"673 1048 QCURVE SMOOTH",
"706 1029 OFFCURVE"
);
},
{
closed = 1;
nodes = (
"1214 653 OFFCURVE",
"1183 678 QCURVE SMOOTH",
"1168 690 OFFCURVE",
"1168 714 QCURVE SMOOTH",
"1168 739 OFFCURVE",
"1184 777 QCURVE SMOOTH",
"1214 850 OFFCURVE",
"1301 850 QCURVE SMOOTH",
"1317 850 OFFCURVE",
"1317 820 QCURVE SMOOTH",
"1317 800 OFFCURVE",
"1310 766 QCURVE SMOOTH",
"1286 650 LINE"
);
},
{
closed = 1;
nodes = (
"1469 793 OFFCURVE",
"1469 831 QCURVE SMOOTH",
"1469 897 OFFCURVE",
"1439 937 QCURVE SMOOTH",
"1392 1000 OFFCURVE",
"1301 1000 QCURVE SMOOTH",
"1226 1000 OFFCURVE",
"1153 949 QCURVE SMOOTH",
"1080 898 OFFCURVE",
"1035 778 QCURVE SMOOTH",
"1015 725 OFFCURVE",
"1015 682 QCURVE SMOOTH",
"1015 626 OFFCURVE",
"1048 585 QCURVE SMOOTH",
"1107 511 OFFCURVE",
"1254 501 QCURVE",
"1183 167 LINE",
"869 435 LINE",
"499 208 LINE",
"636 851 LINE SMOOTH",
"643 886 OFFCURVE",
"643 915 QCURVE SMOOTH",
"643 968 OFFCURVE",
"618 1000 QCURVE SMOOTH",
"589 1036 OFFCURVE",
"531 1036 QCURVE SMOOTH",
"512 1036 OFFCURVE",
"490 1032 QCURVE SMOOTH",
"401 1015 OFFCURVE",
"401 953 QCURVE SMOOTH",
"401 891 OFFCURVE",
"439 860 QCURVE SMOOTH",
"463 840 OFFCURVE",
"463 789 QCURVE SMOOTH",
"463 759 OFFCURVE",
"454 717 QCURVE SMOOTH",
"322 100 LINE SMOOTH",
"318 79 OFFCURVE",
"318 62 QCURVE SMOOTH",
"318 0 OFFCURVE",
"378 0 QCURVE SMOOTH",
"454 0 OFFCURVE",
"554 63 QCURVE SMOOTH",
"854 250 LINE",
"1075 63 LINE SMOOTH",
"1148 0 OFFCURVE",
"1225 0 QCURVE SMOOTH",
"1301 0 OFFCURVE",
"1322 100 QCURVE SMOOTH",
"1459 747 LINE SMOOTH"
);
}
);
width = 1600;
}
);
note = uni1795;
unicode = 1795;
},
{
glyphname = uni1796;
layers = (
{
layerId = "982A60EF-513A-498E-AE80-A9982858EA0F";
paths = (
{
closed = 1;
nodes = (
"560 500 OFFCURVE",
"651 500 QCURVE SMOOTH",
"715 500 OFFCURVE",
"743 484 QCURVE SMOOTH",
"761 474 OFFCURVE",
"761 442 QCURVE SMOOTH",
"761 425 OFFCURVE",
"756 402 QCURVE SMOOTH",
"730 310 OFFCURVE",
"653 243 QCURVE SMOOTH",
"545 150 OFFCURVE",
"486 150 QCURVE",
"543 421 LINE SMOOTH"
);
},
{
closed = 1;
nodes = (
"335 163 OFFCURVE",
"335 132 QCURVE SMOOTH",
"335 81 OFFCURVE",
"357 50 QCURVE SMOOTH",
"393 0 OFFCURVE",
"486 0 QCURVE SMOOTH",
"584 0 OFFCURVE",
"742 127 QCURVE SMOOTH",
"870 228 OFFCURVE",
"903 382 QCURVE SMOOTH",
"908 411 OFFCURVE",
"908 437 QCURVE SMOOTH",
"908 561 OFFCURVE",
"799 625 QCURVE SMOOTH",
"755 650 OFFCURVE",
"651 650 QCURVE SMOOTH",
"620 650 OFFCURVE",
"590 636 QCURVE",
"668 1006 LINE SMOOTH",
"710 1222 OFFCURVE",
"746 1253 QCURVE SMOOTH",
"818 1315 LINE SMOOTH",
"854 1346 OFFCURVE",
"900 1350 QCURVE",
"943 1350 OFFCURVE",
"1071 1150 QCURVE",
"1294 1350 OFFCURVE",
"1326 1350 QCURVE SMOOTH",
"1357 1350 OFFCURVE",
"1416 1286 QCURVE",
"1474 1214 OFFCURVE",
"1479 1127 QCURVE",
"1478 1079 OFFCURVE",
"1441 914 QCURVE SMOOTH",
"1310 297 LINE SMOOTH",
"1286 186 OFFCURVE",
"1238 173 QCURVE SMOOTH",
"1190 160 OFFCURVE",
"1175 115 QCURVE SMOOTH",
"1172 105 OFFCURVE",
"1172 95 QCURVE SMOOTH",
"1172 62 OFFCURVE",
"1210 35 QCURVE SMOOTH",
"1260 0 OFFCURVE",
"1330 0 QCURVE SMOOTH",
"1400 0 OFFCURVE",
"1422 100 QCURVE SMOOTH",
"1590 890 LINE SMOOTH",
"1625 1046 OFFCURVE",
"1625 1125 QCURVE SMOOTH",
"1625 1142 OFFCURVE",
"1623 1156 QCURVE SMOOTH",
"1607 1272 OFFCURVE",
"1510 1390 QCURVE SMOOTH",
"1412 1500 OFFCURVE",
"1334 1500 QCURVE SMOOTH",
"1256 1500 OFFCURVE",
"1097 1340 QCURVE",
"1047 1417 LINE",
"1000 1500 OFFCURVE",
"900 1500 QCURVE SMOOTH",
"834 1500 OFFCURVE",
"754 1432 QCURVE SMOOTH",
"653 1350 LINE SMOOTH",
"570 1280 OFFCURVE",
"519 1036 QCURVE SMOOTH",
"343 200 LINE SMOOTH"
);
}
);
width = 1700;
}
);
note = uni1796;
unicode = 1796;
},
{
glyphname = uni1797;
layers = (
{
layerId = "982A60EF-513A-498E-AE80-A9982858EA0F";
paths = (
{
closed = 1;
nodes = (
"675 1029 QCURVE SMOOTH",
"689 1029 OFFCURVE",
"696 1039 QCURVE SMOOTH",
"700 1045 OFFCURVE",
"700 1052 QCURVE SMOOTH",
"700 1077 OFFCURVE",
"654 1122 QCURVE SMOOTH",
"593 1180 LINE",
"775 1322 LINE",
"935 1139 LINE",
"1156 1334 LINE",
"1190 1281 OFFCURVE",
"1298 1208 QCURVE SMOOTH",
"1407 1135 OFFCURVE",
"1478 1122 QCURVE SMOOTH",
"1505 1117 OFFCURVE",
"1522 1117 QCURVE SMOOTH",
"1550 1117 OFFCURVE",
"1550 1131 QCURVE SMOOTH",
"1550 1154 OFFCURVE",
"1495 1200 QCURVE SMOOTH",
"1440 1246 OFFCURVE",
"1368 1324 QCURVE SMOOTH",
"1297 1402 OFFCURVE",
"1243 1500 OFFCURVE",
"1212 1500 QCURVE SMOOTH",
"1182 1500 OFFCURVE",
"1132 1455 QCURVE SMOOTH",
"1081 1409 LINE",
"978 1318 LINE",
"899 1409 LINE SMOOTH",
"818 1500 OFFCURVE",
"791 1500 QCURVE SMOOTH",
"764 1500 OFFCURVE",
"721 1448 QCURVE SMOOTH",
"679 1395 OFFCURVE",
"504 1256 OFFCURVE",
"300 1143 QCURVE",
"368 1134 LINE SMOOTH",
"436 1126 OFFCURVE",
"501 1103 QCURVE SMOOTH",
"565 1081 OFFCURVE",
"622 1048 QCURVE SMOOTH",
"655 1029 OFFCURVE"
);
},
{
closed = 1;
nodes = (
"376 522 OFFCURVE",
"346 522 QCURVE SMOOTH",
"300 522 OFFCURVE",
"262 493 QCURVE SMOOTH",
"200 446 OFFCURVE",
"200 342 QCURVE SMOOTH",
"200 237 OFFCURVE",
"246 119 QCURVE SMOOTH",
"292 0 OFFCURVE",
"366 0 QCURVE SMOOTH",
"400 0 OFFCURVE",
"432 25 QCURVE SMOOTH",
"464 49 OFFCURVE",
"485 150 QCURVE SMOOTH",
"598 679 LINE SMOOTH",
"614 757 OFFCURVE",
"683 804 QCURVE SMOOTH",
"753 850 OFFCURVE",
"900 850 QCURVE SMOOTH",
"1141 850 OFFCURVE",
"1217 772 QCURVE SMOOTH",
"1256 734 OFFCURVE",
"1265 670 QCURVE SMOOTH",
"1268 648 OFFCURVE",
"1268 624 QCURVE SMOOTH",
"1268 577 OFFCURVE",
"1256 519 QCURVE SMOOTH",
"1210 297 LINE SMOOTH",
"1186 186 OFFCURVE",
"1138 173 QCURVE SMOOTH",
"1090 160 OFFCURVE",
"1075 115 QCURVE SMOOTH",
"1072 105 OFFCURVE",
"1072 95 QCURVE SMOOTH",
"1072 62 OFFCURVE",
"1110 35 QCURVE SMOOTH",
"1160 0 OFFCURVE",
"1230 0 QCURVE SMOOTH",
"1300 0 OFFCURVE",
"1322 100 QCURVE SMOOTH",
"1403 485 LINE SMOOTH",
"1420 564 OFFCURVE",
"1420 630 QCURVE SMOOTH",
"1420 672 OFFCURVE",
"1413 710 QCURVE SMOOTH",
"1395 807 OFFCURVE",
"1331 871 QCURVE SMOOTH",
"1268 936 OFFCURVE",
"1160 968 QCURVE SMOOTH",
"1052 1000 OFFCURVE",
"900 1000 QCURVE SMOOTH",
"706 1000 OFFCURVE",
"593 925 QCURVE SMOOTH",
"481 850 OFFCURVE",
"449 700 QCURVE SMOOTH",
"409 510 LINE"
);
}
);
width = 1600;
}
);
note = uni1797;
unicode = 1797;
},
{
glyphname = uni1798;
layers = (
{
layerId = "982A60EF-513A-498E-AE80-A9982858EA0F";
paths = (
{
closed = 1;
nodes = (
"1227 375 LINE SMOOTH",
"1203 263 OFFCURVE",
"1126 206 QCURVE SMOOTH",
"1050 150 OFFCURVE",
"850 150 QCURVE SMOOTH",
"655 150 OFFCURVE",
"584 213 QCURVE SMOOTH",
"532 258 OFFCURVE",
"532 338 QCURVE SMOOTH",
"532 366 OFFCURVE",
"539 400 QCURVE SMOOTH",
"592 650 LINE",
"1285 650 LINE"
);
},
{
closed = 1;
nodes = (
"651 930 OFFCURVE",
"651 959 QCURVE SMOOTH",
"651 1011 OFFCURVE",
"630 1058 QCURVE SMOOTH",
"597 1130 OFFCURVE",
"512 1188 QCURVE",
"603 1286 LINE",
"652 1229 OFFCURVE",
"747 1229 QCURVE SMOOTH",
"762 1229 LINE SMOOTH",
"868 1233 OFFCURVE",
"954 1340 QCURVE",
"907 1321 OFFCURVE",
"865 1321 QCURVE SMOOTH",
"817 1321 OFFCURVE",
"774 1346 QCURVE SMOOTH",
"693 1392 OFFCURVE",
"621 1500 QCURVE",
"579 1427 OFFCURVE",
"490 1327 QCURVE SMOOTH",
"401 1227 OFFCURVE",
"254 1141 QCURVE",
"388 1133 OFFCURVE",
"451 1066 QCURVE SMOOTH",
"502 1011 OFFCURVE",
"502 957 QCURVE SMOOTH",
"502 945 OFFCURVE",
"499 933 QCURVE SMOOTH",
"390 425 LINE SMOOTH",
"379 373 OFFCURVE",
"379 327 QCURVE SMOOTH",
"379 192 OFFCURVE",
"474 110 QCURVE SMOOTH",
"600 0 OFFCURVE",
"850 0 QCURVE SMOOTH",
"1100 0 OFFCURVE",
"1219 88 QCURVE SMOOTH",
"1337 175 OFFCURVE",
"1374 350 QCURVE SMOOTH",
"1491 900 LINE SMOOTH",
"1497 930 OFFCURVE",
"1497 959 QCURVE SMOOTH",
"1497 1011 OFFCURVE",
"1476 1058 QCURVE SMOOTH",
"1443 1130 OFFCURVE",
"1358 1188 QCURVE",
"1449 1286 LINE",
"1499 1228 OFFCURVE",
"1568 1228 QCURVE SMOOTH",
"1577 1228 LINE SMOOTH",
"1652 1231 OFFCURVE",
"1703 1266 QCURVE SMOOTH",
"1750 1300 LINE",
"1741 1299 OFFCURVE",
"1731 1299 QCURVE SMOOTH",
"1672 1299 OFFCURVE",
"1611 1342 QCURVE SMOOTH",
"1539 1392 OFFCURVE",
"1467 1500 QCURVE",
"1425 1427 OFFCURVE",
"1336 1327 QCURVE SMOOTH",
"1247 1227 OFFCURVE",
"1100 1141 QCURVE",
"1234 1133 OFFCURVE",
"1297 1066 QCURVE SMOOTH",
"1348 1011 OFFCURVE",
"1348 957 QCURVE SMOOTH",
"1348 945 OFFCURVE",
"1345 933 QCURVE SMOOTH",
"1317 800 LINE",
"624 800 LINE",
"645 900 LINE SMOOTH"
);
}
);
width = 1600;
}
);
note = uni1798;
unicode = 1798;
},
{
glyphname = uni1799;
layers = (
{
layerId = "982A60EF-513A-498E-AE80-A9982858EA0F";
paths = (
{
closed = 1;
nodes = (
"390 440 OFFCURVE",
"390 370 QCURVE SMOOTH",
"390 321 OFFCURVE",
"400 277 QCURVE SMOOTH",
"424 170 OFFCURVE",
"512 85 QCURVE SMOOTH",
"600 0 OFFCURVE",
"850 0 QCURVE SMOOTH",
"1020 0 OFFCURVE",
"1110 31 QCURVE SMOOTH",
"1201 63 OFFCURVE",
"1262 126 QCURVE",
"1310 63 OFFCURVE",
"1406 31 QCURVE SMOOTH",
"1502 0 OFFCURVE",
"1667 0 QCURVE SMOOTH",
"1897 0 OFFCURVE",
"2016 88 QCURVE SMOOTH",
"2134 175 OFFCURVE",
"2171 350 QCURVE SMOOTH",
"2288 900 LINE SMOOTH",
"2294 930 OFFCURVE",
"2294 959 QCURVE SMOOTH",
"2294 1011 OFFCURVE",
"2273 1058 QCURVE SMOOTH",
"2240 1130 OFFCURVE",
"2155 1188 QCURVE",
"2246 1286 LINE",
"2296 1228 OFFCURVE",
"2365 1228 QCURVE SMOOTH",
"2374 1228 LINE SMOOTH",
"2449 1231 OFFCURVE",
"2500 1266 QCURVE SMOOTH",
"2550 1300 LINE",
"2540 1299 OFFCURVE",
"2530 1299 QCURVE SMOOTH",
"2469 1299 OFFCURVE",
"2408 1342 QCURVE SMOOTH",
"2336 1392 OFFCURVE",
"2264 1500 QCURVE",
"2222 1427 OFFCURVE",
"2133 1327 QCURVE SMOOTH",
"2044 1227 OFFCURVE",
"1897 1141 QCURVE",
"2031 1133 OFFCURVE",
"2094 1066 QCURVE SMOOTH",
"2145 1011 OFFCURVE",
"2145 957 QCURVE SMOOTH",
"2145 945 OFFCURVE",
"2142 933 QCURVE SMOOTH",
"2024 375 LINE SMOOTH",
"2000 263 OFFCURVE",
"1918 206 QCURVE SMOOTH",
"1836 150 OFFCURVE",
"1667 150 QCURVE SMOOTH",
"1490 150 OFFCURVE",
"1422 200 QCURVE SMOOTH",
"1369 239 OFFCURVE",
"1369 307 QCURVE SMOOTH",
"1369 327 OFFCURVE",
"1374 350 QCURVE SMOOTH",
"1491 900 LINE SMOOTH",
"1497 930 OFFCURVE",
"1497 959 QCURVE SMOOTH",
"1497 1011 OFFCURVE",
"1476 1058 QCURVE SMOOTH",
"1443 1130 OFFCURVE",
"1358 1188 QCURVE",
"1449 1286 LINE",
"1498 1229 OFFCURVE",
"1593 1229 QCURVE SMOOTH",
"1608 1229 LINE SMOOTH",
"1714 1233 OFFCURVE",
"1800 1340 QCURVE",
"1753 1321 OFFCURVE",
"1711 1321 QCURVE SMOOTH",
"1663 1321 OFFCURVE",
"1620 1346 QCURVE SMOOTH",
"1539 1392 OFFCURVE",
"1467 1500 QCURVE",
"1425 1427 OFFCURVE",
"1336 1327 QCURVE SMOOTH",
"1247 1227 OFFCURVE",
"1100 1141 QCURVE",
"1234 1133 OFFCURVE",
"1297 1066 QCURVE SMOOTH",
"1348 1011 OFFCURVE",
"1348 957 QCURVE SMOOTH",
"1348 945 OFFCURVE",
"1345 933 QCURVE SMOOTH",
"1222 356 LINE",
"1194 253 OFFCURVE",
"1114 201 QCURVE SMOOTH",
"1033 150 OFFCURVE",
"850 150 QCURVE SMOOTH",
"663 150 OFFCURVE",
"594 243 QCURVE SMOOTH",
"548 304 OFFCURVE",
"548 395 QCURVE SMOOTH",
"548 441 OFFCURVE",
"560 495 QCURVE SMOOTH",
"698 1155 LINE",
"723 1142 OFFCURVE",
"751 1142 QCURVE SMOOTH",
"783 1142 OFFCURVE",
"818 1159 QCURVE SMOOTH",
"884 1189 OFFCURVE",
"907 1270 QCURVE SMOOTH",
"916 1300 OFFCURVE",
"916 1330 QCURVE SMOOTH",
"916 1378 OFFCURVE",
"892 1425 QCURVE SMOOTH",
"853 1500 OFFCURVE",
"760 1500 QCURVE SMOOTH",
"618 1500 OFFCURVE",
"579 1316 QCURVE SMOOTH",
"411 520 LINE"
);
}
);
width = 2400;
}
);
note = uni1799;
unicode = 1799;
},
{
glyphname = uni179A;
layers = (
{
layerId = "982A60EF-513A-498E-AE80-A9982858EA0F";
paths = (
{
closed = 1;
nodes = (
"743 930 OFFCURVE",
"743 959 QCURVE SMOOTH",
"743 1011 OFFCURVE",
"722 1058 QCURVE SMOOTH",
"689 1130 OFFCURVE",
"604 1188 QCURVE",
"695 1286 LINE",
"745 1228 OFFCURVE",
"814 1228 QCURVE SMOOTH",
"823 1228 LINE SMOOTH",
"898 1231 OFFCURVE",
"949 1266 QCURVE SMOOTH",
"999 1300 LINE",
"989 1299 OFFCURVE",
"979 1299 QCURVE SMOOTH",
"918 1299 OFFCURVE",
"857 1342 QCURVE SMOOTH",
"785 1392 OFFCURVE",
"713 1500 QCURVE",
"671 1427 OFFCURVE",
"582 1327 QCURVE SMOOTH",
"493 1227 OFFCURVE",
"346 1141 QCURVE",
"480 1133 OFFCURVE",
"543 1066 QCURVE SMOOTH",
"594 1011 OFFCURVE",
"594 957 QCURVE SMOOTH",
"594 945 OFFCURVE",
"591 933 QCURVE SMOOTH",
"501 510 LINE",
"484 519 OFFCURVE",
"465 528 QCURVE SMOOTH",
"445 537 OFFCURVE",
"422 537 QCURVE SMOOTH",
"389 537 OFFCURVE",
"350 518 QCURVE SMOOTH",
"285 484 OFFCURVE",
"271 389 QCURVE SMOOTH",
"269 373 OFFCURVE",
"269 355 QCURVE SMOOTH",
"269 268 OFFCURVE",
"321 147 QCURVE SMOOTH",
"384 0 OFFCURVE",
"458 0 QCURVE SMOOTH",
"492 0 OFFCURVE",
"524 25 QCURVE SMOOTH",
"556 49 OFFCURVE",
"577 150 QCURVE SMOOTH",
"737 900 LINE SMOOTH"
);
}
);
width = 849;
}
);
note = uni179A;
unicode = 179A;
},
{
glyphname = uni179B;
layers = (
{
layerId = "982A60EF-513A-498E-AE80-A9982858EA0F";
paths = (
{
closed = 1;
nodes = (
"1967 88 QCURVE SMOOTH",
"2085 175 OFFCURVE",
"2122 350 QCURVE SMOOTH",
"2239 900 LINE SMOOTH",
"2245 930 OFFCURVE",
"2245 959 QCURVE SMOOTH",
"2245 1011 OFFCURVE",
"2224 1058 QCURVE SMOOTH",
"2191 1130 OFFCURVE",
"2106 1188 QCURVE",
"2197 1286 LINE",
"2247 1228 OFFCURVE",
"2316 1228 QCURVE SMOOTH",
"2325 1228 LINE SMOOTH",
"2400 1231 OFFCURVE",
"2451 1266 QCURVE SMOOTH",
"2501 1300 LINE",
"2491 1299 OFFCURVE",
"2481 1299 QCURVE SMOOTH",
"2420 1299 OFFCURVE",
"2359 1342 QCURVE SMOOTH",
"2287 1392 OFFCURVE",
"2215 1500 QCURVE",
"2173 1427 OFFCURVE",
"2084 1327 QCURVE SMOOTH",
"1995 1227 OFFCURVE",
"1848 1141 QCURVE",
"1982 1133 OFFCURVE",
"2045 1066 QCURVE SMOOTH",
"2096 1011 OFFCURVE",
"2096 957 QCURVE SMOOTH",
"2096 945 OFFCURVE",
"2093 933 QCURVE SMOOTH",
"1975 375 LINE SMOOTH",
"1951 263 OFFCURVE",
"1869 206 QCURVE SMOOTH",
"1787 150 OFFCURVE",
"1628 150 QCURVE SMOOTH",
"1441 150 OFFCURVE",
"1373 200 QCURVE SMOOTH",
"1320 239 OFFCURVE",
"1320 307 QCURVE SMOOTH",
"1320 327 OFFCURVE",
"1325 350 QCURVE SMOOTH",
"1461 985 LINE SMOOTH",
"1478 1064 OFFCURVE",
"1478 1130 QCURVE SMOOTH",
"1478 1172 OFFCURVE",
"1471 1210 QCURVE SMOOTH",
"1453 1307 OFFCURVE",
"1389 1371 QCURVE SMOOTH",
"1326 1436 OFFCURVE",
"1218 1468 QCURVE SMOOTH",
"1110 1500 OFFCURVE",
"1028 1500 QCURVE SMOOTH",
"814 1500 OFFCURVE",
"701 1425 QCURVE SMOOTH",
"589 1350 OFFCURVE",
"557 1200 QCURVE SMOOTH",
"344 200 LINE SMOOTH",
"336 162 OFFCURVE",
"336 131 QCURVE SMOOTH",
"336 81 OFFCURVE",
"358 50 QCURVE SMOOTH",
"394 0 OFFCURVE",
"447 0 QCURVE SMOOTH",
"500 0 OFFCURVE",
"597 101 QCURVE SMOOTH",
"694 201 OFFCURVE",
"721 294 QCURVE SMOOTH",
"730 328 OFFCURVE",
"730 357 QCURVE SMOOTH",
"730 408 OFFCURVE",
"701 444 QCURVE SMOOTH",
"654 500 OFFCURVE",
"600 500 QCURVE SMOOTH",
"579 500 OFFCURVE",
"560 498 QCURVE",
"706 1179 LINE SMOOTH",
"722 1257 OFFCURVE",
"791 1304 QCURVE SMOOTH",
"861 1350 OFFCURVE",
"1028 1350 QCURVE SMOOTH",
"1199 1350 OFFCURVE",
"1275 1272 QCURVE SMOOTH",
"1314 1234 OFFCURVE",
"1323 1170 QCURVE SMOOTH",
"1326 1148 OFFCURVE",
"1326 1124 QCURVE SMOOTH",
"1326 1077 OFFCURVE",
"1314 1019 QCURVE SMOOTH",
"1177 375 LINE SMOOTH",
"1166 324 OFFCURVE",
"1166 280 QCURVE SMOOTH",
"1166 163 OFFCURVE",
"1243 94 QCURVE SMOOTH",
"1348 0 OFFCURVE",
"1628 0 QCURVE SMOOTH",
"1848 0 OFFCURVE"
);
}
);
width = 2351;
}
);
note = uni179B;
unicode = 179B;
},
{
glyphname = uni179C;
layers = (
{
layerId = "982A60EF-513A-498E-AE80-A9982858EA0F";
paths = (
{
closed = 1;
nodes = (
"743 930 OFFCURVE",
"743 959 QCURVE SMOOTH",
"743 1011 OFFCURVE",
"722 1058 QCURVE SMOOTH",
"689 1130 OFFCURVE",
"594 1198 QCURVE",
"645 1286 LINE",
"695 1228 OFFCURVE",
"799 1228 QCURVE SMOOTH",
"813 1228 LINE SMOOTH",
"888 1231 OFFCURVE",
"942 1291 QCURVE SMOOTH",
"996 1350 OFFCURVE",
"996 1450 QCURVE SMOOTH",
"996 1700 OFFCURVE",
"891 1825 QCURVE SMOOTH",
"786 1950 OFFCURVE",
"753 1950 QCURVE SMOOTH",
"742 1950 OFFCURVE",
"742 1938 QCURVE SMOOTH",
"742 1911 OFFCURVE",
"793 1827 QCURVE SMOOTH",
"866 1703 OFFCURVE",
"866 1520 QCURVE SMOOTH",
"866 1360 OFFCURVE",
"808 1360 QCURVE SMOOTH",
"807 1360 LINE SMOOTH",
"749 1360 OFFCURVE",
"636 1500 QCURVE",
"596 1380 OFFCURVE",
"458 1199 OFFCURVE",
"346 1141 QCURVE",
"480 1133 OFFCURVE",
"543 1066 QCURVE SMOOTH",
"594 1011 OFFCURVE",
"594 957 QCURVE SMOOTH",
"594 945 OFFCURVE",
"591 933 QCURVE SMOOTH",
"501 510 LINE",
"484 519 OFFCURVE",
"465 528 QCURVE SMOOTH",
"445 537 OFFCURVE",
"422 537 QCURVE SMOOTH",
"389 537 OFFCURVE",
"350 518 QCURVE SMOOTH",
"285 484 OFFCURVE",
"271 389 QCURVE SMOOTH",
"269 373 OFFCURVE",
"269 355 QCURVE SMOOTH",
"269 268 OFFCURVE",
"321 147 QCURVE SMOOTH",
"384 0 OFFCURVE",
"458 0 QCURVE SMOOTH",
"492 0 OFFCURVE",
"524 25 QCURVE SMOOTH",
"556 49 OFFCURVE",
"577 150 QCURVE SMOOTH",
"737 900 LINE SMOOTH"
);
}
);
width = 849;
}
);
note = uni179C;
unicode = 179C;
},
